<svg version="1.2" xmlns="http://www.w3.org/2000/svg" width="64" height="62"><style>.a{fill:#00a551}</style><path class="a" d="M38.4 8c-1.1.4-1.9 1.5-1.9 2.8v4.4H4c-2.2 0-4-1.8-4-4 0-2.3 1.9-4 4-4h34.2c.1.2.1.5.2.8zM12.3 29h3.6v16.7h-3.6z"/><path fill-rule="evenodd" class="a" d="M55 27.8v23.3c0 .5-.5 1-1 1H39.3l7.9 7.7c.4.4.4 1 0 1.4-.4.4-1 .4-1.4 0l-9.3-9.1h-5.9v7c0 .6-.4 1-1 1s-1-.4-1-1v-7h-5.9l-9.3 9.1c-.4.4-1 .4-1.4 0-.4-.4-.4-1 0-1.4l7.9-7.7H5.3c-.6 0-1-.5-1-1V17.2h32.5c.4.6.9 1.1 1.6 1.4-.5 1.1-.3 2.4.6 3.3l3.6 3.6c.9.9 2.3 1 3.3.6.5 1.1 1.5 1.9 2.8 1.9h5.1c.4 0 .8-.1 1.2-.2zm-16.4.2c0-.6-.5-1-1-1H32c-.5 0-1 .4-1 1v18.7c0 .5.5 1 1 1h5.5c.5 0 1-.5 1-1zm-10.4 7.2c0-.6-.5-1-1-1h-5.6c-.6 0-1 .4-1 1v11.5c0 .5.4 1 1 1h5.6c.5 0 1-.5 1-1zM17.9 28c0-.6-.4-1-1-1h-5.6c-.6 0-1 .4-1 1v18.7c0 .5.4 1 1 1h5.6c.6 0 1-.5 1-1zm31 7.2c0-.6-.4-1-1-1h-5.6c-.5 0-1 .4-1 1v11.5c0 .5.5 1 1 1h5.6c.6 0 1-.5 1-1zm-5.6 1h3.6v9.5h-3.6zM36.6 29v16.7H33V29zm-10.3 7.2v9.5h-3.6v-9.5z"/><path class="a" d="M51.4 9.4v2.3c-.8-.3-1.3-.5-1.3-1.2s.6-1 1.3-1.1zM53.7 14.9c0 .7-.7 1.1-1.4 1.2v-2.4c.8.2 1.4.4 1.4 1.2z"/><path fill-rule="evenodd" class="a" d="M64 10.7v5.1c0 .6-.4 1-1 1h-2.1c-.1.3-.2.5-.3.8l1.5 1.5c.4.4.4 1 0 1.4l-3.6 3.6c-.4.4-1 .4-1.4 0l-1.5-1.5c-.2.1-.4.2-.7.3V25c0 .6-.5 1-1 1h-5.1c-.5 0-1-.4-1-1v-2c-.3-.1-.5-.2-.8-.3l-1.5 1.5c-.4.4-1 .4-1.4 0l-3.6-3.6c-.4-.4-.4-1 0-1.4l1.5-1.5c-.1-.3-.2-.5-.3-.8h-2.1c-.6 0-1-.4-1-1v-5.1c0-.6.4-1 1-1h2.1c.1-.3.2-.6.3-.8l-1.5-1.5c-.4-.4-.4-1 0-1.4l3.6-3.6c.4-.4 1-.4 1.4 0L47 4c.2-.1.5-.2.8-.4V1.5c0-.5.5-1 1-1h5.1c.5 0 1 .5 1 1v2.2c.2.1.4.2.7.3l1.5-1.6c.4-.4 1-.4 1.4 0L62.1 6c.4.4.4 1 0 1.4l-1.5 1.5c.1.3.2.5.3.8H63c.6 0 1 .5 1 1zm-8.7 4.1c0-1.8-1.3-2.4-3-2.8V9.5c.7.1 1.3.4 1.9.8l.9-1.3c-.9-.6-1.8-.9-2.8-1v-.7h-.9V8c-1.6.1-2.9 1-2.9 2.7 0 1.7 1.1 2.3 2.9 2.7V16c-.8-.1-1.5-.5-2.3-1.2l-1 1.2q1.5 1.3 3.3 1.5v1h.9v-1c1.7 0 3-1 3-2.7z"/></svg>