<svg version="1.2" xmlns="http://www.w3.org/2000/svg" width="28" height="28"><style>.a{fill:#00a551}</style><path class="a" d="M4 4c-.6 0-1-.4-1-1 0-1.7 1.3-3 3-3h3c.6 0 1 .4 1 1s-.4 1-1 1H6c-.6 0-1 .4-1 1s-.4 1-1 1zM5 17H1V5c0-.4.2-.8.6-.9.4-.2.8-.1 1.1.2l2 2c.2.2.3.4.3.7zM27.5 10.4L26 9.6V9v-.6l1.5-.8c.2-.1.4-.4.5-.6.1-.2 0-.5-.1-.8l-2-3.5c-.3-.5-.9-.6-1.4-.4l-1.5.9c-.3-.2-.7-.4-1-.6V1c0-.6-.4-1-1-1h-4c-.6 0-1 .4-1 1v1.7c-.4.2-.7.4-1 .6l-1.5-.8c-.5-.3-1.1-.1-1.4.4l-2 3.5c-.1.1-.1.3-.1.6s.2.5.5.6l1.5.8v1.2l-1.5.8c-.2.1-.4.4-.5.6-.1.2 0 .5.1.8l1.9 3.3c.9-1.6 2.3-2.8 3.9-3.5-.6-.7-1-1.6-1-2.6 0-2.2 1.8-4 4-4s4 1.8 4 4c0 1-.4 1.9-1 2.6 1.7.7 3 1.9 3.9 3.5l1.9-3.3c.3-.3.3-.5.3-.8 0-.3-.3-.5-.5-.6z"/><path class="a" d="M17 11.3c.6-.2 1.3-.3 2-.3s1.3.1 2 .3c.6-.6 1-1.4 1-2.3 0-1.7-1.3-3-3-3s-3 1.3-3 3c0 .9.4 1.7 1 2.3zM12 19h14c0-3.9-3.1-7-7-7s-7 3.1-7 7zM12 20h14v2H12zM25 28H12v-5h14v4c0 .6-.4 1-1 1z"/><path fill-rule="evenodd" class="a" d="M11 18v10H1c-.6 0-1-.4-1-1v-8c0-.6.4-1 1-1zm-7 6.5c0-.3-.2-.5-.5-.5h-1c-.3 0-.5.2-.5.5v1c0 .3.2.5.5.5h1c.3 0 .5-.2.5-.5zm0-4c0-.3-.2-.5-.5-.5h-1c-.3 0-.5.2-.5.5v1c0 .3.2.5.5.5h1c.3 0 .5-.2.5-.5zm5 4c0-.3-.2-.5-.5-.5h-1c-.3 0-.5.2-.5.5v1c0 .3.2.5.5.5h1c.3 0 .5-.2.5-.5zm0-4c0-.3-.2-.5-.5-.5h-1c-.3 0-.5.2-.5.5v1c0 .3.2.5.5.5h1c.3 0 .5-.2.5-.5z"/></svg>