<svg version="1.2" xmlns="http://www.w3.org/2000/svg" width="14" height="14"><style>.a{fill:#00a551}</style><path fill-rule="evenodd" class="a" d="M9.3 6.8l-5.9 6.6c-.8.8-2 .8-2.8 0-.8-.8-.8-2 0-2.8l6.6-5.9c-.1-.4-.2-.8-.2-1.2C7 1.6 8.6 0 10.5 0c.3 0 .6.1.9.1L9.2 2.3c-.4.4-.4 1 0 1.4l1.1 1.1c.4.4 1 .4 1.4 0l2.2-2.2c0 .3.1.6.1.9C14 5.4 12.4 7 10.5 7c-.4 0-.8-.1-1.2-.2zM3 12c0-.6-.4-1-1-1s-1 .4-1 1 .4 1 1 1 1-.4 1-1z"/><path class="a" d="M1.5 3.8c.2.2.6.3.8 0l.2-.2 2.1 2.1 1.1-1-2.1-2.2.2-.2c.3-.2.2-.6 0-.8L1.6.1C1.4 0 1.1 0 1 .1L.1 1c-.1.1-.1.4 0 .6zM10.8 8h-.3c-.3 0-.6 0-.9-.1l-2.1 2.4 3.4 3.4c.4.4 1 .4 1.4 0l1.4-1.4c.4-.4.4-1 0-1.4z"/></svg>