<svg version="1.2" xmlns="http://www.w3.org/2000/svg" viewBox="0 0 96 94" width="96" height="94"><style>.a{fill:#00a551}</style><path fill-rule="evenodd" class="a" d="m44.7 33.9v6c0 1.8 1.5 3.3 3.3 3.3 1.8 0 3.3-1.5 3.3-3.3v-6h10.8c2.4 0 4.4 2 4.4 4.4v24.5c0 2.4-2 4.4-4.4 4.4h-28.2c-2.4 0-4.4-2-4.4-4.4v-24.5c0-2.4 2-4.4 4.4-4.4zm50.8 49.4c0 5.6-4.6 10.2-10.2 10.2h-74.6c-5.6 0-10.2-4.6-10.2-10.2 0-5.6 4.6-10.2 10.2-10.2h74.6c5.6 0 10.2 4.6 10.2 10.2zm-80.4 0c0-2.4-2-4.4-4.4-4.4-2.4 0-4.4 2-4.4 4.4 0 2.4 2 4.4 4.4 4.4 2.4 0 4.4-2 4.4-4.4zm14.9 0c0-2.4-2-4.4-4.4-4.4-2.4 0-4.4 2-4.4 4.4 0 2.4 2 4.4 4.4 4.4 2.4 0 4.4-2 4.4-4.4zm14.9 0c0-2.4-2-4.4-4.4-4.4-2.4 0-4.4 2-4.4 4.4 0 2.4 2 4.4 4.4 4.4 2.5 0 4.5-2 4.4-4.4zm15 0c0-2.4-2-4.4-4.4-4.4-2.4 0-4.4 2-4.4 4.4 0 2.4 2 4.4 4.4 4.4 2.4 0 4.4-2 4.4-4.4zm14.9 0c0-2.4-2-4.4-4.4-4.4-2.4 0-4.4 2-4.4 4.4 0 2.4 2 4.4 4.4 4.4 2.4 0 4.4-2 4.4-4.4zm14.9 0c0-2.4-2-4.4-4.4-4.4-2.4 0-4.4 2-4.4 4.4 0 2.4 2 4.4 4.4 4.4 2.4 0 4.4-2 4.4-4.4z"/><path class="a" d="m10.7 6.4h34.4v13.6l-18 4.3c-4.5 1.1-7.7 5-7.8 9.6l-0.3 5.7c-0.1 1.6 1.2 3 2.8 3h0.1c1.6 0 2.9-1.3 2.9-2.8l0.2-5.7c0.1-1.9 1.4-3.6 3.3-4.1l17.7-4.2q1.9-0.4 3.9 0l17.6 4.2c1.9 0.5 3.3 2.1 3.3 4.1l0.2 5.7c0.1 1.6 1.4 2.8 2.9 2.8h0.1c1.6-0.1 2.9-1.4 2.8-3l-0.2-5.7c-0.2-4.6-3.4-8.5-7.8-9.6l-18-4.3v-13.6h34.4c1.6 0 2.9-1.3 2.9-2.9 0-1.6-1.3-2.9-2.9-2.9h-74.5c-1.6 0-2.9 1.3-2.9 2.9 0 1.6 1.3 2.9 2.9 2.9z"/></svg>