<svg width="896" height="406" viewBox="0 0 896 406" fill="none" xmlns="http://www.w3.org/2000/svg">
<g opacity="0.06">
<path d="M-102.799 295.914L-216.074 418.105L20.2122 409.157L-102.799 295.914Z" stroke="white" stroke-width="5"/>
<path d="M-89.8211 280.633L23.4532 158.442L32.4012 394.728L-89.8211 280.633Z" stroke="white" stroke-width="5"/>
<path d="M-112.191 37.0503L-225.071 158.816L-103.305 271.695L9.57438 149.93L-112.191 37.0503Z" stroke="white" stroke-width="5"/>
<path d="M754.747 528.82L632.556 415.546L868.842 406.598L754.747 528.82Z" stroke="white" stroke-width="5"/>
<path d="M183.533 285.071L70.2589 407.262L306.545 398.314L183.533 285.071Z" stroke="white" stroke-width="5"/>
<path d="M171.488 270.738L49.2963 157.463L58.2443 393.749L171.488 270.738Z" stroke="white" stroke-width="5"/>
<path d="M196.512 269.79L309.786 147.599L318.734 383.885L196.512 269.79Z" stroke="white" stroke-width="5"/>
<path d="M174.141 26.207L61.2611 147.972L183.027 260.852L295.906 139.087L174.141 26.207Z" stroke="white" stroke-width="5"/>
<path d="M744.712 263.819L631.438 386.01L867.724 377.062L744.712 263.819Z" stroke="white" stroke-width="5"/>
<path d="M732.667 249.486L610.476 136.212L619.424 372.498L732.667 249.486Z" stroke="white" stroke-width="5"/>
<path d="M757.69 248.538L870.965 126.347L879.913 362.633L757.69 248.538Z" stroke="white" stroke-width="5"/>
<path d="M735.32 4.95562L622.441 126.721L744.206 239.601L857.086 117.835L735.32 4.95562Z" stroke="white" stroke-width="5"/>
<path d="M457.24 266.284L335.049 153.01L343.997 389.296L457.24 266.284Z" stroke="white" stroke-width="5"/>
<path d="M471.573 254.239L584.848 132.047L348.562 140.995L471.573 254.239Z" stroke="white" stroke-width="5"/>
<path d="M472.521 279.262L594.712 392.536L358.426 401.484L472.521 279.262Z" stroke="white" stroke-width="5"/>
</g>
</svg>
