<svg width="1920" height="684" viewBox="0 0 1920 684" fill="none" xmlns="http://www.w3.org/2000/svg">
<g opacity="0.06">
<path d="M148.685 606.638L13.3491 471.058L285.208 471.302L148.685 606.638Z" stroke="white" stroke-width="5"/>
<path d="M135.454 623.617L-0.125061 758.953L0.119222 487.094L135.454 623.617Z" stroke="white" stroke-width="5"/>
<path d="M164.245 623.642L299.581 759.222L299.825 487.362L164.245 623.642Z" stroke="white" stroke-width="5"/>
<path d="M148.889 904.456L14.025 769.349L149.132 634.485L283.996 769.592L148.889 904.456Z" stroke="white" stroke-width="5"/>
<path d="M794.351 607.217L659.015 471.638L930.874 471.882L794.351 607.217Z" stroke="white" stroke-width="5"/>
<path d="M781.12 624.197L645.54 759.533L645.785 487.673L781.12 624.197Z" stroke="white" stroke-width="5"/>
<path d="M809.911 624.223L945.247 759.802L945.492 487.943L809.911 624.223Z" stroke="white" stroke-width="5"/>
<path d="M794.555 905.036L659.691 769.929L794.798 635.064L929.662 770.171L794.555 905.036Z" stroke="white" stroke-width="5"/>
<path d="M463.958 616.596L328.379 751.932L328.623 480.073L463.958 616.596Z" stroke="white" stroke-width="5"/>
<path d="M480.937 629.826L616.273 765.406L344.413 765.161L480.937 629.826Z" stroke="white" stroke-width="5"/>
<path d="M480.963 601.036L616.542 465.7L344.683 465.456L480.963 601.036Z" stroke="white" stroke-width="5"/>
<path d="M148.959 301.739L13.3797 437.075L285.239 437.319L148.959 301.739Z" stroke="white" stroke-width="5"/>
<path d="M135.759 284.736L0.422607 149.157L0.178324 421.016L135.759 284.736Z" stroke="white" stroke-width="5"/>
<path d="M164.55 284.763L300.129 149.427L299.885 421.286L164.55 284.763Z" stroke="white" stroke-width="5"/>
<path d="M149.698 3.92188L14.5912 138.786L149.456 273.893L284.563 139.029L149.698 3.92188Z" stroke="white" stroke-width="5"/>
<path d="M794.625 302.32L659.045 437.656L930.905 437.9L794.625 302.32Z" stroke="white" stroke-width="5"/>
<path d="M781.425 285.316L646.089 149.737L645.845 421.596L781.425 285.316Z" stroke="white" stroke-width="5"/>
<path d="M810.216 285.342L945.795 150.006L945.551 421.866L810.216 285.342Z" stroke="white" stroke-width="5"/>
<path d="M795.365 4.50196L660.258 139.366L795.122 274.473L930.229 139.609L795.365 4.50196Z" stroke="white" stroke-width="5"/>
<path d="M464.249 292.347L328.913 156.768L328.668 428.627L464.249 292.347Z" stroke="white" stroke-width="5"/>
<path d="M481.252 279.147L616.831 143.812L344.972 143.567L481.252 279.147Z" stroke="white" stroke-width="5"/>
<path d="M481.227 307.938L616.563 443.517L344.703 443.273L481.227 307.938Z" stroke="white" stroke-width="5"/>
<path d="M1123.79 607.513L988.455 471.934L1260.31 472.178L1123.79 607.513Z" stroke="white" stroke-width="5"/>
<path d="M1110.56 624.493L974.981 759.829L975.225 487.969L1110.56 624.493Z" stroke="white" stroke-width="5"/>
<path d="M1139.35 624.519L1274.69 760.098L1274.93 488.239L1139.35 624.519Z" stroke="white" stroke-width="5"/>
<path d="M1124 905.332L989.131 770.225L1124.24 635.361L1259.1 770.468L1124 905.332Z" stroke="white" stroke-width="5"/>
<path d="M1769.46 608.094L1634.12 472.514L1905.98 472.758L1769.46 608.094Z" stroke="white" stroke-width="5"/>
<path d="M1756.23 625.073L1620.65 760.409L1620.89 488.55L1756.23 625.073Z" stroke="white" stroke-width="5"/>
<path d="M1785.02 625.098L1920.35 760.678L1920.6 488.818L1785.02 625.098Z" stroke="white" stroke-width="5"/>
<path d="M1769.66 905.913L1634.8 770.806L1769.9 635.941L1904.77 771.048L1769.66 905.913Z" stroke="white" stroke-width="5"/>
<path d="M1439.06 617.473L1303.48 752.809L1303.73 480.949L1439.06 617.473Z" stroke="white" stroke-width="5"/>
<path d="M1456.04 630.703L1591.38 766.282L1319.52 766.038L1456.04 630.703Z" stroke="white" stroke-width="5"/>
<path d="M1456.07 601.912L1591.65 466.576L1319.79 466.332L1456.07 601.912Z" stroke="white" stroke-width="5"/>
<path d="M1124.07 302.616L988.486 437.952L1260.35 438.196L1124.07 302.616Z" stroke="white" stroke-width="5"/>
<path d="M1110.86 285.612L975.529 150.033L975.285 421.892L1110.86 285.612Z" stroke="white" stroke-width="5"/>
<path d="M1139.66 285.638L1275.24 150.302L1274.99 422.162L1139.66 285.638Z" stroke="white" stroke-width="5"/>
<path d="M1124.8 4.79786L989.697 139.662L1124.56 274.769L1259.67 139.905L1124.8 4.79786Z" stroke="white" stroke-width="5"/>
<path d="M1769.73 303.195L1634.15 438.531L1906.01 438.776L1769.73 303.195Z" stroke="white" stroke-width="5"/>
<path d="M1756.53 286.193L1621.2 150.613L1620.95 422.473L1756.53 286.193Z" stroke="white" stroke-width="5"/>
<path d="M1785.32 286.219L1920.9 150.883L1920.66 422.742L1785.32 286.219Z" stroke="white" stroke-width="5"/>
<path d="M1770.47 5.37794L1635.36 140.242L1770.23 275.349L1905.34 140.485L1770.47 5.37794Z" stroke="white" stroke-width="5"/>
<path d="M1439.35 293.223L1304.02 157.644L1303.77 429.503L1439.35 293.223Z" stroke="white" stroke-width="5"/>
<path d="M1456.36 280.023L1591.94 144.687L1320.08 144.443L1456.36 280.023Z" stroke="white" stroke-width="5"/>
<path d="M1456.33 308.814L1591.67 444.393L1319.81 444.149L1456.33 308.814Z" stroke="white" stroke-width="5"/>
</g>
</svg>
