<svg width="159" height="20" viewBox="0 0 159 20" fill="none" xmlns="http://www.w3.org/2000/svg">
<g clip-path="url(#clip0_2_100)">
<path d="M147.759 18.37L142.842 7.42601C142.666 7.01695 142.339 6.80298 141.842 6.80298C141.346 6.80298 141.019 7.03583 140.843 7.42601L135.926 18.37C135.851 18.521 135.807 18.6784 135.807 18.8294C135.807 19.3895 136.228 19.9244 136.926 19.9244C137.422 19.9244 137.693 19.6727 137.907 19.2888L138.737 17.5015L140.415 13.4927L141.842 9.99996L143.842 14.8898H140.912C140.642 15.5758 140.321 16.3624 140.088 16.9477H144.691L145.785 19.2951C145.998 19.6979 146.269 19.9307 146.765 19.9307C147.457 19.9307 147.878 19.3958 147.878 18.8357C147.878 18.6847 147.841 18.5273 147.765 18.3763" fill="white"/>
<path d="M127.443 18.37L122.52 7.42601C122.344 7.01695 122.023 6.80298 121.52 6.80298C121.017 6.80298 120.697 7.03583 120.521 7.42601L115.604 18.37C115.522 18.521 115.484 18.6784 115.484 18.8294C115.484 19.3895 115.906 19.9244 116.597 19.9244C117.1 19.9244 117.364 19.6727 117.578 19.2888L118.414 17.5015L120.093 13.4927L121.52 9.99996L123.52 14.8898H120.59C120.319 15.5758 119.999 16.3624 119.766 16.9477H124.368L125.462 19.2951C125.676 19.6979 125.946 19.9307 126.443 19.9307C127.135 19.9307 127.562 19.3958 127.562 18.8357C127.562 18.6847 127.525 18.5273 127.449 18.3763" fill="white"/>
<path d="M55.1772 18.37L50.2543 7.42601C50.0845 7.01695 49.7576 6.80298 49.2546 6.80298C48.7516 6.80298 48.4309 7.03583 48.2549 7.42601L43.3382 18.37C43.2628 18.521 43.2188 18.6784 43.2188 18.8294C43.2188 19.3895 43.64 19.9244 44.3316 19.9244C44.8283 19.9244 45.1049 19.6727 45.3124 19.2888L46.1486 17.5015L47.8274 13.4927L49.2546 9.99996L51.2539 14.8898H48.3241C48.0537 15.5758 47.733 16.3624 47.5004 16.9477H52.1027L53.1967 19.2951C53.4105 19.6979 53.6808 19.9307 54.1775 19.9307C54.8692 19.9307 55.2904 19.3958 55.2904 18.8357C55.2904 18.6847 55.2527 18.5273 55.1772 18.3763" fill="white"/>
<path d="M58.0203 19.7735C57.3665 19.7735 56.832 19.2322 56.832 18.5777V7.99875C56.832 7.34425 57.3665 6.80933 58.0203 6.80933C58.6742 6.80933 59.1772 7.34425 59.1772 7.99875V17.5582H64.7855C65.3828 17.5582 65.8795 18.0428 65.8795 18.6595C65.8795 19.2763 65.3828 19.7546 64.7855 19.7735H58.0203Z" fill="white"/>
<path d="M73.2646 14.808H69.5991V18.7539C69.5991 19.4021 69.0772 19.9245 68.4233 19.9245C67.7695 19.9245 67.2539 19.4021 67.2539 18.7539V8.13087C67.2539 7.47637 67.7695 6.96033 68.4233 6.96033H73.2646C76.4585 6.96033 77.8229 8.72873 77.8229 10.8999C77.8229 13.0711 76.4585 14.8017 73.2646 14.8017M73.5915 9.10633H69.5928V12.6243H73.5915C74.8804 12.6243 75.4589 11.7558 75.4589 10.8936C75.4589 10.0314 74.8804 9.10633 73.5915 9.10633Z" fill="white"/>
<path d="M101.263 18.7539C101.263 19.3455 100.804 19.9245 100.093 19.9245C99.5716 19.9245 99.2447 19.6979 99.0561 19.2888L96.8115 14.6507H92.9448V18.7476C92.9448 19.3958 92.4292 19.9182 91.7753 19.9182C91.1215 19.9182 90.5996 19.3958 90.5996 18.7476V8.13087C90.5996 7.47637 91.1152 6.96033 91.7753 6.96033H96.7109C99.8986 6.96033 101.263 8.53364 101.263 10.7992C101.263 12.3033 100.615 13.5871 99.1504 14.229L101.131 18.2442C101.206 18.3952 101.263 18.5714 101.263 18.7476M97.0378 9.10633H92.9448V12.6243H97.0378C98.3267 12.6243 98.9052 11.6803 98.9052 10.8181C98.9052 9.95592 98.3267 9.10633 97.0378 9.10633Z" fill="white"/>
<path d="M114.226 17.6966C112.975 19.2574 110.9 20.0063 108.976 20.0063C104.883 20.0063 102.406 17.0044 102.406 13.3669C102.406 9.48392 105.21 6.73376 108.939 6.73376C110.441 6.73376 112.126 7.23723 113.227 8.37001C113.459 8.60286 113.591 8.8546 113.591 9.15667C113.591 9.73565 113.189 10.2328 112.535 10.2328C112.265 10.2328 112.02 10.1384 111.768 9.9685C111.039 9.4084 110.253 8.91123 108.945 8.91123C106.424 8.91123 104.777 10.8181 104.777 13.3732C104.777 15.9282 106.317 17.9547 108.989 17.9547C110.297 17.9547 111.447 17.4952 112.196 16.803V14.8206H110.643C110.064 14.8206 109.568 14.3612 109.568 13.7633C109.568 13.1655 110.07 12.7061 110.643 12.7061H113.308C113.981 12.7061 114.503 13.2473 114.503 13.9018V16.9603C114.503 17.2876 114.428 17.4575 114.233 17.7092" fill="white"/>
<path d="M136.19 9.16926H132.908V18.735C132.908 19.3895 132.367 19.9245 131.714 19.9245C131.06 19.9245 130.557 19.3895 130.557 18.735V9.16926H127.25C126.633 9.16926 126.137 8.6721 126.137 8.07423C126.137 7.47637 126.615 6.96033 127.25 6.96033H136.184C136.8 6.96033 137.303 7.45749 137.303 8.07423C137.303 8.69098 136.819 9.16926 136.184 9.16926" fill="white"/>
<path d="M154.046 20C152.487 20 150.72 19.5154 149.607 18.6532C149.223 18.3511 148.953 17.961 148.953 17.5393C148.953 16.9414 149.337 16.5387 149.934 16.5387C150.148 16.5387 150.336 16.5953 150.525 16.7149C151.569 17.3694 152.273 17.9421 154.077 17.9421C155.882 17.9421 156.655 17.1932 156.655 16.331C156.655 15.387 155.907 14.9087 153.599 14.292C150.123 13.3732 149.085 12.253 149.085 10.3335C149.085 7.98612 151.103 6.73376 154.159 6.73376C154.851 6.73376 155.794 6.85334 156.624 7.07989C157.504 7.32533 158.623 7.88543 158.623 8.6595C158.623 9.18185 158.315 9.71677 157.661 9.71677C157.504 9.71677 157.353 9.6916 157.196 9.61608C156.309 9.21331 155.391 8.81054 154.178 8.81054C152.468 8.81054 151.43 9.26995 151.43 10.2706C151.43 11.2146 152.197 11.5355 154.505 12.2089C157.139 12.983 159 13.7256 159 16.1925C159 18.4204 157.309 20 154.046 20Z" fill="white"/>
<path d="M88.9459 18.37L84.0292 7.42601C83.8532 7.01695 83.5325 6.80298 83.0295 6.80298C82.5266 6.80298 82.1996 7.03583 82.0299 7.42601L77.1132 18.37C77.0377 18.521 77 18.6784 77 18.8294C77 19.3895 77.4212 19.9244 78.1129 19.9244C78.6158 19.9244 78.8799 19.6727 79.0937 19.2888L79.9299 17.5015L81.6086 13.4927L83.0358 9.99996L85.0352 14.8898H82.1053C81.8287 15.5758 81.5143 16.3624 81.2817 16.9477H85.884L86.978 19.2951C87.1855 19.6979 87.4621 19.9307 87.9588 19.9307C88.6504 19.9307 89.0716 19.3958 89.0716 18.8357C89.0716 18.6847 89.0339 18.5273 88.9585 18.3763" fill="white"/>
<path d="M12.813 19.7357L6.40625 13.3166V12.8257L12.813 6.41284L13.404 6.65828V19.4902L12.813 19.7357ZM7.14187 13.0711L12.7124 18.6532V7.49528L7.14187 13.0711Z" fill="white"/>
<path d="M13.0588 19.8364H0.245205L0 19.2448L6.40678 12.832H6.89719L13.304 19.2448L13.0588 19.8364ZM1.08142 19.1441H12.2225L6.65198 13.5683L1.08142 19.1378V19.1441Z" fill="white"/>
<path d="M25.6334 19.7357L19.2266 13.3166V12.8257L25.6334 6.41284L26.2244 6.65828V19.4902L25.6334 19.7357ZM19.956 13.0711L25.5265 18.6532V7.49528L19.956 13.0711Z" fill="white"/>
<path d="M19.7116 13.3165H19.2212L12.8145 6.9037L13.0597 6.31213H25.8795L26.1247 6.9037L19.7179 13.3165H19.7116ZM13.8959 7.00439L19.4664 12.5802L25.037 7.00439H13.8896H13.8959Z" fill="white"/>
<path d="M13.304 19.7357L12.713 19.4902V6.65828L13.304 6.41284L19.7107 12.8257V13.3166L13.304 19.7357ZM13.4046 7.49528V18.6532L18.9751 13.0711L13.4046 7.49528Z" fill="white"/>
<path d="M38.6979 19.8363H25.878L25.6328 19.2447L32.0396 12.8319H32.53L38.9431 19.2447L38.6979 19.8363ZM26.7142 19.1441H37.8616L32.2848 13.5682L26.7142 19.1441Z" fill="white"/>
<path d="M26.1242 19.7357L25.5332 19.4902V6.65828L26.1242 6.41284L32.531 12.8257V13.3166L26.1242 19.7357ZM26.2248 7.49528V18.6532L31.7954 13.0711L26.2248 7.49528Z" fill="white"/>
<path d="M25.8795 7.0044H13.0597L12.8145 6.41284L19.2275 0H19.7179L26.1247 6.41284L25.8795 7.0044ZM13.8959 6.31215H25.0433L19.4727 0.736312L13.9022 6.31215H13.8959Z" fill="white"/>
</g>
<defs>
<clipPath id="clip0_2_100">
<rect width="159" height="20" fill="white"/>
</clipPath>
</defs>
</svg>
