<svg width="602" height="488" viewBox="0 0 602 488" fill="none" xmlns="http://www.w3.org/2000/svg">
<path d="M420.379 488L0.994141 125.446L7.32814 116.834L170.551 111.713L77.544 76.1315V58.9461L235.699 53.965L601.66 347L420.379 488Z" fill="url(#paint0_linear_68_395)"/>
<path d="M9.71094 22.8709C10.0221 23.1139 10.4025 23.3743 10.8521 23.652C11.3362 23.9297 11.8895 24.19 12.5119 24.433C13.1344 24.676 13.8087 24.8844 14.5349 25.0579C15.2611 25.1967 16.0219 25.2662 16.8172 25.2662C18.4771 25.2662 19.8603 24.9884 20.9668 24.433C22.108 23.8429 23.0243 23.0618 23.7159 22.0898C24.4077 21.0831 24.9089 19.9201 25.2203 18.601C25.5314 17.2471 25.687 15.8238 25.687 14.3311C25.687 10.7902 24.8054 8.08246 23.0418 6.20787C21.2781 4.29856 18.9439 3.3439 16.0391 3.3439C14.3793 3.3439 13.0307 3.4307 11.9932 3.60427C10.9904 3.74314 10.2296 3.89934 9.71094 4.07291V22.8709ZM9.71094 37.347H6.33936V1.72968C7.34218 1.38254 8.62165 1.05275 10.1778 0.740316C11.7339 0.427885 13.705 0.271667 16.091 0.271667C18.0621 0.271667 19.843 0.601456 21.4337 1.26103C23.059 1.8859 24.4421 2.80584 25.5833 4.02084C26.7591 5.23587 27.6582 6.71124 28.2807 8.44696C28.9375 10.1827 29.2661 12.1441 29.2661 14.3311C29.2661 16.3793 28.9894 18.2712 28.4361 20.0069C27.9174 21.708 27.1395 23.1833 26.1019 24.433C25.0646 25.6482 23.7852 26.6027 22.2636 27.2969C20.7766 27.9914 19.0649 28.3384 17.1284 28.3384C15.3648 28.3384 13.826 28.0954 12.5119 27.6094C11.2325 27.0887 10.2988 26.6027 9.71094 26.1514V37.347Z" fill="white"/>
<path d="M45.7096 0.271667C46.8161 0.271667 47.8537 0.358456 48.8219 0.532028C49.8246 0.705602 50.5162 0.879174 50.8966 1.05275L50.2223 3.96876C49.9456 3.82992 49.375 3.69107 48.5106 3.5522C47.6808 3.37862 46.5741 3.29185 45.191 3.29185C43.7385 3.29185 42.5629 3.39597 41.6638 3.60427C40.7993 3.81257 40.2288 3.98614 39.9521 4.12499V27.7136H36.5803V2.04211C37.445 1.66025 38.6381 1.27839 40.1594 0.896531C41.681 0.479956 43.5312 0.271667 45.7096 0.271667Z" fill="white"/>
<path d="M78.856 14.279C78.856 16.3966 78.5447 18.3233 77.9225 20.059C77.3344 21.7948 76.4872 23.2701 75.3807 24.4852C74.3087 25.7002 73.0291 26.6547 71.5422 27.3492C70.0553 28.0087 68.4127 28.3384 66.6147 28.3384C64.8164 28.3384 63.1738 28.0087 61.6869 27.3492C60.2 26.6547 58.9032 25.7002 57.7967 24.4852C56.7247 23.2701 55.8774 21.7948 55.255 20.059C54.6669 18.3233 54.373 16.3966 54.373 14.279C54.373 12.1615 54.6669 10.2348 55.255 8.49905C55.8774 6.76333 56.7247 5.28796 57.7967 4.07293C58.9032 2.8232 60.2 1.86856 61.6869 1.20898C63.1738 0.514689 64.8164 0.167542 66.6147 0.167542C68.4127 0.167542 70.0553 0.514689 71.5422 1.20898C73.0291 1.86856 74.3087 2.8232 75.3807 4.07293C76.4872 5.28796 77.3344 6.76333 77.9225 8.49905C78.5447 10.2348 78.856 12.1615 78.856 14.279ZM75.2769 14.279C75.2769 10.9117 74.4988 8.2387 72.9428 6.25996C71.3868 4.2465 69.2771 3.2398 66.6147 3.2398C63.9519 3.2398 61.8426 4.2465 60.2863 6.25996C58.7303 8.2387 57.9521 10.9117 57.9521 14.279C57.9521 17.6464 58.7303 20.3194 60.2863 22.2981C61.8426 24.2769 63.9519 25.2662 66.6147 25.2662C69.2771 25.2662 71.3868 24.2769 72.9428 22.2981C74.4988 20.3194 75.2769 17.6464 75.2769 14.279Z" fill="white"/>
<path d="M103.652 24.5892C103.444 24.763 103.133 24.9712 102.718 25.2142C102.303 25.4224 101.785 25.6482 101.162 25.8912C100.574 26.1342 99.8825 26.3424 99.0871 26.5159C98.3264 26.6547 97.462 26.7242 96.4937 26.7242C94.9375 26.7242 93.4333 26.4812 91.9809 25.9952C90.5286 25.5092 89.249 24.7455 88.1426 23.704C87.0705 22.6626 86.2061 21.3261 85.5489 19.6945C84.892 18.0282 84.5635 16.0147 84.5635 13.6542C84.5635 11.7448 84.8574 9.9744 85.4452 8.34283C86.0332 6.71124 86.863 5.30529 87.935 4.12499C89.0417 2.90998 90.3729 1.97268 91.9292 1.31311C93.5199 0.618814 95.3007 0.271667 97.2719 0.271667C99.7615 0.271667 101.75 0.445242 103.237 0.792388C104.758 1.10482 106.003 1.41725 106.972 1.72968V26.3077C106.972 30.3346 105.934 33.1985 103.859 34.8995C101.785 36.6352 98.655 37.5032 94.4707 37.5032C92.7418 37.5032 91.1683 37.3642 89.7505 37.0865C88.3673 36.8435 87.1743 36.5485 86.1714 36.2012L86.8457 33.129C87.6758 33.511 88.7997 33.8408 90.2173 34.1185C91.6697 34.3963 93.1222 34.535 94.5745 34.535C97.7559 34.535 100.055 33.91 101.473 32.6603C102.926 31.4453 103.652 29.3451 103.652 26.3597V24.5892ZM103.6 4.07291C103.012 3.89934 102.251 3.74314 101.318 3.60427C100.384 3.4307 99.0527 3.3439 97.3235 3.3439C95.8713 3.3439 94.5745 3.60427 93.4333 4.12499C92.3269 4.611 91.3758 5.32264 90.5805 6.25995C89.7851 7.16253 89.1799 8.25604 88.765 9.54049C88.3501 10.7902 88.1426 12.1788 88.1426 13.7062C88.1426 15.4767 88.3846 17.0041 88.8688 18.2886C89.3528 19.5383 89.9753 20.5624 90.7362 21.3608C91.5315 22.1593 92.4304 22.7494 93.4333 23.1313C94.4363 23.4784 95.4564 23.652 96.4937 23.652C98.0153 23.652 99.3985 23.4263 100.643 22.975C101.923 22.5237 102.908 22.003 103.6 21.4129V4.07291Z" fill="white"/>
<path d="M125.035 0.271667C126.142 0.271667 127.179 0.358456 128.147 0.532028C129.15 0.705602 129.842 0.879174 130.222 1.05275L129.548 3.96876C129.271 3.82992 128.7 3.69107 127.836 3.5522C127.006 3.37862 125.9 3.29185 124.516 3.29185C123.064 3.29185 121.888 3.39597 120.989 3.60427C120.125 3.81257 119.554 3.98614 119.277 4.12499V27.7136H115.906V2.04211C116.77 1.66025 117.963 1.27839 119.485 0.896531C121.006 0.479956 122.856 0.271667 125.035 0.271667Z" fill="white"/>
<path d="M143.762 25.2662C145.076 25.2662 146.217 25.2315 147.185 25.162C148.188 25.058 149.035 24.9365 149.727 24.7975V15.3205C149.346 15.1469 148.741 14.9733 147.911 14.7998C147.081 14.5915 145.94 14.4873 144.488 14.4873C143.658 14.4873 142.793 14.5568 141.894 14.6956C140.995 14.7998 140.165 15.0601 139.404 15.4767C138.644 15.8586 138.021 16.3966 137.537 17.0909C137.053 17.7852 136.811 18.7052 136.811 19.8507C136.811 20.8575 136.966 21.708 137.278 22.4023C137.624 23.0965 138.09 23.652 138.678 24.0686C139.301 24.4852 140.027 24.7975 140.857 25.006C141.721 25.1795 142.69 25.2662 143.762 25.2662ZM143.45 0.167542C145.214 0.167542 146.701 0.427901 147.911 0.948624C149.156 1.43463 150.159 2.12892 150.92 3.0315C151.68 3.89936 152.234 4.94081 152.58 6.15582C152.925 7.37082 153.098 8.68999 153.098 10.1133V27.0887C152.752 27.1929 152.251 27.3144 151.594 27.4532C150.937 27.5574 150.176 27.6789 149.312 27.8177C148.447 27.9567 147.479 28.0607 146.407 28.1302C145.369 28.2344 144.297 28.2864 143.191 28.2864C141.773 28.2864 140.459 28.1302 139.249 27.8177C138.073 27.5054 137.036 27.0194 136.137 26.3597C135.272 25.6655 134.58 24.7975 134.062 23.7561C133.578 22.68 133.335 21.3782 133.335 19.8507C133.335 18.3927 133.612 17.143 134.165 16.1016C134.719 15.0601 135.497 14.2096 136.5 13.55C137.503 12.8557 138.696 12.3524 140.079 12.04C141.462 11.7275 142.966 11.5713 144.591 11.5713C145.076 11.5713 145.577 11.606 146.096 11.6754C146.649 11.7102 147.168 11.7796 147.652 11.8837C148.17 11.9532 148.603 12.04 148.949 12.1441C149.329 12.2135 149.588 12.283 149.727 12.3524V10.6861C149.727 9.74877 149.658 8.84619 149.519 7.97833C149.381 7.07575 149.07 6.27731 148.586 5.58303C148.136 4.85402 147.479 4.28123 146.614 3.86466C145.784 3.41337 144.678 3.18772 143.295 3.18772C141.324 3.18772 139.854 3.32657 138.886 3.60429C137.917 3.88201 137.209 4.10765 136.759 4.28123L136.292 1.31312C136.88 1.03541 137.779 0.775047 138.989 0.532046C140.234 0.289043 141.721 0.167542 143.45 0.167542Z" fill="white"/>
<path d="M161.698 1.72968C162.7 1.45197 163.997 1.13953 165.588 0.792388C167.213 0.445242 169.305 0.271667 171.864 0.271667C175.253 0.271667 177.708 1.26103 179.23 3.23978C179.403 3.1009 179.731 2.87526 180.215 2.56284C180.734 2.21569 181.374 1.86854 182.135 1.52139C182.895 1.17425 183.777 0.879174 184.78 0.636171C185.817 0.39317 186.959 0.271667 188.204 0.271667C190.244 0.271667 191.886 0.584099 193.131 1.20896C194.411 1.79911 195.396 2.64961 196.088 3.76049C196.779 4.83665 197.246 6.13845 197.488 7.66589C197.73 9.19332 197.851 10.8596 197.851 12.6648V27.7136H194.48V13.7583C194.48 11.9879 194.393 10.4604 194.221 9.17597C194.082 7.85682 193.771 6.78066 193.287 5.9475C192.837 5.07964 192.18 4.43743 191.316 4.02084C190.451 3.56955 189.327 3.3439 187.944 3.3439C186.907 3.3439 185.956 3.44805 185.091 3.65634C184.261 3.82992 183.535 4.05556 182.913 4.33328C182.29 4.611 181.771 4.88872 181.356 5.16644C180.976 5.44414 180.7 5.65243 180.527 5.7913C180.838 6.69386 181.063 7.71795 181.201 8.86355C181.374 9.9744 181.46 11.1547 181.46 12.4044V27.7136H178.089V13.7583C178.089 11.9879 178.002 10.4604 177.829 9.17597C177.691 7.85682 177.38 6.78066 176.896 5.9475C176.411 5.07964 175.72 4.43743 174.821 4.02084C173.956 3.56955 172.798 3.3439 171.345 3.3439C169.72 3.3439 168.337 3.4307 167.196 3.60427C166.089 3.77784 165.38 3.93406 165.069 4.07291V27.7136H161.698V1.72968Z" fill="white"/>
<path d="M214.931 25.2662C216.246 25.2662 217.387 25.2315 218.355 25.162C219.358 25.058 220.205 24.9365 220.897 24.7975V15.3205C220.516 15.1469 219.911 14.9733 219.081 14.7998C218.251 14.5915 217.11 14.4873 215.658 14.4873C214.828 14.4873 213.963 14.5568 213.064 14.6956C212.165 14.7998 211.335 15.0601 210.574 15.4767C209.814 15.8586 209.191 16.3966 208.707 17.0909C208.223 17.7852 207.981 18.7052 207.981 19.8507C207.981 20.8575 208.136 21.708 208.448 22.4023C208.793 23.0965 209.26 23.652 209.848 24.0686C210.471 24.4852 211.197 24.7975 212.027 25.006C212.891 25.1795 213.859 25.2662 214.931 25.2662ZM214.62 0.167542C216.384 0.167542 217.871 0.427901 219.081 0.948624C220.326 1.43463 221.329 2.12892 222.09 3.0315C222.85 3.89936 223.404 4.94081 223.749 6.15582C224.095 7.37082 224.268 8.68999 224.268 10.1133V27.0887C223.922 27.1929 223.421 27.3144 222.764 27.4532C222.107 27.5574 221.346 27.6789 220.481 27.8177C219.617 27.9567 218.649 28.0607 217.577 28.1302C216.539 28.2344 215.467 28.2864 214.361 28.2864C212.943 28.2864 211.629 28.1302 210.419 27.8177C209.243 27.5054 208.205 27.0194 207.307 26.3597C206.442 25.6655 205.75 24.7975 205.232 23.7561C204.748 22.68 204.505 21.3782 204.505 19.8507C204.505 18.3927 204.782 17.143 205.335 16.1016C205.889 15.0601 206.667 14.2096 207.67 13.55C208.672 12.8557 209.866 12.3524 211.249 12.04C212.632 11.7275 214.136 11.5713 215.761 11.5713C216.246 11.5713 216.747 11.606 217.266 11.6754C217.819 11.7102 218.338 11.7796 218.822 11.8837C219.34 11.9532 219.773 12.04 220.118 12.1441C220.499 12.2135 220.758 12.283 220.897 12.3524V10.6861C220.897 9.74877 220.827 8.84619 220.689 7.97833C220.551 7.07575 220.239 6.27731 219.755 5.58303C219.306 4.85402 218.649 4.28123 217.784 3.86466C216.954 3.41337 215.848 3.18772 214.464 3.18772C212.494 3.18772 211.024 3.32657 210.056 3.60429C209.087 3.88201 208.378 4.10765 207.929 4.28123L207.462 1.31312C208.05 1.03541 208.949 0.775047 210.159 0.532046C211.404 0.289043 212.891 0.167542 214.62 0.167542Z" fill="white"/>
<path d="M27.6583 77.2051C26.6554 77.5521 25.376 77.8821 23.8197 78.1943C22.2637 78.5068 20.2926 78.663 17.9066 78.663C15.9355 78.663 14.1373 78.3506 12.512 77.7258C10.9213 77.0661 9.5381 76.1288 8.36237 74.9139C7.22123 73.6989 6.32215 72.2234 5.66511 70.4877C5.04265 68.752 4.73145 66.7905 4.73145 64.6036C4.73145 62.5554 4.99078 60.6809 5.50951 58.9799C6.06278 57.2442 6.85814 55.7515 7.89553 54.5017C8.93296 53.252 10.1951 52.2798 11.6821 51.5856C13.2036 50.8913 14.9326 50.5441 16.8692 50.5441C18.6327 50.5441 20.1543 50.8046 21.4338 51.3253C22.7477 51.8113 23.6987 52.2798 24.2865 52.7313V38.2553L27.6583 37.6303V77.2051ZM24.2865 56.0117C23.9754 55.7687 23.5777 55.5085 23.0935 55.2307C22.6442 54.953 22.1081 54.6925 21.4856 54.4495C20.8632 54.2065 20.1889 54.0158 19.4627 53.8768C18.7365 53.7033 17.9757 53.6165 17.1804 53.6165C15.5205 53.6165 14.12 53.9115 12.9788 54.5017C11.8723 55.0917 10.9732 55.8902 10.2816 56.897C9.58997 57.8689 9.08856 59.0319 8.77733 60.3859C8.46613 61.7049 8.3105 63.1108 8.3105 64.6036C8.3105 68.1445 9.1923 70.8697 10.9559 72.7789C12.7195 74.6534 15.0537 75.5909 17.9584 75.5909C19.6183 75.5909 20.9496 75.5214 21.9525 75.3826C22.99 75.2089 23.7678 75.0354 24.2865 74.8619V56.0117Z" fill="white"/>
<path d="M34.9722 64.5516C34.9722 62.1908 35.3007 60.1426 35.9576 58.4069C36.6494 56.6367 37.5311 55.1612 38.6031 53.981C39.7096 52.8005 40.9545 51.9328 42.3379 51.3773C43.7557 50.7871 45.2079 50.4921 46.6949 50.4921C49.98 50.4921 52.5909 51.5683 54.5274 53.7205C56.4985 55.873 57.484 59.1882 57.484 63.6663C57.484 63.9441 57.4668 64.2218 57.4321 64.4996C57.4321 64.7771 57.4149 65.0375 57.3802 65.2805H38.5512C38.655 68.5785 39.4676 71.1127 40.9892 72.8831C42.5108 74.6534 44.9313 75.5386 48.2511 75.5386C50.0838 75.5386 51.5361 75.3651 52.6081 75.0179C53.6801 74.6709 54.4583 74.3759 54.9423 74.1329L55.5647 77.0488C55.0807 77.3266 54.1644 77.6563 52.8157 78.0381C51.5016 78.42 49.9454 78.611 48.1473 78.611C45.7957 78.611 43.7901 78.2638 42.1303 77.5696C40.4705 76.8753 39.1046 75.9031 38.0326 74.6534C36.9605 73.4036 36.1824 71.9284 35.6984 70.2274C35.2142 68.4917 34.9722 66.5998 34.9722 64.5516ZM54.0087 62.4166C53.9396 59.6046 53.2824 57.4177 52.0375 55.8555C50.7926 54.2932 49.029 53.5123 46.7468 53.5123C45.5365 53.5123 44.4473 53.7553 43.479 54.2412C42.5452 54.7272 41.7154 55.387 40.9892 56.22C40.2976 57.0184 39.7443 57.9557 39.3294 59.0319C38.9489 60.1081 38.7241 61.2364 38.655 62.4166H54.0087Z" fill="white"/>
<g filter="url(#filter0_d_68_395)">
<path d="M27.1411 125.559C26.7684 124.335 26.345 123.076 25.8705 121.784C25.4301 120.491 24.9895 119.198 24.5489 117.906H10.826C10.3855 119.198 9.92803 120.491 9.45366 121.784C9.01319 123.076 8.60656 124.335 8.23384 125.559H0C1.32149 121.75 2.57519 118.229 3.76113 114.997C4.94708 111.766 6.09915 108.722 7.21732 105.864C8.36936 103.007 9.48756 100.303 10.5719 97.7515C11.69 95.1663 12.8421 92.6491 14.028 90.2H21.6011C22.7531 92.6491 23.8884 95.1663 25.0065 97.7515C26.1246 100.303 27.2429 103.007 28.361 105.864C29.5131 108.722 30.6821 111.766 31.8681 114.997C33.0538 118.229 34.3077 121.75 35.629 125.559H27.1411ZM17.6367 98.2108C17.4673 98.7208 17.2131 99.4182 16.8743 100.303C16.5355 101.187 16.1458 102.208 15.7053 103.364C15.2648 104.521 14.7735 105.796 14.2313 107.191C13.7231 108.585 13.1979 110.048 12.6557 111.579H22.6685C22.1263 110.048 21.6011 108.585 21.0929 107.191C20.5846 105.796 20.0933 104.521 19.6189 103.364C19.1784 102.208 18.7887 101.187 18.4499 100.303C18.1111 99.4182 17.84 98.7208 17.6367 98.2108Z" fill="white"/>
<path d="M50.3536 126.07C48.1511 126.036 46.3553 125.797 44.9661 125.355C43.6106 124.913 42.5265 124.301 41.7132 123.518C40.9338 122.702 40.3916 121.733 40.0866 120.61C39.8157 119.453 39.6802 118.161 39.6802 116.732V87.1897L47.2532 85.965V115.202C47.2532 115.882 47.3039 116.494 47.4057 117.038C47.5073 117.583 47.6936 118.042 47.9647 118.416C48.2697 118.79 48.6933 119.096 49.2353 119.334C49.7775 119.573 50.5062 119.726 51.4208 119.794L50.3536 126.07Z" fill="white"/>
<path d="M72.8901 112.344C72.8901 109.997 72.3649 108.126 71.3145 106.732C70.2643 105.303 68.7056 104.589 66.6386 104.589C65.9609 104.589 65.3341 104.623 64.7579 104.691C64.182 104.725 63.7075 104.776 63.3348 104.844V118.569C63.8093 118.875 64.4192 119.13 65.1646 119.334C65.9439 119.538 66.7232 119.641 67.5026 119.641C71.0943 119.641 72.8901 117.208 72.8901 112.344ZM80.6157 112.14C80.6157 114.215 80.3616 116.103 79.8533 117.804C79.3451 119.504 78.5997 120.967 77.6169 122.192C76.6343 123.416 75.4146 124.369 73.9575 125.049C72.5005 125.729 70.8232 126.069 68.9257 126.069C67.8753 126.069 66.8927 125.967 65.9779 125.763C65.063 125.559 64.182 125.27 63.3348 124.896V134.999H55.7617V99.6393C56.4395 99.4352 57.2188 99.2481 58.0998 99.078C58.9807 98.8739 59.8956 98.7038 60.8444 98.568C61.827 98.4319 62.8095 98.3298 63.7923 98.2618C64.8088 98.1597 65.7744 98.1087 66.6893 98.1087C68.8918 98.1087 70.8571 98.4489 72.5851 99.129C74.3133 99.7754 75.7704 100.711 76.9564 101.935C78.1421 103.126 79.04 104.589 79.6501 106.323C80.2939 108.058 80.6157 109.997 80.6157 112.14Z" fill="white"/>
<path d="M96.6522 120.253C97.3976 120.253 98.1093 120.236 98.7868 120.202C99.4646 120.168 100.007 120.117 100.413 120.049V114.283C100.108 114.215 99.651 114.147 99.041 114.079C98.4311 114.011 97.8719 113.977 97.3637 113.977C96.6522 113.977 95.9745 114.028 95.3307 114.13C94.7208 114.198 94.1786 114.351 93.7043 114.589C93.2298 114.827 92.8571 115.15 92.5862 115.559C92.3151 115.967 92.1796 116.477 92.1796 117.089C92.1796 118.28 92.5693 119.113 93.3486 119.59C94.1617 120.032 95.263 120.253 96.6522 120.253ZM96.0424 98.0067C98.2786 98.0067 100.142 98.2618 101.633 98.7719C103.124 99.2821 104.31 100.014 105.191 100.966C106.106 101.918 106.75 103.075 107.122 104.436C107.495 105.796 107.681 107.31 107.681 108.977V124.794C106.597 125.032 105.089 125.304 103.158 125.61C101.226 125.95 98.8887 126.121 96.144 126.121C94.4158 126.121 92.8401 125.967 91.4172 125.661C90.0278 125.355 88.8251 124.862 87.8086 124.182C86.7918 123.467 86.0127 122.549 85.4705 121.426C84.9283 120.304 84.6572 118.926 84.6572 117.293C84.6572 115.729 84.9623 114.402 85.5721 113.314C86.2159 112.225 87.0629 111.358 88.1134 110.711C89.1638 110.065 90.3668 109.606 91.722 109.334C93.0775 109.028 94.4837 108.875 95.9405 108.875C96.9233 108.875 97.7873 108.926 98.5327 109.028C99.3121 109.096 99.9389 109.198 100.413 109.334V108.619C100.413 107.327 100.024 106.289 99.2444 105.507C98.4651 104.725 97.1096 104.334 95.1782 104.334C93.8906 104.334 92.6199 104.436 91.3663 104.64C90.1127 104.81 89.0283 105.065 88.1134 105.405L87.1478 99.2821C87.5881 99.1461 88.1303 99.01 88.7741 98.8739C89.4519 98.7041 90.1803 98.568 90.9597 98.4659C91.739 98.3298 92.5523 98.2278 93.3993 98.1597C94.2802 98.0577 95.1612 98.0067 96.0424 98.0067Z" fill="white"/>
<path d="M130.641 105.456C129.964 105.286 129.168 105.116 128.253 104.946C127.338 104.742 126.355 104.64 125.305 104.64C124.83 104.64 124.254 104.691 123.577 104.793C122.933 104.861 122.442 104.946 122.103 105.048V125.559H114.53V100.15C115.885 99.6733 117.477 99.2311 119.307 98.8229C121.171 98.3809 123.238 98.1597 125.508 98.1597C125.915 98.1597 126.406 98.1938 126.982 98.2618C127.558 98.2958 128.134 98.3638 128.71 98.4659C129.286 98.5339 129.862 98.6358 130.438 98.7718C131.014 98.8739 131.506 99.01 131.912 99.1801L130.641 105.456Z" fill="white"/>
<path d="M141.931 111.273C141.931 115.525 143.642 117.651 147.064 117.651C147.843 117.651 148.572 117.549 149.25 117.344C149.927 117.14 150.503 116.902 150.978 116.63V104.487C150.605 104.419 150.164 104.368 149.656 104.334C149.148 104.265 148.555 104.231 147.877 104.231C145.878 104.231 144.387 104.895 143.404 106.221C142.422 107.548 141.931 109.232 141.931 111.273ZM158.551 122.192C158.551 126.58 157.432 129.828 155.196 131.937C152.994 134.08 149.571 135.152 144.929 135.152C143.303 135.152 141.677 134.999 140.05 134.692C138.424 134.42 136.916 134.046 135.526 133.57L136.848 127.192C138.034 127.668 139.271 128.042 140.558 128.315C141.88 128.587 143.371 128.723 145.031 128.723C147.2 128.723 148.724 128.246 149.605 127.294C150.52 126.342 150.978 125.117 150.978 123.62V122.651C150.164 123.025 149.317 123.314 148.436 123.518C147.589 123.688 146.657 123.773 145.641 123.773C141.947 123.773 139.118 122.685 137.153 120.508C135.188 118.297 134.205 115.219 134.205 111.273C134.205 109.3 134.51 107.514 135.12 105.915C135.73 104.282 136.611 102.888 137.763 101.731C138.949 100.575 140.389 99.6904 142.083 99.078C143.777 98.4319 145.692 98.1087 147.826 98.1087C148.741 98.1087 149.673 98.1597 150.622 98.2618C151.605 98.3298 152.57 98.4319 153.519 98.568C154.468 98.7038 155.366 98.8739 156.213 99.078C157.094 99.2481 157.873 99.4352 158.551 99.6393V122.192Z" fill="white"/>
<path d="M175.87 120.253C176.615 120.253 177.326 120.236 178.004 120.202C178.682 120.168 179.224 120.117 179.63 120.049V114.283C179.326 114.215 178.868 114.147 178.258 114.079C177.648 114.011 177.089 113.977 176.581 113.977C175.87 113.977 175.192 114.028 174.548 114.13C173.938 114.198 173.396 114.351 172.922 114.589C172.447 114.827 172.074 115.15 171.803 115.559C171.532 115.967 171.397 116.477 171.397 117.089C171.397 118.28 171.786 119.113 172.566 119.59C173.379 120.032 174.48 120.253 175.87 120.253ZM175.259 98.0067C177.496 98.0067 179.359 98.2618 180.85 98.7719C182.341 99.2821 183.527 100.014 184.408 100.966C185.323 101.918 185.967 103.075 186.34 104.436C186.712 105.796 186.899 107.31 186.899 108.977V124.794C185.814 125.032 184.307 125.304 182.375 125.61C180.444 125.95 178.106 126.121 175.361 126.121C173.633 126.121 172.057 125.967 170.634 125.661C169.245 125.355 168.042 124.862 167.026 124.182C166.009 123.467 165.23 122.549 164.688 121.426C164.146 120.304 163.875 118.926 163.875 117.293C163.875 115.729 164.179 114.402 164.789 113.314C165.433 112.225 166.28 111.358 167.331 110.711C168.381 110.065 169.584 109.606 170.939 109.334C172.295 109.028 173.701 108.875 175.158 108.875C176.14 108.875 177.005 108.926 177.75 109.028C178.529 109.096 179.156 109.198 179.63 109.334V108.619C179.63 107.327 179.241 106.289 178.461 105.507C177.682 104.725 176.327 104.334 174.395 104.334C173.108 104.334 171.837 104.436 170.584 104.64C169.33 104.81 168.246 105.065 167.331 105.405L166.365 99.2821C166.805 99.1461 167.348 99.01 167.991 98.8739C168.669 98.7041 169.398 98.568 170.177 98.4659C170.956 98.3298 171.769 98.2278 172.617 98.1597C173.498 98.0577 174.378 98.0067 175.259 98.0067Z" fill="white"/>
<path d="M193.493 92.037L201.066 90.8123V98.7209H210.164V105.048H201.066V114.487C201.066 116.086 201.337 117.362 201.879 118.314C202.455 119.266 203.59 119.743 205.284 119.743C206.098 119.743 206.928 119.675 207.775 119.539C208.656 119.368 209.452 119.147 210.164 118.875L211.231 124.794C210.316 125.168 209.3 125.491 208.182 125.763C207.064 126.036 205.691 126.172 204.065 126.172C201.998 126.172 200.287 125.899 198.931 125.355C197.576 124.777 196.492 123.995 195.678 123.008C194.865 121.988 194.289 120.763 193.95 119.334C193.645 117.906 193.493 116.324 193.493 114.589V92.037Z" fill="white"/>
<path d="M225.554 120.253C226.299 120.253 227.011 120.236 227.689 120.202C228.366 120.168 228.909 120.117 229.315 120.049V114.283C229.01 114.215 228.553 114.147 227.943 114.079C227.333 114.011 226.774 113.977 226.266 113.977C225.554 113.977 224.876 114.028 224.233 114.13C223.623 114.198 223.08 114.351 222.606 114.589C222.132 114.827 221.759 115.15 221.488 115.559C221.217 115.967 221.081 116.477 221.081 117.089C221.081 118.28 221.471 119.113 222.25 119.59C223.064 120.032 224.165 120.253 225.554 120.253ZM224.944 98.0067C227.18 98.0067 229.044 98.2618 230.535 98.7719C232.026 99.2821 233.212 100.014 234.093 100.966C235.008 101.918 235.652 103.075 236.024 104.436C236.397 105.796 236.583 107.31 236.583 108.977V124.794C235.499 125.032 233.991 125.304 232.06 125.61C230.129 125.95 227.791 126.121 225.046 126.121C223.318 126.121 221.742 125.967 220.319 125.661C218.93 125.355 217.727 124.862 216.71 124.182C215.694 123.467 214.915 122.549 214.372 121.426C213.83 120.304 213.559 118.926 213.559 117.293C213.559 115.729 213.864 114.402 214.474 113.314C215.118 112.225 215.965 111.358 217.015 110.711C218.066 110.065 219.269 109.606 220.624 109.334C221.979 109.028 223.386 108.875 224.843 108.875C225.825 108.875 226.689 108.926 227.435 109.028C228.214 109.096 228.841 109.198 229.315 109.334V108.619C229.315 107.327 228.926 106.289 228.146 105.507C227.367 104.725 226.011 104.334 224.08 104.334C222.792 104.334 221.522 104.436 220.268 104.64C219.015 104.81 217.93 105.065 217.015 105.405L216.05 99.2821C216.49 99.1461 217.032 99.01 217.676 98.8739C218.354 98.7041 219.082 98.568 219.862 98.4659C220.641 98.3298 221.454 98.2278 222.301 98.1597C223.182 98.0577 224.063 98.0067 224.944 98.0067Z" fill="white"/>
<path d="M251.106 120.1C252.495 120.1 253.477 119.964 254.054 119.692C254.631 119.419 254.918 118.892 254.918 118.11C254.918 117.498 254.547 116.97 253.8 116.528C253.055 116.052 251.921 115.525 250.395 114.946C249.21 114.504 248.126 114.045 247.141 113.569C246.193 113.093 245.381 112.531 244.702 111.885C244.025 111.205 243.499 110.405 243.126 109.487C242.755 108.568 242.568 107.463 242.568 106.17C242.568 103.653 243.499 101.663 245.364 100.201C247.226 98.7378 249.784 98.0067 253.038 98.0067C254.665 98.0067 256.222 98.1597 257.714 98.4659C259.205 98.7378 260.391 99.044 261.271 99.3842L259.949 105.303C259.069 104.997 258.104 104.725 257.054 104.487C256.035 104.248 254.884 104.129 253.596 104.129C251.225 104.129 250.039 104.793 250.039 106.119C250.039 106.425 250.09 106.698 250.192 106.936C250.293 107.174 250.497 107.412 250.803 107.65C251.106 107.854 251.513 108.092 252.022 108.364C252.563 108.602 253.242 108.875 254.054 109.181C255.715 109.793 257.088 110.405 258.172 111.018C259.256 111.596 260.102 112.242 260.713 112.956C261.356 113.637 261.797 114.402 262.035 115.253C262.306 116.103 262.44 117.089 262.44 118.212C262.44 120.865 261.44 122.872 259.442 124.233C257.476 125.593 254.682 126.274 251.055 126.274C248.683 126.274 246.702 126.069 245.109 125.661C243.55 125.253 242.466 124.913 241.855 124.641L243.126 118.467C244.413 118.977 245.735 119.385 247.09 119.692C248.446 119.964 249.784 120.1 251.106 120.1Z" fill="white"/>
<path d="M74.4797 45.4265L81.8455 44.2356V51.9274H90.694V58.081H81.8455V67.2619C81.8455 68.8168 82.109 70.0573 82.6364 70.9838C83.1966 71.9101 84.3006 72.3733 85.9483 72.3733C86.7393 72.3733 87.5468 72.3069 88.3707 72.1748C89.2274 72.0093 90.0019 71.7942 90.694 71.5296L91.7321 77.2862C90.8424 77.6502 89.8538 77.9644 88.7662 78.229C87.6787 78.4936 86.3438 78.626 84.7621 78.626C82.7516 78.626 81.0875 78.3614 79.7693 77.8319C78.4509 77.2696 77.3963 76.5086 76.6054 75.5492C75.8146 74.5568 75.2542 73.3657 74.9247 71.9762C74.6281 70.5868 74.4797 69.0484 74.4797 67.361V45.4265Z" fill="white"/>
<path d="M112.363 58.4781C111.704 58.3126 110.929 58.1474 110.039 57.9819C109.15 57.7834 108.194 57.684 107.172 57.684C106.711 57.684 106.151 57.7338 105.491 57.8329C104.865 57.899 104.387 57.9819 104.058 58.081V78.0305H96.6921V53.3171C98.0105 52.854 99.5593 52.4239 101.339 52.0268C103.151 51.5967 105.162 51.3817 107.37 51.3817C107.765 51.3817 108.243 51.4147 108.804 51.4808C109.364 51.5141 109.924 51.5802 110.484 51.6793C111.044 51.7457 111.605 51.8448 112.165 51.9772C112.725 52.0764 113.203 52.2088 113.598 52.374L112.363 58.4781Z" fill="white"/>
<path d="M127 72.8695C127.725 72.8695 128.417 72.853 129.077 72.8199C129.736 72.7869 130.263 72.7371 130.658 72.671V67.0633C130.362 66.9973 129.917 66.9309 129.324 66.8648C128.731 66.7987 128.187 66.7654 127.692 66.7654C127 66.7654 126.341 66.8152 125.715 66.9144C125.122 66.9805 124.594 67.1294 124.133 67.361C123.672 67.5926 123.309 67.907 123.045 68.3038C122.782 68.7009 122.65 69.1971 122.65 69.7927C122.65 70.9505 123.029 71.7612 123.787 72.2243C124.578 72.6544 125.649 72.8695 127 72.8695ZM126.407 51.2327C128.582 51.2327 130.395 51.4808 131.845 51.9772C133.295 52.4734 134.448 53.1847 135.305 54.111C136.195 55.0372 136.821 56.1623 137.184 57.4857C137.546 58.809 137.727 60.2811 137.727 61.9021V77.2862C136.673 77.5178 135.206 77.7824 133.328 78.0803C131.449 78.411 129.175 78.5765 126.506 78.5765C124.825 78.5765 123.293 78.4275 121.909 78.1299C120.557 77.832 119.388 77.3523 118.399 76.6906C117.41 75.9959 116.652 75.1026 116.125 74.0108C115.598 72.9191 115.334 71.5792 115.334 69.9912C115.334 68.4693 115.631 67.179 116.224 66.1205C116.85 65.0618 117.674 64.2181 118.695 63.5895C119.717 62.9609 120.887 62.5142 122.205 62.2496C123.523 61.9519 124.891 61.803 126.308 61.803C127.264 61.803 128.104 61.8526 128.829 61.9519C129.587 62.018 130.197 62.1172 130.658 62.2496V61.5549C130.658 60.2976 130.279 59.2887 129.521 58.5276C128.763 57.7668 127.445 57.3863 125.567 57.3863C124.314 57.3863 123.078 57.4857 121.859 57.684C120.64 57.8494 119.585 58.0975 118.695 58.4285L117.756 52.4734C118.185 52.341 118.712 52.2088 119.338 52.0763C119.997 51.9109 120.706 51.7787 121.464 51.6793C122.222 51.5471 123.013 51.4477 123.836 51.3816C124.693 51.2822 125.55 51.2327 126.407 51.2327Z" fill="white"/>
<path d="M151.753 78.0305H144.388V51.9274H151.753V78.0305ZM152.446 44.3843C152.446 45.7407 152.001 46.816 151.111 47.6101C150.254 48.3709 149.232 48.7514 148.046 48.7514C146.859 48.7514 145.821 48.3709 144.931 47.6101C144.075 46.816 143.646 45.7407 143.646 44.3843C143.646 43.0279 144.075 41.9692 144.931 41.2084C145.821 40.4143 146.859 40.0175 148.046 40.0175C149.232 40.0175 150.254 40.4143 151.111 41.2084C152.001 41.9692 152.446 43.0279 152.446 44.3843Z" fill="white"/>
<path d="M158.677 52.8207C159.929 52.4569 161.544 52.126 163.522 51.8283C165.499 51.4973 167.575 51.3321 169.75 51.3321C171.958 51.3321 173.787 51.6298 175.238 52.2253C176.721 52.7876 177.891 53.5983 178.747 54.657C179.604 55.7157 180.214 56.9728 180.576 58.4285C180.939 59.8841 181.12 61.5054 181.12 63.2919V78.0305H173.754V64.1851C173.754 61.803 173.441 60.1157 172.815 59.1233C172.189 58.1306 171.019 57.6344 169.306 57.6344C168.778 57.6344 168.218 57.6675 167.625 57.7338C167.032 57.7669 166.504 57.8164 166.043 57.8825V78.0305H158.677V52.8207Z" fill="white"/>
<path d="M186.552 65.1775C186.552 62.8617 186.898 60.8436 187.59 59.1232C188.315 57.3698 189.254 55.914 190.407 54.7561C191.561 53.5982 192.879 52.7215 194.362 52.1259C195.878 51.5306 197.427 51.2327 199.009 51.2327C202.7 51.2327 205.616 52.374 207.759 54.657C209.901 56.9066 210.972 60.2315 210.972 64.6317C210.972 65.0618 210.955 65.5415 210.922 66.0707C210.889 66.5672 210.856 67.0138 210.823 67.4106H194.115C194.28 68.9325 194.988 70.1402 196.24 71.0334C197.493 71.9267 199.174 72.3733 201.283 72.3733C202.634 72.3733 203.952 72.2574 205.237 72.0258C206.556 71.7612 207.627 71.447 208.451 71.083L209.439 77.0877C209.044 77.2862 208.517 77.4847 207.857 77.6832C207.198 77.8818 206.457 78.047 205.633 78.1794C204.842 78.3449 203.985 78.4771 203.062 78.5765C202.139 78.6756 201.217 78.7254 200.294 78.7254C197.954 78.7254 195.911 78.378 194.164 77.6832C192.45 76.9885 191.017 76.0454 189.863 74.8545C188.743 73.6303 187.903 72.1913 187.342 70.537C186.815 68.8829 186.552 67.0964 186.552 65.1775ZM203.853 62.3488C203.82 61.7204 203.705 61.1083 203.507 60.5127C203.342 59.9173 203.062 59.3878 202.667 58.9247C202.304 58.4615 201.826 58.081 201.233 57.7833C200.673 57.4857 199.964 57.3367 199.108 57.3367C198.284 57.3367 197.575 57.4857 196.982 57.7833C196.389 58.048 195.894 58.412 195.499 58.8751C195.103 59.3383 194.79 59.884 194.56 60.5127C194.362 61.1083 194.214 61.7204 194.115 62.3488H203.853Z" fill="white"/>
<path d="M215.42 65.1775C215.42 62.8617 215.766 60.8436 216.458 59.1232C217.183 57.3698 218.122 55.914 219.276 54.7561C220.429 53.5982 221.747 52.7215 223.23 52.1259C224.746 51.5306 226.295 51.2327 227.877 51.2327C231.568 51.2327 234.485 52.374 236.627 54.657C238.769 56.9066 239.84 60.2315 239.84 64.6317C239.84 65.0618 239.824 65.5415 239.791 66.0707C239.758 66.5672 239.725 67.0138 239.692 67.4106H222.983C223.148 68.9325 223.856 70.1402 225.109 71.0334C226.361 71.9267 228.042 72.3733 230.151 72.3733C231.502 72.3733 232.82 72.2574 234.106 72.0258C235.424 71.7612 236.495 71.447 237.319 71.083L238.308 77.0877C237.912 77.2862 237.385 77.4847 236.726 77.6832C236.067 77.8818 235.325 78.047 234.501 78.1794C233.71 78.3449 232.853 78.4771 231.93 78.5765C231.008 78.6756 230.085 78.7254 229.162 78.7254C226.823 78.7254 224.779 78.378 223.032 77.6832C221.319 76.9885 219.885 76.0454 218.732 74.8545C217.611 73.6303 216.771 72.1913 216.211 70.537C215.684 68.8829 215.42 67.0964 215.42 65.1775ZM232.721 62.3488C232.688 61.7204 232.573 61.1083 232.375 60.5127C232.211 59.9173 231.93 59.3878 231.535 58.9247C231.173 58.4615 230.695 58.081 230.102 57.7833C229.541 57.4857 228.833 57.3367 227.976 57.3367C227.152 57.3367 226.444 57.4857 225.85 57.7833C225.257 58.048 224.763 58.412 224.367 58.8751C223.972 59.3383 223.659 59.884 223.428 60.5127C223.23 61.1083 223.082 61.7204 222.983 62.3488H232.721Z" fill="white"/>
</g>
<path d="M12.7409 174.43C11.4412 174.43 10.3135 174.229 9.35784 173.828C8.40217 173.427 7.61852 172.882 7.0069 172.194C6.39527 171.487 5.93655 170.655 5.63074 169.699C5.34404 168.744 5.20069 167.712 5.20069 166.603V154.132H7.98168V166.288C7.98168 168.276 8.42128 169.719 9.3005 170.617C10.1797 171.515 11.3265 171.964 12.7409 171.964C13.4481 171.964 14.0884 171.859 14.6618 171.649C15.2543 171.42 15.7608 171.076 16.1813 170.617C16.6018 170.158 16.9267 169.575 17.1561 168.868C17.3854 168.142 17.5001 167.282 17.5001 166.288V154.132H20.2811V166.603C20.2811 167.712 20.1282 168.744 19.8224 169.699C19.5357 170.655 19.077 171.487 18.4462 172.194C17.8346 172.882 17.051 173.427 16.0953 173.828C15.1587 174.229 14.0406 174.43 12.7409 174.43ZM24.9106 159.522C25.5223 159.369 26.3346 159.206 27.3476 159.034C28.3606 158.862 29.5265 158.776 30.8453 158.776C32.0304 158.776 33.0147 158.948 33.7983 159.292C34.582 159.617 35.2032 160.085 35.6619 160.697C36.1397 161.29 36.4742 162.006 36.6653 162.847C36.8565 163.688 36.952 164.615 36.952 165.628V174H34.2857V166.202C34.2857 165.284 34.2188 164.501 34.085 163.851C33.9704 163.201 33.7697 162.675 33.483 162.274C33.1963 161.873 32.814 161.586 32.3362 161.414C31.8583 161.223 31.2658 161.127 30.5586 161.127C30.2719 161.127 29.9757 161.137 29.6699 161.156C29.364 161.175 29.0678 161.204 28.7811 161.242C28.5135 161.261 28.265 161.29 28.0357 161.328C27.8254 161.366 27.6725 161.395 27.577 161.414V174H24.9106V159.522ZM44.0398 174H41.3735V159.092H44.0398V174ZM42.6923 156.397C42.2145 156.397 41.8035 156.244 41.4595 155.938C41.1346 155.613 40.9721 155.183 40.9721 154.648C40.9721 154.113 41.1346 153.692 41.4595 153.386C41.8035 153.061 42.2145 152.899 42.6923 152.899C43.1701 152.899 43.5715 153.061 43.8965 153.386C44.2405 153.692 44.4125 154.113 44.4125 154.648C44.4125 155.183 44.2405 155.613 43.8965 155.938C43.5715 156.244 43.1701 156.397 42.6923 156.397ZM48.625 159.522C49.2366 159.369 50.0489 159.206 51.0619 159.034C52.0749 158.862 53.2409 158.776 54.5597 158.776C55.7447 158.776 56.729 158.948 57.5127 159.292C58.2963 159.617 58.9175 160.085 59.3762 160.697C59.8541 161.29 60.1886 162.006 60.3797 162.847C60.5708 163.688 60.6664 164.615 60.6664 165.628V174H58.0001V166.202C58.0001 165.284 57.9332 164.501 57.7994 163.851C57.6847 163.201 57.484 162.675 57.1973 162.274C56.9106 161.873 56.5284 161.586 56.0505 161.414C55.5727 161.223 54.9802 161.127 54.273 161.127C53.9863 161.127 53.69 161.137 53.3842 161.156C53.0784 161.175 52.7821 161.204 52.4954 161.242C52.2279 161.261 51.9794 161.29 51.75 161.328C51.5398 161.366 51.3869 161.395 51.2913 161.414V174H48.625V159.522ZM74.721 162.245C74.396 161.978 73.9278 161.72 73.3161 161.471C72.7045 161.223 72.0355 161.098 71.3092 161.098C70.5447 161.098 69.8853 161.242 69.331 161.529C68.7958 161.796 68.3562 162.178 68.0122 162.675C67.6681 163.153 67.4197 163.727 67.2668 164.396C67.1139 165.065 67.0374 165.781 67.0374 166.546C67.0374 168.285 67.4674 169.633 68.3275 170.588C69.1876 171.525 70.3344 171.993 71.7679 171.993C72.4943 171.993 73.0963 171.964 73.5742 171.907C74.0711 171.831 74.4534 171.754 74.721 171.678V162.245ZM74.721 152.211L77.3873 151.752V173.57C76.7756 173.742 75.992 173.914 75.0363 174.086C74.0807 174.258 72.9816 174.344 71.7393 174.344C70.5925 174.344 69.5604 174.162 68.6429 173.799C67.7255 173.436 66.9418 172.92 66.292 172.251C65.6421 171.582 65.1356 170.77 64.7725 169.814C64.4284 168.839 64.2564 167.75 64.2564 166.546C64.2564 165.399 64.3998 164.348 64.6865 163.392C64.9923 162.436 65.4319 161.615 66.0053 160.926C66.5787 160.238 67.2763 159.703 68.0982 159.321C68.9392 158.939 69.8948 158.748 70.9652 158.748C71.8253 158.748 72.5803 158.862 73.2301 159.092C73.8991 159.321 74.396 159.541 74.721 159.751V152.211ZM95.1302 166.546C95.1302 167.731 94.9582 168.801 94.6141 169.757C94.2701 170.713 93.7827 171.534 93.152 172.222C92.5403 172.911 91.8045 173.446 90.9444 173.828C90.0843 174.191 89.1477 174.373 88.1347 174.373C87.1217 174.373 86.1852 174.191 85.3251 173.828C84.465 173.446 83.7195 172.911 83.0888 172.222C82.4772 171.534 81.9993 170.713 81.6553 169.757C81.3113 168.801 81.1392 167.731 81.1392 166.546C81.1392 165.38 81.3113 164.319 81.6553 163.363C81.9993 162.389 82.4772 161.557 83.0888 160.869C83.7195 160.181 84.465 159.655 85.3251 159.292C86.1852 158.91 87.1217 158.719 88.1347 158.719C89.1477 158.719 90.0843 158.91 90.9444 159.292C91.8045 159.655 92.5403 160.181 93.152 160.869C93.7827 161.557 94.2701 162.389 94.6141 163.363C94.9582 164.319 95.1302 165.38 95.1302 166.546ZM92.3492 166.546C92.3492 164.864 91.9669 163.535 91.2024 162.561C90.457 161.567 89.4344 161.07 88.1347 161.07C86.835 161.07 85.8029 161.567 85.0384 162.561C84.2929 163.535 83.9202 164.864 83.9202 166.546C83.9202 168.228 84.2929 169.566 85.0384 170.56C85.8029 171.534 86.835 172.022 88.1347 172.022C89.4344 172.022 90.457 171.534 91.2024 170.56C91.9669 169.566 92.3492 168.228 92.3492 166.546ZM108.011 159.092H113.659V161.328H108.011V168.209C108.011 168.954 108.069 169.575 108.183 170.072C108.298 170.55 108.47 170.932 108.699 171.219C108.929 171.487 109.215 171.678 109.559 171.792C109.904 171.907 110.305 171.964 110.764 171.964C111.566 171.964 112.207 171.878 112.685 171.706C113.181 171.515 113.526 171.381 113.717 171.305L114.233 173.513C113.965 173.646 113.497 173.809 112.828 174C112.159 174.21 111.394 174.315 110.534 174.315C109.521 174.315 108.68 174.191 108.011 173.943C107.361 173.675 106.836 173.283 106.434 172.767C106.033 172.251 105.746 171.62 105.574 170.875C105.421 170.11 105.345 169.231 105.345 168.237V154.934L108.011 154.476V159.092ZM122.098 172.079C122.729 172.079 123.283 172.07 123.761 172.05C124.258 172.012 124.669 171.955 124.994 171.878V167.435C124.803 167.339 124.487 167.263 124.048 167.205C123.627 167.129 123.111 167.091 122.5 167.091C122.098 167.091 121.668 167.119 121.209 167.177C120.77 167.234 120.359 167.358 119.977 167.549C119.613 167.721 119.308 167.97 119.059 168.295C118.811 168.6 118.686 169.011 118.686 169.527C118.686 170.483 118.992 171.152 119.604 171.534C120.215 171.898 121.047 172.079 122.098 172.079ZM121.869 158.719C122.939 158.719 123.837 158.862 124.564 159.149C125.309 159.417 125.902 159.808 126.341 160.324C126.8 160.821 127.125 161.423 127.316 162.131C127.507 162.819 127.603 163.583 127.603 164.424V173.742C127.373 173.78 127.048 173.838 126.628 173.914C126.227 173.971 125.768 174.029 125.252 174.086C124.736 174.143 124.172 174.191 123.56 174.229C122.968 174.287 122.375 174.315 121.783 174.315C120.942 174.315 120.168 174.229 119.46 174.057C118.753 173.885 118.142 173.618 117.626 173.255C117.11 172.872 116.708 172.375 116.421 171.764C116.135 171.152 115.991 170.416 115.991 169.556C115.991 168.734 116.154 168.027 116.479 167.435C116.823 166.842 117.282 166.364 117.855 166.001C118.428 165.638 119.097 165.37 119.862 165.198C120.626 165.026 121.429 164.94 122.27 164.94C122.538 164.94 122.815 164.959 123.102 164.998C123.388 165.017 123.656 165.055 123.904 165.112C124.172 165.151 124.401 165.189 124.592 165.227C124.784 165.265 124.917 165.294 124.994 165.313V164.568C124.994 164.128 124.946 163.698 124.85 163.277C124.755 162.838 124.583 162.456 124.334 162.131C124.086 161.787 123.742 161.519 123.302 161.328C122.882 161.118 122.327 161.012 121.639 161.012C120.76 161.012 119.986 161.079 119.317 161.213C118.667 161.328 118.18 161.452 117.855 161.586L117.54 159.378C117.884 159.225 118.457 159.082 119.26 158.948C120.063 158.795 120.932 158.719 121.869 158.719ZM136.504 174.287C134.86 174.248 133.694 173.895 133.006 173.226C132.318 172.557 131.974 171.515 131.974 170.101V152.211L134.64 151.752V169.671C134.64 170.11 134.678 170.474 134.755 170.76C134.831 171.047 134.956 171.276 135.128 171.448C135.3 171.62 135.529 171.754 135.816 171.85C136.102 171.926 136.456 171.993 136.876 172.05L136.504 174.287ZM139.039 166.574C139.039 165.256 139.23 164.109 139.613 163.134C139.995 162.14 140.501 161.318 141.132 160.668C141.763 160.019 142.489 159.531 143.311 159.206C144.133 158.881 144.974 158.719 145.834 158.719C147.841 158.719 149.38 159.35 150.45 160.611C151.52 161.853 152.055 163.755 152.055 166.316C152.055 166.431 152.055 166.584 152.055 166.775C152.055 166.947 152.046 167.11 152.027 167.263H141.82C141.935 168.811 142.384 169.986 143.168 170.789C143.951 171.592 145.175 171.993 146.837 171.993C147.774 171.993 148.558 171.917 149.188 171.764C149.838 171.592 150.326 171.429 150.651 171.276L151.023 173.513C150.698 173.685 150.125 173.866 149.303 174.057C148.5 174.248 147.583 174.344 146.551 174.344C145.251 174.344 144.123 174.153 143.168 173.771C142.231 173.369 141.457 172.825 140.845 172.136C140.234 171.448 139.775 170.636 139.469 169.699C139.183 168.744 139.039 167.702 139.039 166.574ZM149.274 165.112C149.294 163.908 148.988 162.924 148.357 162.159C147.745 161.376 146.895 160.984 145.805 160.984C145.194 160.984 144.649 161.108 144.171 161.357C143.712 161.586 143.321 161.892 142.996 162.274C142.671 162.656 142.413 163.096 142.222 163.593C142.05 164.09 141.935 164.596 141.878 165.112H149.274ZM155.886 159.522C156.497 159.369 157.309 159.206 158.322 159.034C159.335 158.862 160.501 158.776 161.82 158.776C163.005 158.776 163.99 158.948 164.773 159.292C165.557 159.617 166.178 160.085 166.637 160.697C167.115 161.29 167.449 162.006 167.64 162.847C167.831 163.688 167.927 164.615 167.927 165.628V174H165.261V166.202C165.261 165.284 165.194 164.501 165.06 163.851C164.945 163.201 164.745 162.675 164.458 162.274C164.171 161.873 163.789 161.586 163.311 161.414C162.833 161.223 162.241 161.127 161.533 161.127C161.247 161.127 160.951 161.137 160.645 161.156C160.339 161.175 160.043 161.204 159.756 161.242C159.488 161.261 159.24 161.29 159.011 161.328C158.8 161.366 158.647 161.395 158.552 161.414V174H155.886V159.522ZM174.843 159.092H180.491V161.328H174.843V168.209C174.843 168.954 174.9 169.575 175.015 170.072C175.129 170.55 175.301 170.932 175.531 171.219C175.76 171.487 176.047 171.678 176.391 171.792C176.735 171.907 177.136 171.964 177.595 171.964C178.398 171.964 179.038 171.878 179.516 171.706C180.013 171.515 180.357 171.381 180.548 171.305L181.064 173.513C180.796 173.646 180.328 173.809 179.659 174C178.99 174.21 178.226 174.315 177.366 174.315C176.353 174.315 175.512 174.191 174.843 173.943C174.193 173.675 173.667 173.283 173.266 172.767C172.864 172.251 172.578 171.62 172.406 170.875C172.253 170.11 172.176 169.231 172.176 168.237V154.934L174.843 154.476V159.092ZM196.651 166.546C196.651 167.731 196.479 168.801 196.135 169.757C195.791 170.713 195.304 171.534 194.673 172.222C194.061 172.911 193.325 173.446 192.465 173.828C191.605 174.191 190.669 174.373 189.656 174.373C188.643 174.373 187.706 174.191 186.846 173.828C185.986 173.446 185.24 172.911 184.61 172.222C183.998 171.534 183.52 170.713 183.176 169.757C182.832 168.801 182.66 167.731 182.66 166.546C182.66 165.38 182.832 164.319 183.176 163.363C183.52 162.389 183.998 161.557 184.61 160.869C185.24 160.181 185.986 159.655 186.846 159.292C187.706 158.91 188.643 158.719 189.656 158.719C190.669 158.719 191.605 158.91 192.465 159.292C193.325 159.655 194.061 160.181 194.673 160.869C195.304 161.557 195.791 162.389 196.135 163.363C196.479 164.319 196.651 165.38 196.651 166.546ZM193.87 166.546C193.87 164.864 193.488 163.535 192.723 162.561C191.978 161.567 190.955 161.07 189.656 161.07C188.356 161.07 187.324 161.567 186.559 162.561C185.814 163.535 185.441 164.864 185.441 166.546C185.441 168.228 185.814 169.566 186.559 170.56C187.324 171.534 188.356 172.022 189.656 172.022C190.955 172.022 191.978 171.534 192.723 170.56C193.488 169.566 193.87 168.228 193.87 166.546ZM203.871 172.079C204.961 172.079 205.764 171.936 206.28 171.649C206.815 171.362 207.083 170.904 207.083 170.273C207.083 169.623 206.824 169.107 206.308 168.725C205.792 168.342 204.942 167.912 203.757 167.435C203.183 167.205 202.629 166.976 202.094 166.746C201.578 166.498 201.129 166.211 200.746 165.886C200.364 165.561 200.058 165.17 199.829 164.711C199.6 164.252 199.485 163.688 199.485 163.019C199.485 161.701 199.972 160.659 200.947 159.894C201.922 159.111 203.25 158.719 204.932 158.719C205.353 158.719 205.773 158.748 206.194 158.805C206.614 158.843 207.006 158.9 207.369 158.977C207.732 159.034 208.048 159.101 208.315 159.178C208.602 159.254 208.822 159.321 208.975 159.378L208.487 161.672C208.201 161.519 207.751 161.366 207.14 161.213C206.528 161.041 205.792 160.955 204.932 160.955C204.187 160.955 203.537 161.108 202.983 161.414C202.428 161.701 202.151 162.159 202.151 162.79C202.151 163.115 202.209 163.402 202.323 163.65C202.457 163.899 202.648 164.128 202.897 164.338C203.164 164.529 203.489 164.711 203.871 164.883C204.254 165.055 204.712 165.237 205.248 165.428C205.955 165.695 206.586 165.963 207.14 166.23C207.694 166.479 208.162 166.775 208.545 167.119C208.946 167.463 209.252 167.884 209.462 168.381C209.672 168.859 209.777 169.451 209.777 170.158C209.777 171.534 209.261 172.576 208.229 173.283C207.216 173.99 205.764 174.344 203.871 174.344C202.553 174.344 201.521 174.229 200.775 174C200.03 173.79 199.523 173.627 199.256 173.513L199.743 171.219C200.049 171.334 200.536 171.506 201.205 171.735C201.874 171.964 202.763 172.079 203.871 172.079ZM216.007 170.732C216.026 170.885 216.036 171.037 216.036 171.19C216.036 171.324 216.036 171.467 216.036 171.62C216.036 172.825 215.854 174.01 215.491 175.175C215.147 176.36 214.669 177.488 214.058 178.559L211.993 177.899C212.471 176.924 212.787 175.93 212.939 174.917C213.092 173.924 213.169 172.987 213.169 172.108C213.169 171.859 213.159 171.62 213.14 171.391C213.14 171.162 213.131 170.942 213.112 170.732H216.007ZM13.8877 205.43C12.4924 205.43 11.2214 205.201 10.0746 204.742C8.92779 204.283 7.94345 203.614 7.12158 202.735C6.2997 201.856 5.65941 200.776 5.20069 199.495C4.76108 198.196 4.54128 196.714 4.54128 195.052C4.54128 193.389 4.78975 191.917 5.2867 190.636C5.80276 189.337 6.49084 188.247 7.35094 187.368C8.21104 186.489 9.21449 185.82 10.3613 185.361C11.5081 184.902 12.7313 184.673 14.031 184.673C14.8529 184.673 15.5888 184.73 16.2386 184.845C16.9076 184.96 17.481 185.093 17.9588 185.246C18.4558 185.399 18.8572 185.552 19.163 185.705C19.4688 185.858 19.679 185.973 19.7937 186.049L18.991 188.343C18.8189 188.228 18.5705 188.104 18.2455 187.97C17.9206 187.836 17.5479 187.702 17.1274 187.569C16.726 187.435 16.2769 187.33 15.7799 187.253C15.3021 187.158 14.8147 187.11 14.3177 187.11C13.2665 187.11 12.3204 187.291 11.4794 187.655C10.6384 188.018 9.92168 188.543 9.32917 189.231C8.73665 189.92 8.27793 190.761 7.95301 191.754C7.64719 192.729 7.49429 193.828 7.49429 195.052C7.49429 196.237 7.62808 197.316 7.89567 198.291C8.18237 199.266 8.60286 200.107 9.15715 200.814C9.71143 201.502 10.3995 202.037 11.2214 202.42C12.0624 202.802 13.0372 202.993 14.1457 202.993C15.4263 202.993 16.4871 202.859 17.3281 202.592C18.1691 202.324 18.7998 202.085 19.2203 201.875L19.9371 204.169C19.8033 204.264 19.5644 204.388 19.2203 204.541C18.8763 204.675 18.4462 204.809 17.9302 204.943C17.4141 205.076 16.812 205.191 16.124 205.287C15.4359 205.382 14.6905 205.43 13.8877 205.43ZM35.6903 197.546C35.6903 198.731 35.5183 199.801 35.1743 200.757C34.8302 201.713 34.3428 202.534 33.7121 203.222C33.1005 203.911 32.3646 204.446 31.5045 204.828C30.6444 205.191 29.7079 205.373 28.6949 205.373C27.6819 205.373 26.7453 205.191 25.8852 204.828C25.0251 204.446 24.2797 203.911 23.6489 203.222C23.0373 202.534 22.5595 201.713 22.2154 200.757C21.8714 199.801 21.6994 198.731 21.6994 197.546C21.6994 196.38 21.8714 195.319 22.2154 194.363C22.5595 193.389 23.0373 192.557 23.6489 191.869C24.2797 191.181 25.0251 190.655 25.8852 190.292C26.7453 189.91 27.6819 189.719 28.6949 189.719C29.7079 189.719 30.6444 189.91 31.5045 190.292C32.3646 190.655 33.1005 191.181 33.7121 191.869C34.3428 192.557 34.8302 193.389 35.1743 194.363C35.5183 195.319 35.6903 196.38 35.6903 197.546ZM32.9093 197.546C32.9093 195.864 32.5271 194.535 31.7625 193.561C31.0171 192.567 29.9946 192.07 28.6949 192.07C27.3952 192.07 26.363 192.567 25.5985 193.561C24.8531 194.535 24.4804 195.864 24.4804 197.546C24.4804 199.228 24.8531 200.566 25.5985 201.56C26.363 202.534 27.3952 203.022 28.6949 203.022C29.9946 203.022 31.0171 202.534 31.7625 201.56C32.5271 200.566 32.9093 199.228 32.9093 197.546ZM39.4416 190.522C40.0533 190.369 40.8656 190.206 41.8786 190.034C42.8916 189.862 44.0575 189.776 45.3763 189.776C46.5613 189.776 47.5457 189.948 48.3293 190.292C49.113 190.617 49.7342 191.085 50.1929 191.697C50.6707 192.29 51.0052 193.006 51.1963 193.847C51.3875 194.688 51.483 195.615 51.483 196.628V205H48.8167V197.202C48.8167 196.284 48.7498 195.501 48.616 194.851C48.5013 194.201 48.3007 193.675 48.014 193.274C47.7273 192.873 47.345 192.586 46.8672 192.414C46.3893 192.223 45.7968 192.127 45.0896 192.127C44.8029 192.127 44.5067 192.137 44.2008 192.156C43.895 192.175 43.5988 192.204 43.3121 192.242C43.0445 192.261 42.796 192.29 42.5667 192.328C42.3564 192.366 42.2035 192.395 42.1079 192.414V205H39.4416V190.522ZM59.3735 203.079C60.463 203.079 61.2658 202.936 61.7818 202.649C62.317 202.362 62.5846 201.904 62.5846 201.273C62.5846 200.623 62.3266 200.107 61.8105 199.725C61.2944 199.342 60.4439 198.912 59.2589 198.435C58.6855 198.205 58.1312 197.976 57.596 197.746C57.0799 197.498 56.6308 197.211 56.2485 196.886C55.8663 196.561 55.5604 196.17 55.3311 195.711C55.1017 195.252 54.987 194.688 54.987 194.019C54.987 192.701 55.4744 191.659 56.4492 190.894C57.424 190.111 58.7524 189.719 60.4343 189.719C60.8548 189.719 61.2753 189.748 61.6958 189.805C62.1163 189.843 62.5081 189.9 62.8713 189.977C63.2344 190.034 63.5498 190.101 63.8174 190.178C64.1041 190.254 64.3239 190.321 64.4768 190.378L63.9894 192.672C63.7027 192.519 63.2536 192.366 62.6419 192.213C62.0303 192.041 61.2944 191.955 60.4343 191.955C59.6889 191.955 59.0391 192.108 58.4848 192.414C57.9305 192.701 57.6533 193.159 57.6533 193.79C57.6533 194.115 57.7107 194.402 57.8254 194.65C57.9592 194.899 58.1503 195.128 58.3988 195.338C58.6664 195.529 58.9913 195.711 59.3735 195.883C59.7558 196.055 60.2145 196.237 60.7497 196.428C61.4569 196.695 62.0876 196.963 62.6419 197.23C63.1962 197.479 63.6645 197.775 64.0468 198.119C64.4481 198.463 64.754 198.884 64.9642 199.381C65.1744 199.859 65.2796 200.451 65.2796 201.158C65.2796 202.534 64.7635 203.576 63.7314 204.283C62.7184 204.99 61.2658 205.344 59.3735 205.344C58.0547 205.344 57.0226 205.229 56.2772 205C55.5318 204.79 55.0253 204.627 54.7577 204.513L55.2451 202.219C55.5509 202.334 56.0383 202.506 56.7072 202.735C57.3762 202.964 58.265 203.079 59.3735 203.079ZM71.1939 190.092H76.8419V192.328H71.1939V199.209C71.1939 199.954 71.2512 200.575 71.3659 201.072C71.4806 201.55 71.6526 201.932 71.882 202.219C72.1113 202.487 72.398 202.678 72.7421 202.792C73.0861 202.907 73.4875 202.964 73.9462 202.964C74.749 202.964 75.3893 202.878 75.8671 202.706C76.364 202.515 76.7081 202.381 76.8992 202.305L77.4153 204.513C77.1477 204.646 76.6794 204.809 76.0104 205C75.3415 205.21 74.5769 205.315 73.7168 205.315C72.7038 205.315 71.8628 205.191 71.1939 204.943C70.544 204.675 70.0184 204.283 69.617 203.767C69.2156 203.251 68.9289 202.62 68.7569 201.875C68.604 201.11 68.5276 200.231 68.5276 199.237V185.934L71.1939 185.476V190.092ZM85.7394 189.776C85.9688 189.776 86.2268 189.795 86.5135 189.834C86.8193 189.853 87.1156 189.891 87.4023 189.948C87.689 189.986 87.947 190.034 88.1764 190.092C88.4248 190.13 88.6064 190.168 88.7211 190.206L88.2624 192.529C88.0521 192.452 87.6985 192.366 87.2016 192.271C86.7238 192.156 86.1026 192.098 85.338 192.098C84.8411 192.098 84.3442 192.156 83.8472 192.271C83.3694 192.366 83.054 192.433 82.9011 192.471V205H80.2348V190.722C80.8655 190.493 81.6492 190.283 82.5857 190.092C83.5223 189.881 84.5735 189.776 85.7394 189.776ZM103.163 204.57C102.552 204.723 101.739 204.885 100.726 205.057C99.7325 205.229 98.5762 205.315 97.2574 205.315C96.1106 205.315 95.1453 205.153 94.3617 204.828C93.5781 204.484 92.9473 204.006 92.4695 203.394C91.9916 202.783 91.6476 202.066 91.4374 201.244C91.2271 200.403 91.122 199.476 91.122 198.463V190.092H93.7883V197.89C93.7883 199.706 94.075 201.005 94.6484 201.789C95.2218 202.573 96.187 202.964 97.5441 202.964C97.8308 202.964 98.127 202.955 98.4328 202.936C98.7387 202.917 99.0254 202.898 99.2929 202.878C99.5605 202.84 99.7994 202.812 100.01 202.792C100.239 202.754 100.402 202.716 100.497 202.678V190.092H103.163V204.57ZM110.423 205H107.757V190.092H110.423V205ZM109.076 187.397C108.598 187.397 108.187 187.244 107.843 186.938C107.518 186.613 107.355 186.183 107.355 185.648C107.355 185.113 107.518 184.692 107.843 184.386C108.187 184.061 108.598 183.899 109.076 183.899C109.554 183.899 109.955 184.061 110.28 184.386C110.624 184.692 110.796 185.113 110.796 185.648C110.796 186.183 110.624 186.613 110.28 186.938C109.955 187.244 109.554 187.397 109.076 187.397ZM115.008 190.522C115.62 190.369 116.432 190.206 117.445 190.034C118.458 189.862 119.624 189.776 120.943 189.776C122.128 189.776 123.112 189.948 123.896 190.292C124.68 190.617 125.301 191.085 125.76 191.697C126.237 192.29 126.572 193.006 126.763 193.847C126.954 194.688 127.05 195.615 127.05 196.628V205H124.383V197.202C124.383 196.284 124.317 195.501 124.183 194.851C124.068 194.201 123.867 193.675 123.581 193.274C123.294 192.873 122.912 192.586 122.434 192.414C121.956 192.223 121.364 192.127 120.656 192.127C120.37 192.127 120.073 192.137 119.768 192.156C119.462 192.175 119.166 192.204 118.879 192.242C118.611 192.261 118.363 192.29 118.133 192.328C117.923 192.366 117.77 192.395 117.675 192.414V205H115.008V190.522ZM141.104 193.245C140.779 192.978 140.311 192.72 139.7 192.471C139.088 192.223 138.419 192.098 137.693 192.098C136.928 192.098 136.269 192.242 135.714 192.529C135.179 192.796 134.74 193.178 134.396 193.675C134.052 194.153 133.803 194.727 133.65 195.396C133.497 196.065 133.421 196.781 133.421 197.546C133.421 199.285 133.851 200.633 134.711 201.588C135.571 202.525 136.718 202.993 138.151 202.993C138.878 202.993 139.48 202.964 139.958 202.907C140.454 202.831 140.837 202.754 141.104 202.678V193.245ZM141.104 183.211L143.771 182.752V204.57C143.159 204.742 142.375 204.914 141.42 205.086C140.464 205.258 139.365 205.344 138.123 205.344C136.976 205.344 135.944 205.162 135.026 204.799C134.109 204.436 133.325 203.92 132.675 203.251C132.025 202.582 131.519 201.77 131.156 200.814C130.812 199.839 130.64 198.75 130.64 197.546C130.64 196.399 130.783 195.348 131.07 194.392C131.376 193.436 131.815 192.615 132.389 191.926C132.962 191.238 133.66 190.703 134.482 190.321C135.323 189.939 136.278 189.748 137.349 189.748C138.209 189.748 138.964 189.862 139.613 190.092C140.282 190.321 140.779 190.541 141.104 190.751V183.211ZM161.514 197.546C161.514 198.731 161.342 199.801 160.998 200.757C160.653 201.713 160.166 202.534 159.535 203.222C158.924 203.911 158.188 204.446 157.328 204.828C156.468 205.191 155.531 205.373 154.518 205.373C153.505 205.373 152.569 205.191 151.708 204.828C150.848 204.446 150.103 203.911 149.472 203.222C148.861 202.534 148.383 201.713 148.039 200.757C147.695 199.801 147.523 198.731 147.523 197.546C147.523 196.38 147.695 195.319 148.039 194.363C148.383 193.389 148.861 192.557 149.472 191.869C150.103 191.181 150.848 190.655 151.708 190.292C152.569 189.91 153.505 189.719 154.518 189.719C155.531 189.719 156.468 189.91 157.328 190.292C158.188 190.655 158.924 191.181 159.535 191.869C160.166 192.557 160.653 193.389 160.998 194.363C161.342 195.319 161.514 196.38 161.514 197.546ZM158.733 197.546C158.733 195.864 158.35 194.535 157.586 193.561C156.84 192.567 155.818 192.07 154.518 192.07C153.218 192.07 152.186 192.567 151.422 193.561C150.676 194.535 150.304 195.864 150.304 197.546C150.304 199.228 150.676 200.566 151.422 201.56C152.186 202.534 153.218 203.022 154.518 203.022C155.818 203.022 156.84 202.534 157.586 201.56C158.35 200.566 158.733 199.228 158.733 197.546ZM185.06 197.546C185.06 198.731 184.888 199.801 184.544 200.757C184.2 201.713 183.712 202.534 183.082 203.222C182.47 203.911 181.734 204.446 180.874 204.828C180.014 205.191 179.077 205.373 178.064 205.373C177.051 205.373 176.115 205.191 175.255 204.828C174.395 204.446 173.649 203.911 173.019 203.222C172.407 202.534 171.929 201.713 171.585 200.757C171.241 199.801 171.069 198.731 171.069 197.546C171.069 196.38 171.241 195.319 171.585 194.363C171.929 193.389 172.407 192.557 173.019 191.869C173.649 191.181 174.395 190.655 175.255 190.292C176.115 189.91 177.051 189.719 178.064 189.719C179.077 189.719 180.014 189.91 180.874 190.292C181.734 190.655 182.47 191.181 183.082 191.869C183.712 192.557 184.2 193.389 184.544 194.363C184.888 195.319 185.06 196.38 185.06 197.546ZM182.279 197.546C182.279 195.864 181.897 194.535 181.132 193.561C180.387 192.567 179.364 192.07 178.064 192.07C176.765 192.07 175.733 192.567 174.968 193.561C174.223 194.535 173.85 195.864 173.85 197.546C173.85 199.228 174.223 200.566 174.968 201.56C175.733 202.534 176.765 203.022 178.064 203.022C179.364 203.022 180.387 202.534 181.132 201.56C181.897 200.566 182.279 199.228 182.279 197.546ZM201.267 182.752C202.05 182.752 202.719 182.809 203.274 182.924C203.847 183.039 204.248 183.144 204.478 183.239L203.99 185.533C203.761 185.418 203.436 185.313 203.016 185.218C202.595 185.103 202.079 185.046 201.467 185.046C200.225 185.046 199.355 185.39 198.858 186.078C198.362 186.747 198.113 187.655 198.113 188.801V190.092H203.847V192.328H198.113V205H195.447V188.744C195.447 186.833 195.915 185.361 196.852 184.329C197.788 183.278 199.26 182.752 201.267 182.752ZM218.375 204.57C217.764 204.723 216.951 204.885 215.938 205.057C214.945 205.229 213.788 205.315 212.469 205.315C211.323 205.315 210.357 205.153 209.574 204.828C208.79 204.484 208.159 204.006 207.681 203.394C207.204 202.783 206.86 202.066 206.649 201.244C206.439 200.403 206.334 199.476 206.334 198.463V190.092H209V197.89C209 199.706 209.287 201.005 209.86 201.789C210.434 202.573 211.399 202.964 212.756 202.964C213.043 202.964 213.339 202.955 213.645 202.936C213.951 202.917 214.237 202.898 214.505 202.878C214.772 202.84 215.011 202.812 215.222 202.792C215.451 202.754 215.613 202.716 215.709 202.678V190.092H218.375V204.57ZM225.463 190.092H231.111V192.328H225.463V199.209C225.463 199.954 225.52 200.575 225.635 201.072C225.75 201.55 225.922 201.932 226.151 202.219C226.381 202.487 226.667 202.678 227.011 202.792C227.355 202.907 227.757 202.964 228.215 202.964C229.018 202.964 229.658 202.878 230.136 202.706C230.633 202.515 230.977 202.381 231.168 202.305L231.685 204.513C231.417 204.646 230.949 204.809 230.28 205C229.611 205.21 228.846 205.315 227.986 205.315C226.973 205.315 226.132 205.191 225.463 204.943C224.813 204.675 224.288 204.283 223.886 203.767C223.485 203.251 223.198 202.62 223.026 201.875C222.873 201.11 222.797 200.231 222.797 199.237V185.934L225.463 185.476V190.092ZM246.373 204.57C245.762 204.723 244.949 204.885 243.936 205.057C242.943 205.229 241.786 205.315 240.467 205.315C239.321 205.315 238.355 205.153 237.572 204.828C236.788 204.484 236.157 204.006 235.679 203.394C235.202 202.783 234.858 202.066 234.647 201.244C234.437 200.403 234.332 199.476 234.332 198.463V190.092H236.998V197.89C236.998 199.706 237.285 201.005 237.858 201.789C238.432 202.573 239.397 202.964 240.754 202.964C241.041 202.964 241.337 202.955 241.643 202.936C241.949 202.917 242.235 202.898 242.503 202.878C242.771 202.84 243.009 202.812 243.22 202.792C243.449 202.754 243.612 202.716 243.707 202.678V190.092H246.373V204.57ZM256.472 189.776C256.701 189.776 256.959 189.795 257.246 189.834C257.551 189.853 257.848 189.891 258.134 189.948C258.421 189.986 258.679 190.034 258.908 190.092C259.157 190.13 259.339 190.168 259.453 190.206L258.994 192.529C258.784 192.452 258.431 192.366 257.934 192.271C257.456 192.156 256.835 192.098 256.07 192.098C255.573 192.098 255.076 192.156 254.579 192.271C254.101 192.366 253.786 192.433 253.633 192.471V205H250.967V190.722C251.598 190.493 252.381 190.283 253.318 190.092C254.254 189.881 255.306 189.776 256.472 189.776ZM275.186 197.546C275.186 198.731 275.014 199.801 274.67 200.757C274.326 201.713 273.838 202.534 273.207 203.222C272.596 203.911 271.86 204.446 271 204.828C270.14 205.191 269.203 205.373 268.19 205.373C267.177 205.373 266.241 205.191 265.381 204.828C264.52 204.446 263.775 203.911 263.144 203.222C262.533 202.534 262.055 201.713 261.711 200.757C261.367 199.801 261.195 198.731 261.195 197.546C261.195 196.38 261.367 195.319 261.711 194.363C262.055 193.389 262.533 192.557 263.144 191.869C263.775 191.181 264.52 190.655 265.381 190.292C266.241 189.91 267.177 189.719 268.19 189.719C269.203 189.719 270.14 189.91 271 190.292C271.86 190.655 272.596 191.181 273.207 191.869C273.838 192.557 274.326 193.389 274.67 194.363C275.014 195.319 275.186 196.38 275.186 197.546ZM272.405 197.546C272.405 195.864 272.022 194.535 271.258 193.561C270.512 192.567 269.49 192.07 268.19 192.07C266.89 192.07 265.858 192.567 265.094 193.561C264.348 194.535 263.976 195.864 263.976 197.546C263.976 199.228 264.348 200.566 265.094 201.56C265.858 202.534 266.89 203.022 268.19 203.022C269.49 203.022 270.512 202.534 271.258 201.56C272.022 200.566 272.405 199.228 272.405 197.546ZM282.091 203.452C282.091 203.968 281.919 204.417 281.575 204.799C281.231 205.182 280.762 205.373 280.17 205.373C279.577 205.373 279.109 205.182 278.765 204.799C278.421 204.417 278.249 203.968 278.249 203.452C278.249 202.936 278.421 202.487 278.765 202.104C279.109 201.722 279.577 201.531 280.17 201.531C280.762 201.531 281.231 201.722 281.575 202.104C281.919 202.487 282.091 202.936 282.091 203.452Z" fill="white"/>
<defs>
<filter id="filter0_d_68_395" x="0" y="40.0175" width="269.973" height="103.346" filterUnits="userSpaceOnUse" color-interpolation-filters="sRGB">
<feFlood flood-opacity="0" result="BackgroundImageFix"/>
<feColorMatrix in="SourceAlpha" type="matrix" values="0 0 0 0 0 0 0 0 0 0 0 0 0 0 0 0 0 0 127 0" result="hardAlpha"/>
<feOffset dx="4.07214" dy="4.75083"/>
<feGaussianBlur stdDeviation="1.73066"/>
<feComposite in2="hardAlpha" operator="out"/>
<feColorMatrix type="matrix" values="0 0 0 0 0 0 0 0 0 0 0 0 0 0 0 0 0 0 0.25 0"/>
<feBlend mode="normal" in2="BackgroundImageFix" result="effect1_dropShadow_68_395"/>
<feBlend mode="normal" in="SourceGraphic" in2="effect1_dropShadow_68_395" result="shape"/>
</filter>
<linearGradient id="paint0_linear_68_395" x1="22.8785" y1="21.5" x2="62.4421" y2="460.787" gradientUnits="userSpaceOnUse">
<stop stop-color="#1EBC55"/>
<stop offset="1" stop-color="#ACC32B"/>
</linearGradient>
</defs>
</svg>
