<svg width="53" height="53" viewBox="0 0 53 53" fill="none" xmlns="http://www.w3.org/2000/svg">
<g clip-path="url(#clip0_68_503)">
<path d="M10.4332 39.1932C7.75209 36.5957 8.62019 31.795 12.1635 30.4749C12.4587 30.3645 13.6812 30.1541 13.693 30.0363L7.49963 3.83583L7.2457 3.64893C5.45929 3.53119 3.47506 3.80934 1.71376 3.65482C-0.571654 3.45467 -0.57313 0.321437 1.71376 0.121287C3.53264 -0.039127 7.08772 -0.039127 8.9066 0.121287C9.5503 0.177212 9.94301 0.399437 10.3328 0.902755L11.8505 6.99114L12.0099 7.16333L48.1366 7.17363C51.6474 7.66517 53.4869 10.323 52.886 13.7889C51.9559 19.1517 50.075 24.6323 49.043 30.0069C48.33 32.004 46.5155 33.4227 44.3807 33.6214L13.9853 33.617C11.8416 33.9216 11.852 36.8444 13.9853 37.1431L44.4767 37.152C46.5746 37.5773 46.4638 40.4795 44.27 40.6723H13.7609C12.6403 40.584 11.2363 39.9747 10.4332 39.1976V39.1932Z" fill="url(#paint0_linear_68_503)"/>
<path d="M19.4556 52.9984C22.3836 52.9984 24.7572 50.6323 24.7572 47.7136C24.7572 44.7948 22.3836 42.4287 19.4556 42.4287C16.5275 42.4287 14.1539 44.7948 14.1539 47.7136C14.1539 50.6323 16.5275 52.9984 19.4556 52.9984Z" fill="url(#paint1_linear_68_503)"/>
<path d="M38.9066 52.9984C41.8346 52.9984 44.2082 50.6323 44.2082 47.7136C44.2082 44.7948 41.8346 42.4287 38.9066 42.4287C35.9786 42.4287 33.605 44.7948 33.605 47.7136C33.605 50.6323 35.9786 52.9984 38.9066 52.9984Z" fill="url(#paint2_linear_68_503)"/>
</g>
<defs>
<linearGradient id="paint0_linear_68_503" x1="-0.000300811" y1="20.335" x2="52.9997" y2="20.335" gradientUnits="userSpaceOnUse">
<stop stop-color="#1EBC55"/>
<stop offset="1" stop-color="#ACC32B"/>
</linearGradient>
<linearGradient id="paint1_linear_68_503" x1="14.1539" y1="47.7136" x2="24.7587" y2="47.7136" gradientUnits="userSpaceOnUse">
<stop stop-color="#1EBC55"/>
<stop offset="1" stop-color="#ACC32B"/>
</linearGradient>
<linearGradient id="paint2_linear_68_503" x1="33.6035" y1="47.7136" x2="44.2082" y2="47.7136" gradientUnits="userSpaceOnUse">
<stop stop-color="#1EBC55"/>
<stop offset="1" stop-color="#ACC32B"/>
</linearGradient>
<clipPath id="clip0_68_503">
<rect width="53" height="53" fill="white"/>
</clipPath>
</defs>
</svg>
