<svg width="56" height="53" viewBox="0 0 56 53" fill="none" xmlns="http://www.w3.org/2000/svg">
<g clip-path="url(#clip0_68_486)">
<path d="M56 23.3924C55.7265 23.9665 55.1111 24.7178 54.4164 24.7178H31.5418V17.6477H24.5538V24.7178H1.67928C1.03518 24.7178 0.247484 23.943 0.120305 23.3121C-0.0670456 22.3782 -0.00824216 18.3242 0.10663 17.2727C0.221501 16.2212 0.90663 15.0673 1.87757 14.5346C2.01022 14.4626 2.81706 14.1126 2.87996 14.1126H14.6174C12.7343 12.7069 11.2246 11.2375 10.7377 8.81341C9.20749 1.21333 18.6065 -3.15053 23.5186 2.73251C24.9777 4.47999 27.9398 9.95903 27.9398 12.1797V14.1126H28.1586V12.1797C28.1586 9.94934 31.1152 4.48691 32.5798 2.73251C37.4988 -3.16022 46.8895 1.21609 45.3606 8.81341C44.8724 11.2375 43.3641 12.7055 41.481 14.1126H53.2184C53.2813 14.1126 54.0882 14.4626 54.2208 14.5346C55.2191 15.0825 55.71 16.0316 56.0027 17.0956V23.3924H56ZM15.2027 4.54087C13.7326 6.0061 13.7381 8.2918 15.0523 9.86218C16.4499 11.5308 21.5931 14.1403 23.736 14.0904C24.7343 14.0669 24.5456 13.2022 24.4171 12.4287C24.0506 10.2233 21.5904 5.00714 19.6061 3.92932C18.2044 3.16835 16.3391 3.40771 15.2027 4.54087ZM40.8943 4.54087C39.5678 3.21954 37.3702 3.20294 35.9193 4.34579C34.2236 5.68234 31.4899 11.2361 31.5829 13.3779C31.6061 13.9299 31.8263 14.078 32.361 14.0904C34.5039 14.1403 39.6471 11.5308 41.0448 9.86218C42.363 8.28765 42.3712 6.01302 40.8943 4.54087Z" fill="url(#paint0_linear_68_486)"/>
<path d="M24.5538 28.2529V52.9985H6.91964C5.57399 52.9985 3.58972 51.3673 3.58972 49.9602V28.2529H24.5538Z" fill="url(#paint1_linear_68_486)"/>
<path d="M52.506 28.2529V49.9602C52.506 51.3659 50.5217 52.9985 49.1761 52.9985H31.5419V28.2529H52.506Z" fill="url(#paint2_linear_68_486)"/>
</g>
<defs>
<linearGradient id="paint0_linear_68_486" x1="-3.70334e-05" y1="12.3596" x2="56" y2="12.3596" gradientUnits="userSpaceOnUse">
<stop stop-color="#1EBC55"/>
<stop offset="1" stop-color="#ACC32B"/>
</linearGradient>
<linearGradient id="paint1_linear_68_486" x1="3.58972" y1="40.6264" x2="24.5538" y2="40.6264" gradientUnits="userSpaceOnUse">
<stop stop-color="#1EBC55"/>
<stop offset="1" stop-color="#ACC32B"/>
</linearGradient>
<linearGradient id="paint2_linear_68_486" x1="31.5419" y1="40.6264" x2="52.506" y2="40.6264" gradientUnits="userSpaceOnUse">
<stop stop-color="#1EBC55"/>
<stop offset="1" stop-color="#ACC32B"/>
</linearGradient>
<clipPath id="clip0_68_486">
<rect width="56" height="53" fill="white"/>
</clipPath>
</defs>
</svg>
