<svg width="49" height="51" viewBox="0 0 49 51" fill="none" xmlns="http://www.w3.org/2000/svg">
<g clip-path="url(#clip0_68_495)">
<path d="M27.4621 2.60007L30.2919 0.950577C38.1045 -2.21585 47.2251 3.14663 48.7025 11.2763C49.4601 15.4491 48.714 19.3142 47.041 23.1401C43.281 31.7394 38.5991 39.9787 34.8243 48.5796C33.2861 51.7493 29.3076 51.9015 28.1096 48.3194C26.7801 44.3413 29.0496 36.2133 26.4169 33.2236C24.2838 30.8018 21.8977 33.2564 21.4655 35.6439C20.7933 39.3487 22.3003 46.7697 20.2576 49.6302C18.6487 51.8818 15.6595 51.1389 14.4023 48.9854L1.44607 21.9521C-2.60973 12.7785 2.06562 0.644571 13.0022 0.0227394C18.7786 -0.306177 20.6208 2.87335 25.467 4.15792C27.4341 4.67993 30.5647 5.11685 32.54 4.65702C33.5162 4.42956 33.4899 2.88807 32.4349 2.72934C30.7784 2.87007 29.0906 2.97644 27.4621 2.60007ZM8.23479 5.07594C7.71055 5.1954 6.44681 6.38833 6.05241 6.82198C5.09269 7.88236 4.22992 9.3093 3.75006 10.6544C3.48055 11.4088 2.87251 12.7801 3.7287 13.307C5.18143 14.2021 5.39835 11.7999 5.75167 10.931C6.10499 10.062 6.64073 9.16693 7.22412 8.47801C7.67933 7.93964 9.22409 6.78925 9.40814 6.36542C9.75982 5.56195 9.08769 4.88121 8.23479 5.07594Z" fill="url(#paint0_linear_68_495)"/>
</g>
<defs>
<linearGradient id="paint0_linear_68_495" x1="-8.04598e-05" y1="25.4998" x2="48.9999" y2="25.4998" gradientUnits="userSpaceOnUse">
<stop stop-color="#1EBC55"/>
<stop offset="1" stop-color="#ACC32B"/>
</linearGradient>
<clipPath id="clip0_68_495">
<rect width="49" height="51" fill="white"/>
</clipPath>
</defs>
</svg>
