<svg width="50" height="50" viewBox="0 0 50 50" fill="none" xmlns="http://www.w3.org/2000/svg">
<g clip-path="url(#clip0_68_497)">
<path d="M49.9322 37.9821C49.5683 42.7985 46.2857 47.3402 41.9064 49.2959C40.2879 50.0186 40.078 50.0199 38.4595 49.2959C33.848 47.2347 30.7037 42.5954 30.4285 37.5485C30.3098 35.3623 30.2303 31.7842 30.4285 29.6514C30.5485 28.3701 31.2567 28.585 32.1657 28.2699C33.3746 27.8506 34.3566 27.3219 35.2069 26.3402C35.5252 25.973 36.1433 24.7855 36.472 24.6826H43.8913C44.2213 24.7855 44.8394 25.973 45.1563 26.3402C45.6258 26.8818 46.424 27.5186 47.0669 27.8402C48.0972 28.3558 49.4757 28.2008 49.9309 29.3128C49.773 32.1344 50.1421 35.1852 49.9309 37.9808L49.9322 37.9821ZM44.3269 33.0693C43.9813 33.0693 43.624 33.193 43.3527 33.4066L38.8547 37.8792C38.6708 37.9118 37.2088 36.2152 36.7615 35.9977C35.2669 35.2686 33.955 36.9652 34.9657 38.279C35.383 38.8206 37.3145 40.7581 37.8518 41.141C38.7229 41.762 39.2889 41.5277 40.0388 40.9079C41.3704 39.8076 44.173 37.029 45.2542 35.6969C46.1201 34.6292 45.8071 33.068 44.3256 33.0706L44.3269 33.0693Z" fill="url(#paint0_linear_68_497)"/>
<path d="M12.4964 0C13.1159 0.160156 13.7497 0.247396 14.3692 0.416667C16.1533 0.904948 17.8096 1.7487 19.4737 2.52995C21.1952 1.80729 22.8462 0.907552 24.6603 0.416667C25.2798 0.248698 25.9136 0.158854 26.5331 0H27.7029C29.0501 0.518229 28.8492 2.13542 28.7749 3.35938C28.6328 5.6888 27.8542 8.04557 26.7091 10.0599C26.2579 10.8529 25.508 12.2526 24.5377 12.3711C21.3517 12.1315 17.7183 12.681 14.587 12.3737C13.5971 12.276 13.1342 11.3841 12.6503 10.6081C11.3514 8.52344 10.4124 5.92708 10.2546 3.45703C10.1763 2.22917 9.96508 0.515625 11.3266 0L12.4964 0Z" fill="url(#paint1_linear_68_497)"/>
<path d="M13.3467 15.3125L25.7571 15.3359C25.9983 15.4479 26.2266 15.5625 26.4391 15.7253C26.9973 16.1549 28.085 17.4271 28.6314 18.0143C30.2968 19.8047 31.8449 21.7148 33.3107 23.6706C33.4816 24.1159 32.5674 24.8789 32.2022 25.0898C31.5045 25.4948 30.8485 25.5 30.1416 25.7591C28.6262 26.3151 27.6298 27.7708 27.5046 29.3581C27.3181 31.7161 27.3716 35.3516 27.5046 37.7409C27.6885 41.0586 29.0396 44.6003 31.1198 47.1797C31.494 47.6432 32.2179 48.2474 32.4813 48.6445C32.5426 48.737 32.6443 48.7292 32.4813 48.8385C32.1526 49.0599 30.962 49.4167 30.5316 49.5208C29.9004 49.6745 29.084 49.8242 28.4397 49.8659C22.3558 50.2539 15.7503 49.6576 9.6338 49.7513C3.61904 48.7526 -0.263431 43.8177 0.0143536 37.7344C0.384734 29.6172 6.57556 21.806 12.0569 16.263C12.4508 15.8646 12.7872 15.4857 13.348 15.3125H13.3467ZM18.249 32.9661V38.1771C17.1405 38.293 16.2563 36.7956 15.1778 37.4948C14.6718 37.8229 14.5309 38.3919 14.6874 38.9596C14.9339 39.8568 17.3687 40.6198 18.236 40.7227C17.8435 43.5716 21.1534 43.2122 20.6956 40.5234C24.3042 39.7135 25.8314 34.7096 22.8227 32.293C22.1615 31.7617 21.4286 31.5794 20.6865 31.2135V27.1719C21.0986 27.1979 21.3881 27.6797 21.7364 27.8255C22.4915 28.1419 23.3783 27.651 23.4226 26.8333C23.4944 25.4857 21.7703 24.8919 20.6983 24.6276C20.7204 23.6081 20.4635 22.7018 19.2689 22.7839C18.1291 22.8633 18.2543 23.8815 18.2047 24.7409C15.8664 25.3958 14.4683 27.8138 15.1999 30.1693C15.676 31.7044 16.9827 32.2109 18.249 32.9661Z" fill="url(#paint2_linear_68_497)"/>
<path d="M20.6852 37.8841V33.8906C22.4275 34.4792 22.2932 36.7344 20.9786 37.7383C20.8808 37.8138 20.856 37.9258 20.6852 37.8841Z" fill="url(#paint3_linear_68_497)"/>
<path d="M18.249 27.4639V30.0928C17.0766 29.8167 17.2878 27.8389 18.249 27.4639Z" fill="url(#paint4_linear_68_497)"/>
</g>
<defs>
<linearGradient id="paint0_linear_68_497" x1="30.3098" y1="37.262" x2="50" y2="37.262" gradientUnits="userSpaceOnUse">
<stop stop-color="#1EBC55"/>
<stop offset="1" stop-color="#ACC32B"/>
</linearGradient>
<linearGradient id="paint1_linear_68_497" x1="10.1946" y1="6.23437" x2="28.8323" y2="6.23437" gradientUnits="userSpaceOnUse">
<stop stop-color="#1EBC55"/>
<stop offset="1" stop-color="#ACC32B"/>
</linearGradient>
<linearGradient id="paint2_linear_68_497" x1="7.92643e-06" y1="32.6562" x2="33.3329" y2="32.6562" gradientUnits="userSpaceOnUse">
<stop stop-color="#1EBC55"/>
<stop offset="1" stop-color="#ACC32B"/>
</linearGradient>
<linearGradient id="paint3_linear_68_497" x1="20.6852" y1="35.8932" x2="21.9802" y2="35.8932" gradientUnits="userSpaceOnUse">
<stop stop-color="#1EBC55"/>
<stop offset="1" stop-color="#ACC32B"/>
</linearGradient>
<linearGradient id="paint4_linear_68_497" x1="17.447" y1="28.779" x2="18.249" y2="28.779" gradientUnits="userSpaceOnUse">
<stop stop-color="#1EBC55"/>
<stop offset="1" stop-color="#ACC32B"/>
</linearGradient>
<clipPath id="clip0_68_497">
<rect width="50" height="50" fill="white"/>
</clipPath>
</defs>
</svg>
