<svg width="53" height="62" viewBox="0 0 53 62" fill="none" xmlns="http://www.w3.org/2000/svg">
<g clip-path="url(#clip0_68_507)">
<path d="M27.2268 62.0004H26.0171C23.7768 61.1089 21.6545 59.8291 19.6194 58.538C13.3816 54.5823 4.97632 47.8712 1.93658 41.0096C-0.833425 34.7547 -0.101755 21.5623 0.889956 14.7282C1.05309 13.6103 1.49403 10.3874 2.0238 9.56709C2.34683 9.06715 3.35147 8.31806 3.89416 8.04949C7.15195 6.43643 11.9474 4.93824 15.4684 3.65686C18.5792 2.52432 22.0745 1.11512 25.2273 0.231738C26.3886 -0.0934623 26.7423 -0.061104 27.8939 0.233356C31.0661 1.04555 34.7987 2.60198 37.9289 3.74584C41.4209 5.02238 45.966 6.4607 49.2286 8.04949C50.9035 8.86492 51.4381 9.81463 51.7499 11.5798C53.0048 18.6808 53.3586 28.0113 52.6156 35.1754C51.766 43.3572 46.268 48.9018 40.1514 53.8137C36.2136 56.9768 31.809 59.8712 27.2268 62.0004ZM37.4734 17.3444C36.6965 17.4512 35.8599 17.8977 35.2623 18.4009L22.8126 31.4817C19.8827 29.1018 16.8865 22.9861 12.3189 25.6944C10.0205 27.0583 9.24843 30.0854 10.904 32.2696C13.3413 35.486 17.3533 38.4161 19.9812 41.5856C23.2148 43.9024 25.1804 42.2166 27.4707 39.9029C30.0727 37.2755 32.5326 34.4668 35.0814 31.7826C37.1859 29.5661 40.2596 26.9289 42.0266 24.57C44.501 21.2646 41.3999 16.8072 37.4734 17.346V17.3444Z" fill="url(#paint0_linear_68_507)"/>
</g>
<defs>
<linearGradient id="paint0_linear_68_507" x1="2.1535e-07" y1="31.0012" x2="53" y2="31.0012" gradientUnits="userSpaceOnUse">
<stop stop-color="#1EBC55"/>
<stop offset="1" stop-color="#ACC32B"/>
</linearGradient>
<clipPath id="clip0_68_507">
<rect width="53" height="62" fill="white"/>
</clipPath>
</defs>
</svg>
