<svg version="1.2" xmlns="http://www.w3.org/2000/svg" width="86" height="96"><style>.a{fill:#00a551}</style><path fill-rule="evenodd" class="a" d="M65.7 45.6v4.9c0 .9-.7 1.7-1.6 1.8l-5.6.6c-.2.1-.3.2-.4.4-.2.7-.5 1.3-.8 1.9-.1.2 0 .4.1.6l3.6 4.4c.6.7.5 1.8-.1 2.4L57.5 66c-.7.6-1.7.7-2.4.1l-4.4-3.6c-.2-.2-.4-.2-.6-.1-.6.3-1.3.6-1.9.8-.2 0-.4.2-.4.4l-.6 5.6c-.1.9-.9 1.6-1.8 1.6h-4.9c-.9 0-1.7-.7-1.8-1.6l-.6-5.6c-.1-.2-.2-.3-.4-.4-.7-.2-1.3-.5-1.9-.8-.2-.1-.4 0-.6.1l-4.4 3.6c-.7.6-1.8.5-2.4-.1L25 62.6c-.6-.7-.7-1.7-.1-2.4l3.6-4.4c.2-.2.2-.4.1-.6-.3-.6-.6-1.3-.8-1.9 0-.2-.2-.4-.4-.4l-5.6-.6c-.9-.1-1.6-.9-1.6-1.8v-4.9c0-.9.7-1.7 1.6-1.8l5.6-.6c.2-.1.3-.2.4-.4.2-.7.5-1.3.8-1.9.1-.2 0-.4-.1-.6l-3.6-4.4c-.6-.7-.5-1.8.1-2.4l3.4-3.4c.7-.6 1.7-.7 2.4-.1l4.4 3.6c.2.2.4.2.6.1.6-.3 1.3-.6 1.9-.8.2 0 .4-.2.4-.4l.6-5.6c.1-.9.9-1.6 1.8-1.6h4.9c.9 0 1.7.7 1.8 1.6l.6 5.6c.1.2.2.3.4.4.7.2 1.3.5 1.9.8.2.1.4 0 .6-.1l4.4-3.6c.7-.6 1.8-.5 2.4.1l3.4 3.4c.6.7.7 1.7.1 2.4l-3.6 4.4c-.2.2-.2.4-.1.6.3.6.6 1.3.8 1.9 0 .2.2.4.4.4l5.6.6c.9.1 1.5.9 1.6 1.8zM53.3 48c0-5.7-4.6-10.3-10.3-10.3-5.7 0-10.3 4.6-10.3 10.3 0 5.7 4.6 10.3 10.3 10.3 5.7 0 10.3-4.6 10.3-10.3z"/><path class="a" d="M43 54.3c-3.5 0-6.3-2.8-6.3-6.3s2.8-6.3 6.3-6.3 6.3 2.8 6.3 6.3-2.8 6.3-6.3 6.3z"/><path fill-rule="evenodd" class="a" d="M85.3 67.6c0 4.7-3.8 8.5-8.5 8.5-2.3 0-4.5-1-6-2.5L51.2 84.9c.2.7.3 1.4.3 2.2 0 4.7-3.8 8.5-8.5 8.5s-8.5-3.8-8.5-8.5c0-.8.1-1.5.3-2.2L15.2 73.6c-1.5 1.6-3.7 2.5-6 2.5-4.7 0-8.5-3.8-8.5-8.5 0-3.9 2.7-7.2 6.3-8.2V36.7c-3.6-1-6.3-4.3-6.3-8.2 0-4.7 3.8-8.5 8.5-8.5 2.3 0 4.5 1 6 2.5l19.6-11.3c-.2-.7-.3-1.4-.3-2.2 0-4.7 3.8-8.5 8.5-8.5s8.5 3.8 8.5 8.5c0 .8-.1 1.5-.3 2.2l19.6 11.3c1.5-1.6 3.7-2.5 6-2.5 4.7 0 8.5 3.8 8.5 8.5 0 3.9-2.7 7.2-6.3 8.2v22.6c3.6 1 6.3 4.3 6.3 8.3zM49 81l19.6-11.2c-.2-.7-.3-1.4-.3-2.2 0-3.9 2.7-7.2 6.3-8.2V36.7c-3.6-1-6.3-4.3-6.3-8.2 0-.8.1-1.5.3-2.2L49 15c-1.5 1.6-3.7 2.5-6 2.5s-4.5-1-6-2.5L17.4 26.3c.2.7.3 1.4.3 2.2 0 3.9-2.7 7.2-6.3 8.2v22.6c3.6 1 6.3 4.3 6.3 8.2 0 .8-.1 1.5-.3 2.2L37 81c1.5-1.6 3.7-2.5 6-2.5s4.5.9 6 2.5z"/></svg>