<svg version="1.2" xmlns="http://www.w3.org/2000/svg" width="74" height="90"><path fill-rule="evenodd" d="M27.4 71.3c.6.2 1.2.5 1.8.8L21.9 90l-3-10.6c-.2-.7-.9-1.1-1.6-.9-.1 0-.2.1-.3.1L7.4 84l7-17.1c.7 1.3 1.7 2.4 2.9 3.2 1.9 1.1 4 1 6.2.9 1.3 0 2.6 0 3.9.3zm32.2-4.4l7 17.1-9.6-5.4c-.1 0-.2-.1-.3-.1-.7-.2-1.4.2-1.6.9l-3 10.6-7.3-17.9c.6-.3 1.2-.6 1.8-.8 1.3-.2 2.6-.3 3.9-.2 2.2.1 4.3.2 6.2-.9 1.2-.8 2.2-1.9 2.9-3.3zm13.8-30.5c0 1.6-1 3.2-2 4.8-.9 1.3-1.6 2.7-2.1 4.1-.3 1.5-.4 3.1-.3 4.7.1 1.8.1 3.6-.6 4.8-.7 1.2-2.3 2-3.9 2.8-1.4.6-2.7 1.5-3.9 2.5-1 1.2-1.9 2.5-2.5 3.9-.8 1.6-1.6 3.2-2.8 3.9-1.2.7-3 .6-4.8.6-1.6-.1-3.2 0-4.7.3-1.2.4-2.3.9-3.4 1.6l-.1.1c-.2.1-.4.3-.6.4-1.6 1-3.2 2-4.8 2-1.6 0-3.2-1-4.8-2-.2-.1-.4-.3-.6-.4l-.1-.1c-1-.7-2.2-1.2-3.4-1.6-1.5-.3-3.1-.4-4.7-.3-1.8.1-3.6.1-4.8-.6-1.2-.7-2-2.3-2.8-3.9-.6-1.4-1.5-2.7-2.5-3.9-1.2-1-2.5-1.9-3.9-2.5-1.6-.8-3.2-1.6-3.9-2.8-.7-1.2-.6-3-.6-4.8.1-1.6 0-3.2-.3-4.7-.5-1.5-1.2-2.9-2.1-4.1-1-1.6-2-3.2-2-4.8 0-1.6 1-3.2 2-4.8.9-1.3 1.6-2.7 2.1-4.1.3-1.5.4-3.1.3-4.7-.1-1.8-.1-3.6.6-4.8.7-1.2 2.3-2 3.9-2.8 1.4-.6 2.7-1.5 3.9-2.5 1-1.2 1.9-2.5 2.5-3.9.8-1.6 1.6-3.2 2.8-3.9 1.2-.7 3-.6 4.8-.6 1.6.1 3.2 0 4.7-.3 1.5-.5 2.9-1.2 4.1-2.1 1.6-1 3.2-2 4.8-2 1.6 0 3.2 1 4.8 2 1.3.9 2.7 1.6 4.1 2.1 1.5.3 3.1.4 4.7.3 1.8-.1 3.6-.1 4.8.6 1.2.7 2 2.3 2.8 3.9.6 1.4 1.5 2.7 2.5 3.9 1.2 1 2.5 1.9 3.9 2.5 1.6.8 3.2 1.6 3.9 2.8.7 1.2.6 3 .6 4.8-.1 1.6 0 3.2.3 4.7.5 1.5 1.2 2.9 2.1 4.1 1 1.7 2 3.3 2 4.8zm-13.1 0c0-12.9-10.4-23.3-23.3-23.3S13.7 23.5 13.7 36.4 24.1 59.8 37 59.8c6.2 0 12.1-2.5 16.5-6.8 4.4-4.4 6.8-10.4 6.8-16.6zm-7.6-6c.4.5.4 1.3-.2 1.8l-7.8 6.5 2.5 9.9c.1.4 0 .8-.2 1.1-.4.6-1.2.7-1.8.3l-8.5-5.4-8.6 5.4c-.3.2-.7.3-1 .2-.7-.2-1.1-.9-.9-1.6l2.5-9.9-7.8-6.5c-.3-.3-.5-.6-.5-1 0-.7.6-1.3 1.3-1.3l10.1-.6 3.8-9.5c.1-.3.4-.6.7-.7.7-.3 1.4 0 1.7.7l3.7 9.4 10.2.7c.4.1.7.2.8.5z" fill="#00a551"/></svg>