<svg version="1.2" xmlns="http://www.w3.org/2000/svg" width="58" height="66"><style>.a{fill:#00a551}</style><path class="a" d="M27 36.3c-.4 0-.7-.1-1-.4l-2-2c-.6-.6-.6-1.5 0-2 .3-.3.6-.4 1-.4s.7.1 1 .4l1 1 4.9-4.9c.3-.3.6-.4 1-.4s.7.1 1 .4c.3.3.4.6.4 1s-.2.7-.4 1L28 35.9c-.3.3-.6.4-1 .4z"/><path fill-rule="evenodd" class="a" d="M29 11.6c3.9 3.1 10.3 6.7 19.1 8-.3 9.8-2.8 30.8-19.1 36.7-16.4-5.8-18.9-26.9-19.2-36.6 8.9-1.3 15.2-4.9 19.2-8.1zm4.4 11.2c-1.6 0-3.1.5-4.4 1.5-1.2-1-2.8-1.5-4.4-1.5-6.4 0-9.6 7.8-5.1 12.3l8.9 8.9c.1.2.4.3.6.3q.3 0 .6-.3l8.9-8.9c4.5-4.5 1.3-12.3-5.1-12.3z"/><path fill-rule="evenodd" class="a" d="M29.2 66h-.6C-2.6 57.3.7 12.9.7 12.4c.1-.5.5-.9 1-.9C19.3 11.3 28 .5 28.1.4c.4-.5 1.2-.5 1.6 0 .1.1 8.8 11 26.4 11.1.5 0 1 .4 1 .9.1.4 3.4 44.9-27.9 53.6zm22.1-47.9c0-.5-.4-.9-.9-1-9.8-1.3-16.7-5.4-20.8-8.6-.3-.3-.8-.3-1.2 0-4.1 3.2-11 7.3-20.8 8.6-.5.1-.9.5-.9 1 .2 10.3 2.7 34.9 22 41.6.1.1.2.1.3.1.1 0 .2-.1.3-.1C48.5 53 51 28.4 51.3 18.1z"/></svg>