<svg width="46" height="55" viewBox="0 0 46 55" fill="none" xmlns="http://www.w3.org/2000/svg">
<g clip-path="url(#clip0_68_492)">
<path d="M23.4263 55H22.5666C14.1301 52.2278 5.93623 46.4996 2.27633 38.1757C-1.38358 29.8518 0.72625 19.1445 0.107654 9.93817C0.139229 9.25085 0.513832 8.70558 1.02622 8.27798L22.2924 0.109053L23.0517 0C30.4217 2.53548 37.7143 5.42395 44.9666 8.27798C45.3527 8.61662 45.667 8.96961 45.8063 9.479C45.6742 15.9648 46.2354 22.8122 45.8795 29.275C45.4647 36.7767 41.6311 43.505 35.9403 48.2315C32.2732 51.2764 27.9445 53.5005 23.4263 55.0014V55ZM41.3498 11.7318L23.0316 4.75959L4.63876 11.7289L4.6201 27.8831C4.78946 36.8413 10.1301 43.8852 17.7671 48.0364C18.6411 48.5113 22.3771 50.3495 23.1478 50.272C23.62 50.2246 25.3897 49.4268 25.9365 49.1843C34.6371 45.3129 41.2034 37.7768 41.3727 27.8831L41.3498 11.7318Z" fill="url(#paint0_linear_68_492)"/>
<path d="M27.6158 22.8849H33.0411C33.3411 22.8849 34.2984 23.2092 34.6027 23.3642C38.2252 25.2009 37.1316 32.1229 33.0411 32.1229H27.6158V37.5468C27.6158 37.8467 27.2915 38.8038 27.1365 39.108C25.2993 42.7297 18.3756 41.6363 18.3756 37.5468V32.1229H12.9504C12.6188 32.1229 11.6457 31.7799 11.3199 31.6049C7.77626 29.7036 8.89002 22.8849 12.9504 22.8849H18.3756V17.461C18.3756 17.1611 18.7 16.204 18.855 15.8998C20.6921 12.2781 27.6158 13.3715 27.6158 17.461V22.8849Z" fill="url(#paint1_linear_68_492)"/>
</g>
<defs>
<linearGradient id="paint0_linear_68_492" x1="9.46909e-06" y1="27.5" x2="46" y2="27.5" gradientUnits="userSpaceOnUse">
<stop stop-color="#1EBC55"/>
<stop offset="1" stop-color="#ACC32B"/>
</linearGradient>
<linearGradient id="paint1_linear_68_492" x1="9.19286" y1="27.5039" x2="36.8" y2="27.5039" gradientUnits="userSpaceOnUse">
<stop stop-color="#1EBC55"/>
<stop offset="1" stop-color="#ACC32B"/>
</linearGradient>
<clipPath id="clip0_68_492">
<rect width="46" height="55" fill="white"/>
</clipPath>
</defs>
</svg>
