<svg width="55" height="50" viewBox="0 0 55 50" fill="none" xmlns="http://www.w3.org/2000/svg">
<g clip-path="url(#clip0_68_509)">
<path d="M2.24102e-05 35.4807C0.654091 33.1771 2.51808 31.2252 4.9282 30.7854C5.09226 30.7553 5.76251 30.651 5.87045 30.651H28.33C28.3268 30.4853 27.8994 30.4154 27.8994 30.1681V26.4654C30.4746 27.044 33.0812 26.6052 34.1454 23.9413C35.2895 23.9897 36.9095 23.324 37.0606 24.9028C37.134 25.6642 37.1437 29.7551 36.9236 30.2509C36.8502 30.4165 36.6807 30.4918 36.6246 30.651H40.2867C40.2662 30.466 40.0428 30.5262 39.9327 30.3057C39.8593 30.1584 39.8658 30.0089 39.8507 29.8508C39.7395 28.6679 39.7158 25.8459 39.8528 24.692C39.8993 24.3038 40.127 23.9123 40.5501 23.8843C42.9818 24.0629 45.706 23.665 48.101 23.8843C48.6957 23.9392 48.9407 24.1855 49.0141 24.7995C49.0951 25.4771 49.0907 29.7272 48.9116 30.1767C48.8296 30.3843 48.673 30.4714 48.5802 30.651C56.8813 30.8338 57.2558 42.4377 48.9623 43.1077L5.76251 43.1012C2.96168 42.8506 0.73396 40.9536 -0.00213623 38.2725V35.4818L2.24102e-05 35.4807ZM7.32537 34.9441H5.65566C5.32647 34.9441 4.6152 35.584 4.43495 35.8743C4.14785 36.3357 4.11547 37.0025 4.25254 37.523C4.36156 37.9381 5.23473 38.8081 5.65566 38.8081H7.21744C7.0836 38.4188 6.76304 38.1478 6.62597 37.7337C6.28275 36.6917 6.57956 35.7238 7.32537 34.9441ZM16.4812 34.9441H10.9875C11.7333 35.7227 12.0301 36.6917 11.6869 37.7337C11.5498 38.1478 11.2293 38.4188 11.0954 38.8081H16.3733C16.2395 38.4188 15.9189 38.1478 15.7818 37.7337C15.4386 36.6917 15.7354 35.7238 16.4812 34.9441ZM25.6382 34.9441H20.1445C20.8903 35.7227 21.1871 36.6917 20.8439 37.7337C20.7068 38.1478 20.3862 38.4188 20.2524 38.8081H25.5303C25.3964 38.4188 25.0759 38.1478 24.9388 37.7337C24.5956 36.6917 24.8924 35.7238 25.6382 34.9441ZM34.7941 34.9441H29.3003C30.0461 35.7227 30.343 36.6917 29.9997 37.7337C29.8627 38.1478 29.5421 38.4188 29.4083 38.8081H34.6861C34.5523 38.4188 34.2317 38.1478 34.0947 37.7337C33.7514 36.6917 34.0483 35.7238 34.7941 34.9441ZM43.9499 34.9441H38.4562C39.202 35.7227 39.4988 36.6917 39.1556 37.7337C39.0185 38.1478 38.698 38.4188 38.5641 38.8081H43.842C43.7082 38.4188 43.3876 38.1478 43.2505 37.7337C42.9073 36.6917 43.2041 35.7238 43.9499 34.9441ZM47.7211 38.8081H49.2829C49.6121 38.8081 50.3233 38.1682 50.5036 37.8779C50.7907 37.4165 50.8231 36.7497 50.686 36.2292C50.577 35.8141 49.7038 34.9441 49.2829 34.9441H47.6132C48.359 35.7238 48.6558 36.6917 48.3126 37.7337C48.1755 38.1478 47.8549 38.4188 47.7211 38.8081Z" fill="url(#paint0_linear_68_509)"/>
<path d="M13.5724 28.6111H8.7252C8.61511 27.8228 8.56115 26.9979 8.61943 26.1978C8.95834 21.5648 10.315 16.592 10.7781 11.9268C11.3533 10.3018 12.383 9.75983 14.0635 9.82328C15.2519 9.86737 19.0349 10.3373 20.0365 10.7417C22.0688 11.5612 21.9825 13.5916 21.6522 15.4101L19.8757 13.6938L19.8239 13.8529L23.2064 19.1763L30.9948 20.3238C33.5194 21.5982 32.6041 24.9137 29.6791 24.746C27.7105 24.633 25.1233 24.1738 23.1223 23.8738C21.7515 23.6684 20.8006 23.7673 19.8821 22.594L15.9437 16.377L18.3279 23.82C18.6722 24.5814 19.3986 25.2761 20.2513 25.3934L19.8195 28.6111L14.9648 28.5637L13.5724 28.6111Z" fill="url(#paint1_linear_68_509)"/>
<path d="M19.7991 8.78842C22.2347 8.78842 24.2092 6.82107 24.2092 4.39421C24.2092 1.96736 22.2347 0 19.7991 0C17.3634 0 15.389 1.96736 15.389 4.39421C15.389 6.82107 17.3634 8.78842 19.7991 8.78842Z" fill="url(#paint2_linear_68_509)"/>
<path d="M11.0954 45.248C10.3777 46.5041 9.96106 48.9852 8.62378 49.7079C7.10086 50.5316 5.19154 49.4562 5.07066 47.7549C5.01669 47.001 5.59521 45.8998 5.97945 45.248H11.0965H11.0954Z" fill="url(#paint3_linear_68_509)"/>
<path d="M21.5443 45.248C21.9858 47.3559 21.6987 50.5381 18.737 49.9229C16.5719 49.4734 16.8773 46.9311 16.804 45.248H21.5433H21.5443Z" fill="url(#paint4_linear_68_509)"/>
</g>
<defs>
<linearGradient id="paint0_linear_68_509" x1="2.24101e-05" y1="33.4611" x2="55" y2="33.4611" gradientUnits="userSpaceOnUse">
<stop stop-color="#1EBC55"/>
<stop offset="1" stop-color="#ACC32B"/>
</linearGradient>
<linearGradient id="paint1_linear_68_509" x1="8.59569" y1="19.2139" x2="32.4638" y2="19.2139" gradientUnits="userSpaceOnUse">
<stop stop-color="#1EBC55"/>
<stop offset="1" stop-color="#ACC32B"/>
</linearGradient>
<linearGradient id="paint2_linear_68_509" x1="15.389" y1="4.39421" x2="24.2092" y2="4.39421" gradientUnits="userSpaceOnUse">
<stop stop-color="#1EBC55"/>
<stop offset="1" stop-color="#ACC32B"/>
</linearGradient>
<linearGradient id="paint3_linear_68_509" x1="5.06634" y1="47.6194" x2="11.0954" y2="47.6194" gradientUnits="userSpaceOnUse">
<stop stop-color="#1EBC55"/>
<stop offset="1" stop-color="#ACC32B"/>
</linearGradient>
<linearGradient id="paint4_linear_68_509" x1="16.805" y1="47.6247" x2="21.7095" y2="47.6247" gradientUnits="userSpaceOnUse">
<stop stop-color="#1EBC55"/>
<stop offset="1" stop-color="#ACC32B"/>
</linearGradient>
<clipPath id="clip0_68_509">
<rect width="55" height="50" fill="white"/>
</clipPath>
</defs>
</svg>
