<svg width="55" height="29" viewBox="0 0 55 29" fill="none" xmlns="http://www.w3.org/2000/svg">
<g clip-path="url(#clip0_68_490)">
<path d="M0 8.92743C0.502322 7.19107 1.63327 7.37423 2.86754 6.83218C4.38312 6.16652 3.17324 4.63566 3.21917 3.52772C3.2651 2.41978 4.0071 1.66924 4.96438 1.3178C5.78245 1.0155 9.33746 -0.0179812 10.045 -0.000111183C10.8143 0.019248 11.6654 0.600022 12.0041 1.32078C13.0389 3.52474 13.1924 7.09576 14.1267 9.37269C14.2085 9.57224 14.4927 9.95793 14.6865 10.0175C15.3883 10.2319 17.7047 9.31462 18.5845 9.09124C24.7832 7.52315 31.0306 7.68398 37.1948 9.29228C38.2554 9.56926 40.3078 10.7666 40.879 9.37269C41.8076 7.10767 41.9726 3.59622 42.9529 1.38034C43.2959 0.601511 44.2446 -0.0179812 45.0669 -0.000111183C45.8477 0.0177588 49.1774 0.997629 50.0399 1.31482C50.9986 1.66775 51.7392 2.41531 51.7851 3.52474C51.8311 4.63417 50.6628 6.12036 52.0621 6.79495C53.15 7.31913 54.1331 7.00343 54.7761 8.4375C55.2354 9.46055 54.8838 10.1754 54.6512 11.1791C53.6265 15.6063 52.3133 20.0024 51.158 24.3865C50.7245 25.1906 49.8663 25.682 48.9664 25.621C47.9574 25.5525 46.7303 24.516 46.0974 25.9367C45.8219 26.5562 45.8463 27.3276 45.4415 27.9322C45.0368 28.5368 44.2733 28.985 43.56 28.9984C42.9859 29.0088 38.7047 27.8041 38.1105 27.5107C37.0628 26.9925 36.7341 25.9858 36.8733 24.8377C37.1977 22.178 38.8367 18.8274 39.0893 16.2139C39.1754 15.3219 38.9946 14.9347 38.2181 14.5773C35.7682 13.45 31.2172 12.8022 28.5233 12.7084C25.3989 12.5997 19.5231 13.246 16.6986 14.6056C15.9739 14.9541 15.8275 15.3964 15.9078 16.2124C16.1619 18.8304 17.8023 22.1795 18.1238 24.8362C18.3003 26.2911 17.7923 27.1503 16.4891 27.6522C15.5619 28.0096 12.6542 28.8867 11.7472 28.9761C10.8401 29.0654 9.91584 28.5904 9.46519 27.8011C9.08055 27.128 9.1193 25.7029 8.41605 25.3231C7.66401 24.9181 6.79714 25.5659 6.03217 25.618C5.1323 25.6791 4.27548 25.1876 3.84061 24.3835L0 9.92964V8.92594V8.92743Z" fill="url(#paint0_linear_68_490)"/>
</g>
<defs>
<linearGradient id="paint0_linear_68_490" x1="0" y1="14.4999" x2="55" y2="14.4999" gradientUnits="userSpaceOnUse">
<stop stop-color="#1EBC55"/>
<stop offset="1" stop-color="#ACC32B"/>
</linearGradient>
<clipPath id="clip0_68_490">
<rect width="55" height="29" fill="white"/>
</clipPath>
</defs>
</svg>
