<svg width="51" height="56" viewBox="0 0 51 56" fill="none" xmlns="http://www.w3.org/2000/svg">
<g clip-path="url(#clip0_68_482)">
<path d="M18.9013 0C19.5356 0.297969 20.2074 0.496111 20.8177 0.856093C23.7733 2.60004 23.118 5.7446 22.2048 8.52614C21.3965 10.984 20.125 13.2861 19.2552 15.7213C18.4395 18.0067 17.6298 20.5099 18.6839 22.8574C10.585 20.6703 16.0808 12.1623 17.9012 7.24805C18.7214 5.03522 19.7456 2.27787 18.6854 0.00151253H18.9028L18.9013 0Z" fill="url(#paint0_linear_68_482)"/>
<path d="M42.3193 29.3099C49.7539 29.1889 53.2822 36.204 49.412 42.5324C46.6349 47.0746 41.2516 49.6081 36.0333 49.7079C34.0749 52.1748 31.8571 54.5465 28.9916 55.9471L13.6365 56C5.0908 51.8844 0.878666 40.9473 0.145403 31.8782C0.0779246 31.0463 -0.129009 28.4296 0.118411 27.8064C0.274361 27.4147 0.769201 27.2226 1.16957 27.2271H41.1871C42.4482 27.3466 42.3537 28.2753 42.3193 29.3099ZM7.35507 32.9748C6.72227 32.9748 6.20494 33.4648 6.11797 34.0774C5.82257 36.1707 6.9547 41.8473 8.07484 43.6759C8.69864 44.6939 10.2761 44.4594 10.4396 43.2449C10.5235 42.6187 9.69281 40.9534 9.46639 40.1941C9.09601 38.9477 8.86358 37.656 8.71063 36.3643C8.62516 35.6519 8.71363 34.4207 8.52919 33.8127C8.38374 33.3317 7.83791 32.9763 7.35357 32.9763L7.35507 32.9748ZM38.9603 44.6197C41.5215 43.8968 44.1936 42.3283 45.5522 39.9506C46.9108 37.5729 46.6843 34.6159 43.5399 34.0396C43.2879 33.9927 42.0538 33.8566 41.9384 34.0108C41.7944 34.2044 41.505 36.4763 41.4001 36.9663C40.8287 39.5981 39.9605 42.1331 38.9603 44.6213V44.6197ZM11.3948 45.3019C10.1622 45.37 9.85776 46.5633 10.5565 47.5147C11.0979 48.2528 13.5061 50.3386 14.3938 50.3008C14.9756 50.2751 15.5754 49.7185 15.6264 49.1331C15.7254 47.9821 14.2828 47.5344 13.5391 46.9127C12.9468 46.4181 12.221 45.255 11.3963 45.3004L11.3948 45.3019Z" fill="url(#paint1_linear_68_482)"/>
<path d="M26.8143 23.1856C21.56 21.4674 25.3463 16.166 26.7258 12.9791C27.3991 11.4257 27.8655 10.3382 27.7905 8.58516C27.783 8.42634 27.5266 7.88939 27.8415 7.9862C32.8558 9.51688 28.7457 15.3265 27.5536 18.1897C26.8953 19.7703 26.2055 21.4659 26.8128 23.1856H26.8143Z" fill="url(#paint2_linear_68_482)"/>
</g>
<defs>
<linearGradient id="paint0_linear_68_482" x1="14.3848" y1="11.4287" x2="22.974" y2="11.4287" gradientUnits="userSpaceOnUse">
<stop stop-color="#1EBC55"/>
<stop offset="1" stop-color="#ACC32B"/>
</linearGradient>
<linearGradient id="paint1_linear_68_482" x1="-5.0222e-05" y1="41.6128" x2="51" y2="41.6128" gradientUnits="userSpaceOnUse">
<stop stop-color="#1EBC55"/>
<stop offset="1" stop-color="#ACC32B"/>
</linearGradient>
<linearGradient id="paint2_linear_68_482" x1="24.1137" y1="15.5791" x2="30.2737" y2="15.5791" gradientUnits="userSpaceOnUse">
<stop stop-color="#1EBC55"/>
<stop offset="1" stop-color="#ACC32B"/>
</linearGradient>
<clipPath id="clip0_68_482">
<rect width="51" height="56" fill="white"/>
</clipPath>
</defs>
</svg>
