<svg width="57" height="51" viewBox="0 0 57 51" fill="none" xmlns="http://www.w3.org/2000/svg">
<g clip-path="url(#clip0_68_515)">
<path d="M0 19.5029C0.838826 19.8315 1.65088 20.2533 2.45178 20.6639C10.337 24.713 18.1195 29.0041 26.0482 32.9655C26.655 33.2685 27.9557 34.0433 28.5569 34.0255C29.1068 34.0089 30.7878 33.0477 31.3968 32.7435C39.3311 28.7921 47.0858 24.45 54.9933 20.4419C55.6481 20.1101 56.3084 19.7516 57 19.5029V49.9111C57 50.3152 56.3832 50.9068 55.9794 51H1.02065C0.4618 50.8113 0.225323 50.4805 0 49.9666V19.5029Z" fill="url(#paint0_linear_68_515)"/>
<path d="M48.4099 20.7039L28.6127 30.9776L8.5913 20.7039L8.56787 1.38522C8.58349 0.761426 8.99844 0.266388 9.57178 0.0577174L47.0423 0C47.7584 0.022199 48.3452 0.568295 48.4311 1.27644L48.4099 20.7028V20.7039ZM29.9479 8.53552V6.81842C29.9479 6.40996 29.2552 5.79505 28.8414 5.70181C27.1035 5.31444 26.8837 7.29681 27.0533 8.53552C21.4157 8.89403 21.3053 16.6615 27.215 17.0699C28.1977 17.1376 30.1855 16.7991 30.8938 17.3974C31.7371 18.1077 31.3333 19.6572 30.2178 19.8282C28.4944 20.0923 26.1319 19.6716 24.3204 19.8304C23.3488 19.9158 22.6762 20.5174 22.829 21.5441C22.8993 22.017 23.5195 22.7151 23.9913 22.7151H27.0533V24.3212C27.0533 24.6198 27.6188 25.3368 27.9378 25.4345C29.7895 26.0039 30.1286 24.0981 29.9535 22.7196C33.9937 22.613 35.7851 17.495 32.4989 15.0243C30.5636 13.5691 28.6897 14.5625 26.7119 14.1363C25.2607 13.8233 25.1559 11.4847 27.3277 11.2993C29.1169 11.1461 31.2708 11.5157 33.0121 11.306C34.5882 11.1162 34.6061 8.72754 32.8972 8.5333C31.9769 8.42896 30.8871 8.60988 29.9468 8.5333L29.9479 8.53552Z" fill="url(#paint1_linear_68_515)"/>
<path d="M51.3223 14.1855L55.6636 16.9538L51.3223 19.1703V14.1855Z" fill="url(#paint2_linear_68_515)"/>
<path d="M5.67767 19.1703L1.3363 16.9538L5.67767 14.1855V19.1703Z" fill="url(#paint3_linear_68_515)"/>
</g>
<defs>
<linearGradient id="paint0_linear_68_515" x1="0" y1="35.2509" x2="57" y2="35.2509" gradientUnits="userSpaceOnUse">
<stop stop-color="#1EBC55"/>
<stop offset="1" stop-color="#ACC32B"/>
</linearGradient>
<linearGradient id="paint1_linear_68_515" x1="8.56676" y1="15.4882" x2="48.4299" y2="15.4882" gradientUnits="userSpaceOnUse">
<stop stop-color="#1EBC55"/>
<stop offset="1" stop-color="#ACC32B"/>
</linearGradient>
<linearGradient id="paint2_linear_68_515" x1="51.3223" y1="16.6785" x2="55.6636" y2="16.6785" gradientUnits="userSpaceOnUse">
<stop stop-color="#1EBC55"/>
<stop offset="1" stop-color="#ACC32B"/>
</linearGradient>
<linearGradient id="paint3_linear_68_515" x1="1.3363" y1="16.6785" x2="5.67767" y2="16.6785" gradientUnits="userSpaceOnUse">
<stop stop-color="#1EBC55"/>
<stop offset="1" stop-color="#ACC32B"/>
</linearGradient>
<clipPath id="clip0_68_515">
<rect width="57" height="51" fill="white"/>
</clipPath>
</defs>
</svg>
