<svg width="72" height="73" viewBox="0 0 72 73" fill="none" xmlns="http://www.w3.org/2000/svg">
<path d="M54.7482 1.24242C46.442 0.140754 38.6897 6.47536 38.6897 15.8396C38.6897 35.3942 40.074 36.4959 39.7973 50.2668L38.9666 56.8769C38.4129 62.3852 39.2434 71.1986 48.657 72.3002C60.0086 73.6773 62.5005 65.4148 63.0542 60.4573C63.0542 60.4573 65.2692 51.093 65.546 47.5126C67.2072 37.0467 69.9759 34.0171 71.0835 25.4791C73.2983 14.187 69.4222 2.89493 54.7482 1.24242ZM64.7155 38.9746C64.1616 41.7288 63.8848 43.1059 62.2236 45.5847C57.7936 52.1947 53.3638 44.483 57.7936 44.2076C65.8229 43.6568 63.0542 26.3054 55.025 13.3608C48.657 19.6955 40.9047 32.64 46.442 40.9027C49.7645 45.5847 43.3966 48.3389 42.5659 41.7288C42.289 39.5254 41.7353 36.4959 42.289 30.7121C42.8427 26.0301 46.9959 12.81 55.3019 9.22954C65.2692 15.5642 65.8229 35.1189 64.7155 38.9746Z" fill="white"/>
<path d="M0.481928 25.755C1.86627 34.293 4.35809 37.3226 6.01931 47.7885C6.57305 51.3689 8.51112 60.7332 8.51112 60.7332C9.34174 65.4152 11.5567 73.6777 22.9084 72.5761C32.3218 71.4745 33.1525 62.6611 32.5988 57.1527L31.7681 50.5427C31.4912 36.7718 32.8755 35.6701 32.8755 16.1154C32.8755 6.75125 25.4001 0.416632 17.0941 1.5183C2.42001 2.89539 -1.45616 14.1876 0.481928 25.755ZM16.5403 9.23C24.5695 13.0859 28.9994 26.0305 29.2764 30.7125C29.8301 36.4963 29.2764 39.526 28.9994 41.7293C28.1688 48.3393 21.8008 45.5851 25.1232 40.9031C30.6607 32.6406 23.1852 19.6959 16.5403 13.3613C8.78799 26.306 5.74243 43.6572 13.7716 44.208C18.2015 44.4835 13.7716 52.1952 9.34174 45.5851C7.68052 43.1064 7.40365 41.7293 6.84992 38.9752C6.01931 35.1193 6.57305 15.5646 16.5403 9.23Z" fill="white"/>
</svg>
