<svg width="49" height="48" viewBox="0 0 49 48" fill="none" xmlns="http://www.w3.org/2000/svg">
<g clip-path="url(#clip0_1_58)">
<g clip-path="url(#clip1_1_58)">
<path d="M1.77841 8.09737C1.77841 5.45059 3.92407 3.30493 6.57087 3.30493H42.8041C45.4509 3.30493 47.5966 5.45059 47.5966 8.09737V36.7595C47.5966 40.5753 44.5033 43.6686 40.6875 43.6686H8.6875C4.87172 43.6686 1.77841 40.5753 1.77841 36.7595V8.09737Z" stroke="url(#paint0_linear_1_58)" stroke-width="0.727273"/>
<path d="M40.6875 0.0322266H8.6875C4.6709 0.0322266 1.41478 3.28834 1.41478 7.30496V8.94133H47.9602V7.30496C47.9602 3.28834 44.7042 0.0322266 40.6875 0.0322266Z" fill="url(#paint1_linear_1_58)"/>
<path d="M40.6875 6.75941L44.3239 3.12305M40.6875 3.12305L44.3239 6.75941" stroke="white" stroke-width="0.727273"/>
<path d="M37.0078 3.48657H34.8906V5.60375H37.0078V3.48657Z" stroke="white" stroke-width="0.727273"/>
<path d="M36.2592 4.23535H34.142V6.35253H36.2592V4.23535Z" stroke="white" stroke-width="0.727273"/>
<path d="M27.9602 5.30493H30.3239" stroke="white" stroke-width="0.727273"/>
<path d="M25.2426 28.5742C28.9068 28.5742 31.8773 25.6038 31.8773 21.9396C31.8773 18.2754 28.9068 15.3049 25.2426 15.3049C21.5784 15.3049 18.608 18.2754 18.608 21.9396C18.608 25.6038 21.5784 28.5742 25.2426 28.5742Z" fill="#009FDE"/>
<path d="M38.1641 42.1925C38.1641 49.3281 32.3796 47.4304 25.244 47.4304C18.1084 47.4304 12.3239 49.3281 12.3239 42.1925C12.3239 35.057 18.1084 29.2725 25.244 29.2725C32.3796 29.2725 38.1641 35.057 38.1641 42.1925Z" fill="#009FDE"/>
</g>
</g>
<defs>
<linearGradient id="paint0_linear_1_58" x1="1.77841" y1="23.4868" x2="47.5966" y2="23.4868" gradientUnits="userSpaceOnUse">
<stop stop-color="#0073B9"/>
<stop offset="0.605769" stop-color="#009FDE"/>
<stop offset="1" stop-color="#00D0F8"/>
</linearGradient>
<linearGradient id="paint1_linear_1_58" x1="1.41478" y1="4.48678" x2="47.9602" y2="4.48678" gradientUnits="userSpaceOnUse">
<stop stop-color="#0073B9"/>
<stop offset="0.605769" stop-color="#009FDE"/>
<stop offset="1" stop-color="#00D0F8"/>
</linearGradient>
<clipPath id="clip0_1_58">
<rect width="48" height="48" fill="white" transform="translate(0.5)"/>
</clipPath>
<clipPath id="clip1_1_58">
<rect width="48" height="48" fill="white" transform="translate(0.5)"/>
</clipPath>
</defs>
</svg>
