<svg width="49" height="48" viewBox="0 0 49 48" fill="none" xmlns="http://www.w3.org/2000/svg">
<g clip-path="url(#clip0_1_41)">
<g clip-path="url(#clip1_1_41)">
<g clip-path="url(#clip2_1_41)">
<path d="M36.763 0.816935C31.33 0.092549 26.2593 4.25777 26.2593 10.415C26.2593 23.2729 27.1648 23.9973 26.9838 33.0521L26.4405 37.3985C26.0783 41.0204 26.6215 46.8155 32.7788 47.5399C40.2038 48.4454 41.8337 43.0125 42.1959 39.7527C42.1959 39.7527 43.6447 33.5954 43.8257 31.2412C44.9123 24.3595 46.7233 22.3674 47.4477 16.7534C48.8964 9.32844 46.3611 1.90352 36.763 0.816935ZM43.2825 25.6272C42.9202 27.4381 42.7392 28.3436 41.6526 29.9735C38.755 34.3198 35.8575 29.2491 38.755 29.068C44.0068 28.7059 42.1959 17.2967 36.944 8.78518C32.7788 12.9504 27.7081 21.4619 31.33 26.8949C33.5033 29.9735 29.338 31.7845 28.7947 27.4381C28.6136 25.9893 28.2514 23.9973 28.6136 20.1943C28.9758 17.1157 31.6923 8.42299 37.1252 6.06874C43.6447 10.234 44.0068 23.0918 43.2825 25.6272Z" fill="url(#paint0_linear_1_41)"/>
<path d="M1.26801 16.9347C2.1735 22.5487 3.80337 24.5408 4.88995 31.4224C5.25214 33.7767 6.51981 39.934 6.51981 39.934C7.06311 43.0126 8.51188 48.4455 15.9369 47.7212C22.0941 46.9968 22.6374 41.2017 22.2752 37.5798L21.7319 33.2334C21.5508 24.1786 22.4563 23.4542 22.4563 10.5963C22.4563 4.43905 17.5667 0.273823 12.1338 0.99821C2.53569 1.90369 0.000336289 9.32867 1.26801 16.9347ZM11.7716 6.06891C17.0234 8.60427 19.921 17.1158 20.1021 20.1944C20.4643 23.9975 20.1021 25.9896 19.921 27.4383C19.3777 31.7846 15.2125 29.9737 17.3856 26.895C21.0076 21.4622 16.1179 12.9506 11.7716 8.78537C6.70091 17.2969 4.70885 28.706 9.96065 29.0682C12.8582 29.2493 9.96065 34.32 7.06311 29.9737C5.97653 28.3438 5.79543 27.4383 5.43324 25.6274C4.88995 23.092 5.25214 10.2342 11.7716 6.06891Z" fill="url(#paint1_linear_1_41)"/>
</g>
</g>
</g>
<defs>
<linearGradient id="paint0_linear_1_41" x1="26.2593" y1="24.1877" x2="47.826" y2="24.1877" gradientUnits="userSpaceOnUse">
<stop stop-color="#0073B9"/>
<stop offset="0.605769" stop-color="#009FDE"/>
<stop offset="1" stop-color="#00D0F8"/>
</linearGradient>
<linearGradient id="paint1_linear_1_41" x1="0.964767" y1="24.3517" x2="22.4563" y2="24.3517" gradientUnits="userSpaceOnUse">
<stop stop-color="#0073B9"/>
<stop offset="0.605769" stop-color="#009FDE"/>
<stop offset="1" stop-color="#00D0F8"/>
</linearGradient>
<clipPath id="clip0_1_41">
<rect width="48" height="48" fill="white" transform="translate(0.5)"/>
</clipPath>
<clipPath id="clip1_1_41">
<rect width="48" height="48" fill="white" transform="translate(0.5)"/>
</clipPath>
<clipPath id="clip2_1_41">
<rect width="47.0943" height="48" fill="white" transform="translate(0.952827)"/>
</clipPath>
</defs>
</svg>
