<svg width="300" height="185" viewBox="0 0 300 185" fill="none" xmlns="http://www.w3.org/2000/svg">
<g clip-path="url(#clip0_77_341)">
<path d="M0 132L127.5 10L132.5 20H146H158.5H177H191H203.5L213.5 22.5L222.5 28H237.5H248L264.5 39.5L243 55.5L253.5 57.5L273.5 55.5H292.5L300 70.5L185.5 185H53L0 132Z" fill="url(#paint0_linear_77_341)"/>
<mask id="path-2-outside-1_77_341" maskUnits="userSpaceOnUse" x="125" y="5" width="142" height="37" fill="black">
<rect fill="white" x="125" y="5" width="142" height="37"/>
<path d="M127.665 12.063L133.774 11.079V17.434H141.113V22.518H133.774V30.103C133.774 31.3877 133.993 32.4127 134.43 33.178C134.895 33.9433 135.81 34.326 137.177 34.326C137.833 34.326 138.503 34.2713 139.186 34.162C139.897 34.0253 140.539 33.8477 141.113 33.629L141.974 38.385C141.236 38.6857 140.416 38.9453 139.514 39.164C138.612 39.3827 137.505 39.492 136.193 39.492C134.526 39.492 133.145 39.2733 132.052 38.836C130.959 38.3713 130.084 37.7427 129.428 36.95C128.772 36.13 128.307 35.146 128.034 33.998C127.788 32.85 127.665 31.579 127.665 30.185V12.063ZM159.085 22.846C158.538 22.7093 157.896 22.5727 157.158 22.436C156.42 22.272 155.627 22.19 154.78 22.19C154.397 22.19 153.932 22.231 153.386 22.313C152.866 22.3677 152.47 22.436 152.197 22.518V39H146.088V18.582C147.181 18.1993 148.466 17.844 149.942 17.516C151.445 17.1607 153.112 16.983 154.944 16.983C155.272 16.983 155.668 17.0103 156.133 17.065C156.597 17.0923 157.062 17.147 157.527 17.229C157.991 17.2837 158.456 17.3657 158.921 17.475C159.385 17.557 159.782 17.6663 160.11 17.803L159.085 22.846ZM171.225 34.736C171.827 34.736 172.401 34.7223 172.947 34.695C173.494 34.6677 173.931 34.6267 174.259 34.572V29.939C174.013 29.8843 173.644 29.8297 173.152 29.775C172.66 29.7203 172.209 29.693 171.799 29.693C171.225 29.693 170.679 29.734 170.159 29.816C169.667 29.8707 169.23 29.9937 168.847 30.185C168.465 30.3763 168.164 30.636 167.945 30.964C167.727 31.292 167.617 31.702 167.617 32.194C167.617 33.1507 167.932 33.8203 168.56 34.203C169.216 34.5583 170.105 34.736 171.225 34.736ZM170.733 16.86C172.537 16.86 174.041 17.065 175.243 17.475C176.446 17.885 177.403 18.4727 178.113 19.238C178.851 20.0033 179.371 20.9327 179.671 22.026C179.972 23.1193 180.122 24.3357 180.122 25.675V38.385C179.248 38.5763 178.031 38.795 176.473 39.041C174.915 39.3143 173.029 39.451 170.815 39.451C169.421 39.451 168.15 39.328 167.002 39.082C165.882 38.836 164.911 38.4397 164.091 37.893C163.271 37.319 162.643 36.581 162.205 35.679C161.768 34.777 161.549 33.67 161.549 32.358C161.549 31.1007 161.795 30.0347 162.287 29.16C162.807 28.2853 163.49 27.5883 164.337 27.069C165.185 26.5497 166.155 26.1807 167.248 25.962C168.342 25.716 169.476 25.593 170.651 25.593C171.444 25.593 172.141 25.634 172.742 25.716C173.371 25.7707 173.877 25.8527 174.259 25.962V25.388C174.259 24.3493 173.945 23.5157 173.316 22.887C172.688 22.2583 171.594 21.944 170.036 21.944C168.998 21.944 167.973 22.026 166.961 22.19C165.95 22.3267 165.075 22.5317 164.337 22.805L163.558 17.885C163.914 17.7757 164.351 17.6663 164.87 17.557C165.417 17.4203 166.005 17.311 166.633 17.229C167.262 17.1197 167.918 17.0377 168.601 16.983C169.312 16.901 170.023 16.86 170.733 16.86ZM191.755 39H185.646V17.434H191.755V39ZM192.329 11.202C192.329 12.3227 191.96 13.211 191.222 13.867C190.512 14.4957 189.664 14.81 188.68 14.81C187.696 14.81 186.835 14.4957 186.097 13.867C185.387 13.211 185.031 12.3227 185.031 11.202C185.031 10.0813 185.387 9.20666 186.097 8.578C186.835 7.922 187.696 7.594 188.68 7.594C189.664 7.594 190.512 7.922 191.222 8.578C191.96 9.20666 192.329 10.0813 192.329 11.202ZM197.498 18.172C198.537 17.8713 199.876 17.598 201.516 17.352C203.156 17.0787 204.878 16.942 206.682 16.942C208.513 16.942 210.03 17.188 211.233 17.68C212.463 18.1447 213.433 18.8143 214.144 19.689C214.855 20.5637 215.36 21.6023 215.661 22.805C215.962 24.0077 216.112 25.347 216.112 26.823V39H210.003V27.561C210.003 25.593 209.743 24.199 209.224 23.379C208.705 22.559 207.734 22.149 206.313 22.149C205.876 22.149 205.411 22.1763 204.919 22.231C204.427 22.2583 203.99 22.2993 203.607 22.354V39H197.498V18.172ZM220.616 28.381C220.616 26.4677 220.903 24.8003 221.477 23.379C222.079 21.9303 222.858 20.7277 223.814 19.771C224.771 18.8143 225.864 18.09 227.094 17.598C228.352 17.106 229.636 16.86 230.948 16.86C234.01 16.86 236.429 17.803 238.205 19.689C239.982 21.5477 240.87 24.2947 240.87 27.93C240.87 28.2853 240.857 28.6817 240.829 29.119C240.802 29.529 240.775 29.898 240.747 30.226H226.889C227.026 31.4833 227.614 32.481 228.652 33.219C229.691 33.957 231.085 34.326 232.834 34.326C233.955 34.326 235.048 34.2303 236.114 34.039C237.208 33.8203 238.096 33.5607 238.779 33.26L239.599 38.221C239.271 38.385 238.834 38.549 238.287 38.713C237.741 38.877 237.126 39.0137 236.442 39.123C235.786 39.2597 235.076 39.369 234.31 39.451C233.545 39.533 232.78 39.574 232.014 39.574C230.074 39.574 228.379 39.287 226.93 38.713C225.509 38.139 224.32 37.36 223.363 36.376C222.434 35.3647 221.737 34.1757 221.272 32.809C220.835 31.4423 220.616 29.9663 220.616 28.381ZM234.966 26.044C234.939 25.5247 234.843 25.019 234.679 24.527C234.543 24.035 234.31 23.5977 233.982 23.215C233.682 22.8323 233.285 22.518 232.793 22.272C232.329 22.026 231.741 21.903 231.03 21.903C230.347 21.903 229.759 22.026 229.267 22.272C228.775 22.4907 228.365 22.7913 228.037 23.174C227.709 23.5567 227.45 24.0077 227.258 24.527C227.094 25.019 226.971 25.5247 226.889 26.044H234.966ZM244.56 28.381C244.56 26.4677 244.847 24.8003 245.421 23.379C246.022 21.9303 246.801 20.7277 247.758 19.771C248.715 18.8143 249.808 18.09 251.038 17.598C252.295 17.106 253.58 16.86 254.892 16.86C257.953 16.86 260.372 17.803 262.149 19.689C263.926 21.5477 264.814 24.2947 264.814 27.93C264.814 28.2853 264.8 28.6817 264.773 29.119C264.746 29.529 264.718 29.898 264.691 30.226H250.833C250.97 31.4833 251.557 32.481 252.596 33.219C253.635 33.957 255.029 34.326 256.778 34.326C257.899 34.326 258.992 34.2303 260.058 34.039C261.151 33.8203 262.04 33.5607 262.723 33.26L263.543 38.221C263.215 38.385 262.778 38.549 262.231 38.713C261.684 38.877 261.069 39.0137 260.386 39.123C259.73 39.2597 259.019 39.369 258.254 39.451C257.489 39.533 256.723 39.574 255.958 39.574C254.017 39.574 252.323 39.287 250.874 38.713C249.453 38.139 248.264 37.36 247.307 36.376C246.378 35.3647 245.681 34.1757 245.216 32.809C244.779 31.4423 244.56 29.9663 244.56 28.381ZM258.91 26.044C258.883 25.5247 258.787 25.019 258.623 24.527C258.486 24.035 258.254 23.5977 257.926 23.215C257.625 22.8323 257.229 22.518 256.737 22.272C256.272 22.026 255.685 21.903 254.974 21.903C254.291 21.903 253.703 22.026 253.211 22.272C252.719 22.4907 252.309 22.7913 251.981 23.174C251.653 23.5567 251.393 24.0077 251.202 24.527C251.038 25.019 250.915 25.5247 250.833 26.044H258.91Z"/>
</mask>
<path d="M127.665 12.063L133.774 11.079V17.434H141.113V22.518H133.774V30.103C133.774 31.3877 133.993 32.4127 134.43 33.178C134.895 33.9433 135.81 34.326 137.177 34.326C137.833 34.326 138.503 34.2713 139.186 34.162C139.897 34.0253 140.539 33.8477 141.113 33.629L141.974 38.385C141.236 38.6857 140.416 38.9453 139.514 39.164C138.612 39.3827 137.505 39.492 136.193 39.492C134.526 39.492 133.145 39.2733 132.052 38.836C130.959 38.3713 130.084 37.7427 129.428 36.95C128.772 36.13 128.307 35.146 128.034 33.998C127.788 32.85 127.665 31.579 127.665 30.185V12.063ZM159.085 22.846C158.538 22.7093 157.896 22.5727 157.158 22.436C156.42 22.272 155.627 22.19 154.78 22.19C154.397 22.19 153.932 22.231 153.386 22.313C152.866 22.3677 152.47 22.436 152.197 22.518V39H146.088V18.582C147.181 18.1993 148.466 17.844 149.942 17.516C151.445 17.1607 153.112 16.983 154.944 16.983C155.272 16.983 155.668 17.0103 156.133 17.065C156.597 17.0923 157.062 17.147 157.527 17.229C157.991 17.2837 158.456 17.3657 158.921 17.475C159.385 17.557 159.782 17.6663 160.11 17.803L159.085 22.846ZM171.225 34.736C171.827 34.736 172.401 34.7223 172.947 34.695C173.494 34.6677 173.931 34.6267 174.259 34.572V29.939C174.013 29.8843 173.644 29.8297 173.152 29.775C172.66 29.7203 172.209 29.693 171.799 29.693C171.225 29.693 170.679 29.734 170.159 29.816C169.667 29.8707 169.23 29.9937 168.847 30.185C168.465 30.3763 168.164 30.636 167.945 30.964C167.727 31.292 167.617 31.702 167.617 32.194C167.617 33.1507 167.932 33.8203 168.56 34.203C169.216 34.5583 170.105 34.736 171.225 34.736ZM170.733 16.86C172.537 16.86 174.041 17.065 175.243 17.475C176.446 17.885 177.403 18.4727 178.113 19.238C178.851 20.0033 179.371 20.9327 179.671 22.026C179.972 23.1193 180.122 24.3357 180.122 25.675V38.385C179.248 38.5763 178.031 38.795 176.473 39.041C174.915 39.3143 173.029 39.451 170.815 39.451C169.421 39.451 168.15 39.328 167.002 39.082C165.882 38.836 164.911 38.4397 164.091 37.893C163.271 37.319 162.643 36.581 162.205 35.679C161.768 34.777 161.549 33.67 161.549 32.358C161.549 31.1007 161.795 30.0347 162.287 29.16C162.807 28.2853 163.49 27.5883 164.337 27.069C165.185 26.5497 166.155 26.1807 167.248 25.962C168.342 25.716 169.476 25.593 170.651 25.593C171.444 25.593 172.141 25.634 172.742 25.716C173.371 25.7707 173.877 25.8527 174.259 25.962V25.388C174.259 24.3493 173.945 23.5157 173.316 22.887C172.688 22.2583 171.594 21.944 170.036 21.944C168.998 21.944 167.973 22.026 166.961 22.19C165.95 22.3267 165.075 22.5317 164.337 22.805L163.558 17.885C163.914 17.7757 164.351 17.6663 164.87 17.557C165.417 17.4203 166.005 17.311 166.633 17.229C167.262 17.1197 167.918 17.0377 168.601 16.983C169.312 16.901 170.023 16.86 170.733 16.86ZM191.755 39H185.646V17.434H191.755V39ZM192.329 11.202C192.329 12.3227 191.96 13.211 191.222 13.867C190.512 14.4957 189.664 14.81 188.68 14.81C187.696 14.81 186.835 14.4957 186.097 13.867C185.387 13.211 185.031 12.3227 185.031 11.202C185.031 10.0813 185.387 9.20666 186.097 8.578C186.835 7.922 187.696 7.594 188.68 7.594C189.664 7.594 190.512 7.922 191.222 8.578C191.96 9.20666 192.329 10.0813 192.329 11.202ZM197.498 18.172C198.537 17.8713 199.876 17.598 201.516 17.352C203.156 17.0787 204.878 16.942 206.682 16.942C208.513 16.942 210.03 17.188 211.233 17.68C212.463 18.1447 213.433 18.8143 214.144 19.689C214.855 20.5637 215.36 21.6023 215.661 22.805C215.962 24.0077 216.112 25.347 216.112 26.823V39H210.003V27.561C210.003 25.593 209.743 24.199 209.224 23.379C208.705 22.559 207.734 22.149 206.313 22.149C205.876 22.149 205.411 22.1763 204.919 22.231C204.427 22.2583 203.99 22.2993 203.607 22.354V39H197.498V18.172ZM220.616 28.381C220.616 26.4677 220.903 24.8003 221.477 23.379C222.079 21.9303 222.858 20.7277 223.814 19.771C224.771 18.8143 225.864 18.09 227.094 17.598C228.352 17.106 229.636 16.86 230.948 16.86C234.01 16.86 236.429 17.803 238.205 19.689C239.982 21.5477 240.87 24.2947 240.87 27.93C240.87 28.2853 240.857 28.6817 240.829 29.119C240.802 29.529 240.775 29.898 240.747 30.226H226.889C227.026 31.4833 227.614 32.481 228.652 33.219C229.691 33.957 231.085 34.326 232.834 34.326C233.955 34.326 235.048 34.2303 236.114 34.039C237.208 33.8203 238.096 33.5607 238.779 33.26L239.599 38.221C239.271 38.385 238.834 38.549 238.287 38.713C237.741 38.877 237.126 39.0137 236.442 39.123C235.786 39.2597 235.076 39.369 234.31 39.451C233.545 39.533 232.78 39.574 232.014 39.574C230.074 39.574 228.379 39.287 226.93 38.713C225.509 38.139 224.32 37.36 223.363 36.376C222.434 35.3647 221.737 34.1757 221.272 32.809C220.835 31.4423 220.616 29.9663 220.616 28.381ZM234.966 26.044C234.939 25.5247 234.843 25.019 234.679 24.527C234.543 24.035 234.31 23.5977 233.982 23.215C233.682 22.8323 233.285 22.518 232.793 22.272C232.329 22.026 231.741 21.903 231.03 21.903C230.347 21.903 229.759 22.026 229.267 22.272C228.775 22.4907 228.365 22.7913 228.037 23.174C227.709 23.5567 227.45 24.0077 227.258 24.527C227.094 25.019 226.971 25.5247 226.889 26.044H234.966ZM244.56 28.381C244.56 26.4677 244.847 24.8003 245.421 23.379C246.022 21.9303 246.801 20.7277 247.758 19.771C248.715 18.8143 249.808 18.09 251.038 17.598C252.295 17.106 253.58 16.86 254.892 16.86C257.953 16.86 260.372 17.803 262.149 19.689C263.926 21.5477 264.814 24.2947 264.814 27.93C264.814 28.2853 264.8 28.6817 264.773 29.119C264.746 29.529 264.718 29.898 264.691 30.226H250.833C250.97 31.4833 251.557 32.481 252.596 33.219C253.635 33.957 255.029 34.326 256.778 34.326C257.899 34.326 258.992 34.2303 260.058 34.039C261.151 33.8203 262.04 33.5607 262.723 33.26L263.543 38.221C263.215 38.385 262.778 38.549 262.231 38.713C261.684 38.877 261.069 39.0137 260.386 39.123C259.73 39.2597 259.019 39.369 258.254 39.451C257.489 39.533 256.723 39.574 255.958 39.574C254.017 39.574 252.323 39.287 250.874 38.713C249.453 38.139 248.264 37.36 247.307 36.376C246.378 35.3647 245.681 34.1757 245.216 32.809C244.779 31.4423 244.56 29.9663 244.56 28.381ZM258.91 26.044C258.883 25.5247 258.787 25.019 258.623 24.527C258.486 24.035 258.254 23.5977 257.926 23.215C257.625 22.8323 257.229 22.518 256.737 22.272C256.272 22.026 255.685 21.903 254.974 21.903C254.291 21.903 253.703 22.026 253.211 22.272C252.719 22.4907 252.309 22.7913 251.981 23.174C251.653 23.5567 251.393 24.0077 251.202 24.527C251.038 25.019 250.915 25.5247 250.833 26.044H258.91Z" fill="white"/>
<path d="M127.665 12.063L127.347 10.0885L125.665 10.3594V12.063H127.665ZM133.774 11.079H135.774V8.73107L133.456 9.10445L133.774 11.079ZM133.774 17.434H131.774V19.434H133.774V17.434ZM141.113 17.434H143.113V15.434H141.113V17.434ZM141.113 22.518V24.518H143.113V22.518H141.113ZM133.774 22.518V20.518H131.774V22.518H133.774ZM134.43 33.178L132.694 34.1703L132.707 34.1933L132.72 34.216L134.43 33.178ZM139.186 34.162L139.502 36.1369L139.533 36.1319L139.564 36.126L139.186 34.162ZM141.113 33.629L143.081 33.2727L142.652 30.9025L140.401 31.76L141.113 33.629ZM141.974 38.385L142.729 40.2372L144.231 39.6251L143.942 38.0287L141.974 38.385ZM139.514 39.164L139.043 37.2203L139.043 37.2203L139.514 39.164ZM132.052 38.836L131.27 40.6767L131.289 40.685L131.309 40.693L132.052 38.836ZM129.428 36.95L127.866 38.1994L127.877 38.2123L127.887 38.2251L129.428 36.95ZM128.034 33.998L126.078 34.4171L126.083 34.4392L126.088 34.4612L128.034 33.998ZM127.983 14.0375L134.092 13.0535L133.456 9.10445L127.347 10.0885L127.983 14.0375ZM131.774 11.079V17.434H135.774V11.079H131.774ZM133.774 19.434H141.113V15.434H133.774V19.434ZM139.113 17.434V22.518H143.113V17.434H139.113ZM141.113 20.518H133.774V24.518H141.113V20.518ZM131.774 22.518V30.103H135.774V22.518H131.774ZM131.774 30.103C131.774 31.5868 132.022 32.9955 132.694 34.1703L136.166 32.1857C135.963 31.8299 135.774 31.1885 135.774 30.103H131.774ZM132.72 34.216C133.713 35.8516 135.505 36.326 137.177 36.326V32.326C136.665 32.326 136.377 32.2522 136.236 32.1937C136.172 32.1667 136.146 32.1462 136.142 32.1426C136.139 32.1403 136.141 32.1416 136.14 32.14L132.72 34.216ZM137.177 36.326C137.944 36.326 138.72 36.262 139.502 36.1369L138.87 32.1871C138.285 32.2806 137.722 32.326 137.177 32.326V36.326ZM139.564 36.126C140.369 35.9712 141.125 35.7645 141.825 35.498L140.401 31.76C139.953 31.9309 139.425 32.0795 138.808 32.198L139.564 36.126ZM139.145 33.9853L140.006 38.7413L143.942 38.0287L143.081 33.2727L139.145 33.9853ZM141.219 36.5328C140.587 36.7905 139.864 37.0213 139.043 37.2203L139.985 41.1077C140.968 40.8693 141.885 40.5809 142.729 40.2372L141.219 36.5328ZM139.043 37.2203C138.344 37.3897 137.406 37.492 136.193 37.492V41.492C137.604 41.492 138.88 41.3756 139.985 41.1077L139.043 37.2203ZM136.193 37.492C134.682 37.492 133.576 37.2913 132.795 36.979L131.309 40.693C132.715 41.2553 134.369 41.492 136.193 41.492V37.492ZM132.834 36.9953C131.99 36.6364 131.391 36.1855 130.969 35.6749L127.887 38.2251C128.777 39.2999 129.928 40.1063 131.27 40.6767L132.834 36.9953ZM130.99 35.7006C130.54 35.1382 130.193 34.4313 129.98 33.5348L126.088 34.4612C126.422 35.8607 127.004 37.1218 127.866 38.1994L130.99 35.7006ZM129.99 33.5789C129.778 32.5914 129.665 31.4635 129.665 30.185H125.665C125.665 31.6945 125.798 33.1086 126.078 34.4171L129.99 33.5789ZM129.665 30.185V12.063H125.665V30.185H129.665ZM159.085 22.846L158.6 24.7863L160.628 25.2934L161.045 23.2444L159.085 22.846ZM157.158 22.436L156.724 24.3884L156.759 24.3961L156.794 24.4026L157.158 22.436ZM153.386 22.313L153.595 24.302L153.639 24.2974L153.682 24.2909L153.386 22.313ZM152.197 22.518L151.622 20.6023L150.197 21.0299V22.518H152.197ZM152.197 39V41H154.197V39H152.197ZM146.088 39H144.088V41H146.088V39ZM146.088 18.582L145.427 16.6943L144.088 17.163V18.582H146.088ZM149.942 17.516L150.376 19.4684L150.389 19.4655L150.402 19.4624L149.942 17.516ZM156.133 17.065L155.899 19.0513L155.957 19.0581L156.015 19.0615L156.133 17.065ZM157.527 17.229L157.179 19.1986L157.236 19.2086L157.293 19.2153L157.527 17.229ZM158.921 17.475L158.463 19.4218L158.518 19.4348L158.573 19.4446L158.921 17.475ZM160.11 17.803L162.07 18.2014L162.397 16.5895L160.879 15.9568L160.11 17.803ZM159.57 20.9057C158.973 20.7564 158.288 20.6113 157.522 20.4694L156.794 24.4026C157.503 24.534 158.104 24.6623 158.6 24.7863L159.57 20.9057ZM157.592 20.4836C156.695 20.2844 155.756 20.19 154.78 20.19V24.19C155.498 24.19 156.144 24.2596 156.724 24.3884L157.592 20.4836ZM154.78 20.19C154.265 20.19 153.695 20.2443 153.089 20.3351L153.682 24.2909C154.17 24.2177 154.529 24.19 154.78 24.19V20.19ZM153.176 20.324C152.617 20.3829 152.075 20.4666 151.622 20.6023L152.771 24.4337C152.866 24.4054 153.116 24.3525 153.595 24.302L153.176 20.324ZM150.197 22.518V39H154.197V22.518H150.197ZM152.197 37H146.088V41H152.197V37ZM148.088 39V18.582H144.088V39H148.088ZM146.748 20.4697C147.749 20.1195 148.955 19.7841 150.376 19.4684L149.508 15.5636C147.977 15.9039 146.613 16.2792 145.427 16.6943L146.748 20.4697ZM150.402 19.4624C151.73 19.1485 153.24 18.983 154.944 18.983V14.983C152.985 14.983 151.161 15.1728 149.482 15.5696L150.402 19.4624ZM154.944 18.983C155.169 18.983 155.482 19.0023 155.899 19.0513L156.366 15.0787C155.854 15.0184 155.375 14.983 154.944 14.983V18.983ZM156.015 19.0615C156.402 19.0843 156.79 19.1298 157.179 19.1986L157.874 15.2594C157.335 15.1642 156.793 15.1004 156.25 15.0685L156.015 19.0615ZM157.293 19.2153C157.681 19.2609 158.071 19.3296 158.463 19.4218L159.379 15.5282C158.842 15.4018 158.302 15.3064 157.76 15.2427L157.293 19.2153ZM158.573 19.4446C158.937 19.5088 159.184 19.5839 159.341 19.6492L160.879 15.9568C160.38 15.7488 159.834 15.6052 159.268 15.5054L158.573 19.4446ZM158.15 17.4046L157.125 22.4476L161.045 23.2444L162.07 18.2014L158.15 17.4046ZM172.947 34.695L173.047 36.6925L173.047 36.6925L172.947 34.695ZM174.259 34.572L174.588 36.5448L176.259 36.2663V34.572H174.259ZM174.259 29.939H176.259V28.3347L174.693 27.9866L174.259 29.939ZM170.159 29.816L170.38 31.8038L170.426 31.7987L170.471 31.7915L170.159 29.816ZM168.847 30.185L169.742 31.9739L169.742 31.9739L168.847 30.185ZM167.945 30.964L166.281 29.8546L167.945 30.964ZM168.56 34.203L167.52 35.9114L167.563 35.9376L167.608 35.9616L168.56 34.203ZM175.243 17.475L174.598 19.368L175.243 17.475ZM178.113 19.238L176.648 20.5989L176.66 20.6127L176.674 20.6263L178.113 19.238ZM179.671 22.026L181.6 21.4957L181.6 21.4957L179.671 22.026ZM180.122 38.385L180.55 40.3388L182.122 39.9948V38.385H180.122ZM176.473 39.041L176.161 37.0655L176.144 37.0681L176.128 37.0711L176.473 39.041ZM167.002 39.082L166.573 41.0355L166.583 41.0376L167.002 39.082ZM164.091 37.893L162.944 39.5315L162.963 39.5445L162.982 39.5571L164.091 37.893ZM162.205 35.679L164.005 34.8065L162.205 35.679ZM162.287 29.16L160.568 28.1389L160.556 28.1591L160.544 28.1795L162.287 29.16ZM164.337 27.069L165.382 28.7742L165.382 28.7742L164.337 27.069ZM167.248 25.962L167.64 27.9232L167.664 27.9185L167.687 27.9132L167.248 25.962ZM172.742 25.716L172.472 27.6977L172.52 27.7043L172.569 27.7085L172.742 25.716ZM174.259 25.962L173.71 27.885L176.259 28.6135V25.962H174.259ZM173.316 22.887L171.902 24.3012L173.316 22.887ZM166.961 22.19L167.229 24.172L167.255 24.1684L167.281 24.1642L166.961 22.19ZM164.337 22.805L162.362 23.1178L162.743 25.5281L165.032 24.6805L164.337 22.805ZM163.558 17.885L162.97 15.9734L161.311 16.4838L161.583 18.1978L163.558 17.885ZM164.87 17.557L165.282 19.5141L165.319 19.5064L165.355 19.4973L164.87 17.557ZM166.633 17.229L166.892 19.2122L166.934 19.2067L166.976 19.1994L166.633 17.229ZM168.601 16.983L168.761 18.9766L168.796 18.9738L168.831 18.9698L168.601 16.983ZM171.225 36.736C171.857 36.736 172.464 36.7217 173.047 36.6925L172.847 32.6975C172.337 32.723 171.796 32.736 171.225 32.736V36.736ZM173.047 36.6925C173.628 36.6634 174.152 36.6175 174.588 36.5448L173.93 32.5992C173.711 32.6358 173.359 32.6719 172.847 32.6975L173.047 36.6925ZM176.259 34.572V29.939H172.259V34.572H176.259ZM174.693 27.9866C174.338 27.9078 173.882 27.8438 173.373 27.7872L172.931 31.7628C173.406 31.8155 173.688 31.8609 173.825 31.8914L174.693 27.9866ZM173.373 27.7872C172.822 27.726 172.296 27.693 171.799 27.693V31.693C172.122 31.693 172.498 31.7146 172.931 31.7628L173.373 27.7872ZM171.799 27.693C171.13 27.693 170.479 27.7408 169.847 27.8405L170.471 31.7915C170.878 31.7272 171.32 31.693 171.799 31.693V27.693ZM169.938 27.8282C169.248 27.9049 168.577 28.0841 167.953 28.3961L169.742 31.9739C169.883 31.9032 170.086 31.8364 170.38 31.8038L169.938 27.8282ZM167.953 28.3961C167.286 28.7295 166.709 29.2126 166.281 29.8546L169.609 32.0734C169.619 32.0594 169.643 32.0232 169.742 31.9739L167.953 28.3961ZM166.281 29.8546C165.795 30.5843 165.617 31.4053 165.617 32.194H169.617C169.617 32.095 169.628 32.0455 169.632 32.0328C169.634 32.023 169.63 32.042 169.609 32.0734L166.281 29.8546ZM165.617 32.194C165.617 33.6106 166.117 35.0571 167.52 35.9114L169.6 32.4946C169.603 32.4965 169.619 32.5071 169.637 32.5275C169.646 32.5368 169.652 32.5457 169.657 32.5531C169.662 32.5604 169.664 32.5645 169.663 32.5639C169.662 32.561 169.617 32.4614 169.617 32.194H165.617ZM167.608 35.9616C168.667 36.5352 169.926 36.736 171.225 36.736V32.736C170.284 32.736 169.766 32.5814 169.513 32.4444L167.608 35.9616ZM170.733 18.86C172.402 18.86 173.67 19.0518 174.598 19.368L175.889 15.582C174.411 15.0782 172.672 14.86 170.733 14.86V18.86ZM174.598 19.368C175.555 19.6942 176.206 20.1233 176.648 20.5989L179.579 17.8771C178.599 16.8221 177.337 16.0758 175.889 15.582L174.598 19.368ZM176.674 20.6263C177.164 21.135 177.525 21.7632 177.743 22.5563L181.6 21.4957C181.216 20.1021 180.538 18.8717 179.553 17.8497L176.674 20.6263ZM177.743 22.5563C177.988 23.449 178.122 24.4834 178.122 25.675H182.122C182.122 24.1879 181.956 22.7897 181.6 21.4957L177.743 22.5563ZM178.122 25.675V38.385H182.122V25.675H178.122ZM179.695 36.4312C178.877 36.6102 177.705 36.8217 176.161 37.0655L176.785 41.0165C178.358 40.7683 179.619 40.5425 180.55 40.3388L179.695 36.4312ZM176.128 37.0711C174.719 37.3183 172.955 37.451 170.815 37.451V41.451C173.103 41.451 175.112 41.3104 176.819 41.0109L176.128 37.0711ZM170.815 37.451C169.537 37.451 168.409 37.338 167.421 37.1264L166.583 41.0376C167.892 41.318 169.306 41.451 170.815 41.451V37.451ZM167.431 37.1285C166.514 36.9272 165.783 36.617 165.201 36.2289L162.982 39.5571C164.04 40.2624 165.249 40.7448 166.573 41.0355L167.431 37.1285ZM165.238 36.2545C164.698 35.8763 164.294 35.4022 164.005 34.8065L160.406 36.5515C160.991 37.7598 161.845 38.7617 162.944 39.5315L165.238 36.2545ZM164.005 34.8065C163.734 34.247 163.549 33.4574 163.549 32.358H159.549C159.549 33.8826 159.802 35.307 160.406 36.5515L164.005 34.8065ZM163.549 32.358C163.549 31.3586 163.744 30.6492 164.03 30.1405L160.544 28.1795C159.846 29.4202 159.549 30.8428 159.549 32.358H163.549ZM164.007 30.1811C164.364 29.579 164.819 29.1196 165.382 28.7742L163.292 25.3638C162.161 26.0571 161.249 26.9916 160.568 28.1389L164.007 30.1811ZM165.382 28.7742C166.006 28.392 166.75 28.1012 167.64 27.9232L166.856 24.0008C165.56 24.2601 164.363 24.7073 163.292 25.3638L165.382 28.7742ZM167.687 27.9132C168.63 27.7012 169.616 27.593 170.651 27.593V23.593C169.335 23.593 168.054 23.7308 166.809 24.0108L167.687 27.9132ZM170.651 27.593C171.379 27.593 171.983 27.6309 172.472 27.6977L173.012 23.7343C172.299 23.6371 171.509 23.593 170.651 23.593V27.593ZM172.569 27.7085C173.135 27.7577 173.5 27.825 173.71 27.885L174.809 24.039C174.253 23.8803 173.607 23.7836 172.916 23.7235L172.569 27.7085ZM176.259 25.962V25.388H172.259V25.962H176.259ZM176.259 25.388C176.259 23.9152 175.797 22.5396 174.73 21.4728L171.902 24.3012C172.093 24.4918 172.259 24.7834 172.259 25.388H176.259ZM174.73 21.4728C173.528 20.2707 171.756 19.944 170.036 19.944V23.944C171.433 23.944 171.847 24.246 171.902 24.3012L174.73 21.4728ZM170.036 19.944C168.892 19.944 167.76 20.0344 166.641 20.2158L167.281 24.1642C168.185 24.0176 169.103 23.944 170.036 23.944V19.944ZM166.693 20.208C165.577 20.3589 164.552 20.5926 163.643 20.9295L165.032 24.6805C165.598 24.4707 166.323 24.2944 167.229 24.172L166.693 20.208ZM166.313 22.4922L165.534 17.5722L161.583 18.1978L162.362 23.1178L166.313 22.4922ZM164.146 19.7966C164.425 19.7108 164.8 19.6157 165.282 19.5141L164.458 15.5999C163.902 15.7169 163.402 15.8405 162.97 15.9734L164.146 19.7966ZM165.355 19.4973C165.819 19.3814 166.33 19.2855 166.892 19.2122L166.375 15.2458C165.679 15.3365 165.015 15.4593 164.385 15.6167L165.355 19.4973ZM166.976 19.1994C167.54 19.1014 168.134 19.0267 168.761 18.9766L168.442 14.9894C167.702 15.0486 166.984 15.1379 166.291 15.2586L166.976 19.1994ZM168.831 18.9698C169.466 18.8965 170.1 18.86 170.733 18.86V14.86C169.945 14.86 169.158 14.9055 168.372 14.9962L168.831 18.9698ZM191.755 39V41H193.755V39H191.755ZM185.646 39H183.646V41H185.646V39ZM185.646 17.434V15.434H183.646V17.434H185.646ZM191.755 17.434H193.755V15.434H191.755V17.434ZM191.222 13.867L192.548 15.365L192.551 15.3618L191.222 13.867ZM186.097 13.867L184.741 15.3366L184.77 15.3636L184.8 15.3895L186.097 13.867ZM186.097 8.578L187.423 10.076L187.426 10.0728L186.097 8.578ZM191.222 8.578L189.866 10.0476L189.895 10.0746L189.925 10.1005L191.222 8.578ZM191.755 37H185.646V41H191.755V37ZM187.646 39V17.434H183.646V39H187.646ZM185.646 19.434H191.755V15.434H185.646V19.434ZM189.755 17.434V39H193.755V17.434H189.755ZM190.329 11.202C190.329 11.837 190.145 12.1491 189.894 12.3722L192.551 15.3618C193.776 14.2729 194.329 12.8084 194.329 11.202H190.329ZM189.897 12.369C189.567 12.6613 189.196 12.81 188.68 12.81V16.81C190.133 16.81 191.457 16.33 192.548 15.365L189.897 12.369ZM188.68 12.81C188.164 12.81 187.765 12.6599 187.394 12.3445L184.8 15.3895C185.906 16.3314 187.229 16.81 188.68 16.81V12.81ZM187.454 12.3974C187.22 12.1812 187.031 11.8616 187.031 11.202H183.031C183.031 12.7838 183.554 14.2408 184.741 15.3366L187.454 12.3974ZM187.031 11.202C187.031 10.5404 187.219 10.2556 187.423 10.076L184.772 7.08001C183.554 8.15772 183.031 9.62226 183.031 11.202H187.031ZM187.426 10.0728C187.799 9.74099 188.188 9.594 188.68 9.594V5.594C187.205 5.594 185.871 6.103 184.769 7.08318L187.426 10.0728ZM188.68 9.594C189.171 9.594 189.532 9.73916 189.866 10.0476L192.579 7.10839C191.492 6.10484 190.157 5.594 188.68 5.594V9.594ZM189.925 10.1005C190.145 10.2879 190.329 10.5657 190.329 11.202H194.329C194.329 9.59696 193.775 8.12546 192.519 7.05551L189.925 10.1005ZM197.498 18.172L196.942 16.2509L195.498 16.6688V18.172H197.498ZM201.516 17.352L201.813 19.3299L201.829 19.3275L201.845 19.3248L201.516 17.352ZM211.233 17.68L210.476 19.5311L210.501 19.5414L210.526 19.5509L211.233 17.68ZM214.144 19.689L212.592 20.9502L212.592 20.9502L214.144 19.689ZM215.661 22.805L213.721 23.2901L213.721 23.2901L215.661 22.805ZM216.112 39V41H218.112V39H216.112ZM210.003 39H208.003V41H210.003V39ZM209.224 23.379L207.534 24.4491L207.534 24.4491L209.224 23.379ZM204.919 22.231L205.03 24.2279L205.085 24.2249L205.14 24.2188L204.919 22.231ZM203.607 22.354L203.324 20.3741L201.607 20.6194V22.354H203.607ZM203.607 39V41H205.607V39H203.607ZM197.498 39H195.498V41H197.498V39ZM198.054 20.0931C198.975 19.8264 200.219 19.5689 201.813 19.3299L201.219 15.3741C199.533 15.6271 198.098 15.9162 196.942 16.2509L198.054 20.0931ZM201.845 19.3248C203.367 19.071 204.979 18.942 206.682 18.942V14.942C204.777 14.942 202.945 15.0863 201.187 15.3792L201.845 19.3248ZM206.682 18.942C208.352 18.942 209.59 19.1689 210.476 19.5311L211.99 15.8289C210.47 15.2071 208.675 14.942 206.682 14.942V18.942ZM210.526 19.5509C211.481 19.9117 212.139 20.3927 212.592 20.9502L215.696 18.4278C214.728 17.2359 213.445 16.3776 211.94 15.8091L210.526 19.5509ZM212.592 20.9502C213.1 21.5758 213.484 22.3427 213.721 23.2901L217.601 22.3199C217.237 20.862 216.609 19.5516 215.696 18.4278L212.592 20.9502ZM213.721 23.2901C213.975 24.3074 214.112 25.4805 214.112 26.823H218.112C218.112 25.2135 217.948 23.7079 217.601 22.3199L213.721 23.2901ZM214.112 26.823V39H218.112V26.823H214.112ZM216.112 37H210.003V41H216.112V37ZM212.003 39V27.561H208.003V39H212.003ZM212.003 27.561C212.003 25.5321 211.757 23.6399 210.914 22.3089L207.534 24.4491C207.73 24.7581 208.003 25.6538 208.003 27.561H212.003ZM210.914 22.3089C209.875 20.6696 208.076 20.149 206.313 20.149V24.149C206.844 24.149 207.159 24.2274 207.328 24.2988C207.472 24.3594 207.511 24.4129 207.534 24.4491L210.914 22.3089ZM206.313 20.149C205.793 20.149 205.254 20.1815 204.698 20.2432L205.14 24.2188C205.568 24.1712 205.958 24.149 206.313 24.149V20.149ZM204.808 20.2341C204.273 20.2638 203.777 20.3094 203.324 20.3741L203.89 24.3339C204.202 24.2892 204.581 24.2529 205.03 24.2279L204.808 20.2341ZM201.607 22.354V39H205.607V22.354H201.607ZM203.607 37H197.498V41H203.607V37ZM199.498 39V18.172H195.498V39H199.498ZM221.477 23.379L219.63 22.6122L219.627 22.6211L219.623 22.6301L221.477 23.379ZM223.814 19.771L222.4 18.3568L222.4 18.3568L223.814 19.771ZM227.094 17.598L226.366 15.7355L226.359 15.7383L226.352 15.741L227.094 17.598ZM238.205 19.689L236.75 21.0604L236.755 21.0657L236.76 21.071L238.205 19.689ZM240.829 29.119L242.825 29.252L242.826 29.2438L240.829 29.119ZM240.747 30.226V32.226H242.588L242.741 30.3921L240.747 30.226ZM226.889 30.226V28.226H224.66L224.901 30.4421L226.889 30.226ZM228.652 33.219L227.494 34.8494L227.494 34.8494L228.652 33.219ZM236.114 34.039L236.468 36.0075L236.487 36.004L236.507 36.0002L236.114 34.039ZM238.779 33.26L240.753 32.9338L240.333 30.3916L237.974 31.4294L238.779 33.26ZM239.599 38.221L240.494 40.0099L241.813 39.3502L241.573 37.8948L239.599 38.221ZM238.287 38.713L237.713 36.7973L237.713 36.7973L238.287 38.713ZM236.442 39.123L236.127 37.1481L236.08 37.1555L236.035 37.165L236.442 39.123ZM234.31 39.451L234.524 41.4396L234.524 41.4396L234.31 39.451ZM226.93 38.713L226.182 40.5675L226.194 40.5724L226.93 38.713ZM223.363 36.376L221.891 37.7293L221.91 37.75L221.929 37.7702L223.363 36.376ZM221.272 32.809L219.368 33.4186L219.373 33.4357L219.379 33.4528L221.272 32.809ZM234.966 26.044V28.044H237.075L236.964 25.9389L234.966 26.044ZM234.679 24.527L232.752 25.0623L232.766 25.1112L232.782 25.1595L234.679 24.527ZM233.982 23.215L232.41 24.4506L232.436 24.4842L232.464 24.5166L233.982 23.215ZM232.793 22.272L231.858 24.0396L231.878 24.0505L231.899 24.0609L232.793 22.272ZM229.267 22.272L230.08 24.0996L230.121 24.0812L230.162 24.0609L229.267 22.272ZM228.037 23.174L226.519 21.8724L228.037 23.174ZM227.258 24.527L225.382 23.8356L225.371 23.8649L225.361 23.8945L227.258 24.527ZM226.889 26.044L224.914 25.7321L224.549 28.044H226.889V26.044ZM222.616 28.381C222.616 26.6629 222.875 25.2602 223.332 24.1279L219.623 22.6301C218.932 24.3404 218.616 26.2725 218.616 28.381H222.616ZM223.325 24.1458C223.841 22.9011 224.485 21.9294 225.229 21.1852L222.4 18.3568C221.231 19.5259 220.316 20.9596 219.63 22.6122L223.325 24.1458ZM225.229 21.1852C225.998 20.4159 226.864 19.8442 227.837 19.455L226.352 15.741C224.865 16.3358 223.544 17.2128 222.4 18.3568L225.229 21.1852ZM227.823 19.4605C228.855 19.0567 229.893 18.86 230.948 18.86V14.86C229.38 14.86 227.848 15.1553 226.366 15.7355L227.823 19.4605ZM230.948 18.86C233.567 18.86 235.419 19.6483 236.75 21.0604L239.661 18.3176C237.438 15.9577 234.452 14.86 230.948 14.86V18.86ZM236.76 21.071C238.056 22.4272 238.87 24.5955 238.87 27.93H242.87C242.87 23.9938 241.908 20.6681 239.651 18.307L236.76 21.071ZM238.87 27.93C238.87 28.2355 238.859 28.5893 238.833 28.9942L242.826 29.2438C242.855 28.774 242.87 28.3352 242.87 27.93H238.87ZM238.834 28.986C238.807 29.3875 238.781 29.7452 238.754 30.0599L242.741 30.3921C242.769 30.0508 242.797 29.6705 242.825 29.252L238.834 28.986ZM240.747 28.226H226.889V32.226H240.747V28.226ZM224.901 30.4421C225.1 32.2726 225.993 33.7831 227.494 34.8494L229.811 31.5886C229.234 31.1789 228.952 30.694 228.878 30.0099L224.901 30.4421ZM227.494 34.8494C228.976 35.9026 230.821 36.326 232.834 36.326V32.326C231.349 32.326 230.406 32.0114 229.811 31.5886L227.494 34.8494ZM232.834 36.326C234.07 36.326 235.281 36.2205 236.468 36.0075L235.761 32.0705C234.816 32.2401 233.841 32.326 232.834 32.326V36.326ZM236.507 36.0002C237.68 35.7655 238.721 35.4706 239.585 35.0906L237.974 31.4294C237.471 31.6507 236.736 31.8751 235.722 32.0778L236.507 36.0002ZM236.806 33.5862L237.626 38.5472L241.573 37.8948L240.753 32.9338L236.806 33.5862ZM238.705 36.4321C238.52 36.5247 238.203 36.6503 237.713 36.7973L238.862 40.6287C239.465 40.4477 240.023 40.2453 240.494 40.0099L238.705 36.4321ZM237.713 36.7973C237.267 36.9312 236.74 37.05 236.127 37.1481L236.758 41.0979C237.512 40.9774 238.215 40.8228 238.862 40.6287L237.713 36.7973ZM236.035 37.165C235.452 37.2865 234.807 37.3864 234.097 37.4624L234.524 41.4396C235.345 41.3516 236.121 41.2328 236.85 41.081L236.035 37.165ZM234.097 37.4624C233.402 37.5368 232.708 37.574 232.014 37.574V41.574C232.851 41.574 233.688 41.5292 234.524 41.4396L234.097 37.4624ZM232.014 37.574C230.266 37.574 228.832 37.315 227.667 36.8536L226.194 40.5724C227.927 41.259 229.881 41.574 232.014 41.574V37.574ZM227.679 36.8585C226.486 36.3764 225.539 35.7443 224.797 34.9818L221.929 37.7702C223.102 38.9757 224.533 39.9016 226.182 40.5675L227.679 36.8585ZM224.836 35.0227C224.104 34.2265 223.546 33.2824 223.166 32.1652L219.379 33.4528C219.928 35.0689 220.764 36.5029 221.891 37.7293L224.836 35.0227ZM223.177 32.1994C222.809 31.0493 222.616 29.781 222.616 28.381H218.616C218.616 30.1517 218.861 31.8354 219.368 33.4186L223.177 32.1994ZM236.964 25.9389C236.927 25.2406 236.798 24.5575 236.577 23.8945L232.782 25.1595C232.889 25.4805 232.951 25.8087 232.969 26.1491L236.964 25.9389ZM236.607 23.9917C236.393 23.2213 236.022 22.5215 235.501 21.9134L232.464 24.5166C232.599 24.6738 232.693 24.8487 232.752 25.0623L236.607 23.9917ZM235.555 21.9794C235.05 21.3359 234.41 20.8439 233.688 20.4831L231.899 24.0609C232.161 24.1921 232.314 24.3288 232.41 24.4506L235.555 21.9794ZM233.729 20.5044C232.893 20.0616 231.958 19.903 231.03 19.903V23.903C231.525 23.903 231.765 23.9904 231.858 24.0396L233.729 20.5044ZM231.03 19.903C230.11 19.903 229.202 20.0687 228.373 20.4831L230.162 24.0609C230.317 23.9833 230.584 23.903 231.03 23.903V19.903ZM228.455 20.4444C227.711 20.7753 227.053 21.2489 226.519 21.8724L229.556 24.4756C229.678 24.3338 229.84 24.206 230.08 24.0996L228.455 20.4444ZM226.519 21.8724C226.022 22.4525 225.647 23.1151 225.382 23.8356L229.135 25.2184C229.252 24.9003 229.397 24.6609 229.556 24.4756L226.519 21.8724ZM225.361 23.8945C225.162 24.4925 225.013 25.1054 224.914 25.7321L228.865 26.3559C228.93 25.9439 229.027 25.5455 229.156 25.1595L225.361 23.8945ZM226.889 28.044H234.966V24.044H226.889V28.044ZM245.421 23.379L243.574 22.6122L243.57 22.6211L243.566 22.6301L245.421 23.379ZM247.758 19.771L246.344 18.3568L246.344 18.3568L247.758 19.771ZM251.038 17.598L250.309 15.7355L250.302 15.7383L250.295 15.741L251.038 17.598ZM262.149 19.689L260.693 21.0604L260.698 21.0657L260.703 21.071L262.149 19.689ZM264.773 29.119L266.768 29.252L266.769 29.2438L264.773 29.119ZM264.691 30.226V32.226H266.531L266.684 30.3921L264.691 30.226ZM250.833 30.226V28.226H248.604L248.845 30.4421L250.833 30.226ZM252.596 33.219L251.437 34.8494L251.437 34.8494L252.596 33.219ZM260.058 34.039L260.411 36.0075L260.431 36.004L260.45 36.0002L260.058 34.039ZM262.723 33.26L264.696 32.9338L264.276 30.3916L261.917 31.4294L262.723 33.26ZM263.543 38.221L264.437 40.0099L265.757 39.3502L265.516 37.8948L263.543 38.221ZM262.231 38.713L261.656 36.7973L261.656 36.7973L262.231 38.713ZM260.386 39.123L260.07 37.1481L260.024 37.1555L259.978 37.165L260.386 39.123ZM258.254 39.451L258.467 41.4396L258.467 41.4396L258.254 39.451ZM250.874 38.713L250.125 40.5675L250.137 40.5724L250.874 38.713ZM247.307 36.376L245.834 37.7293L245.853 37.75L245.873 37.7702L247.307 36.376ZM245.216 32.809L243.311 33.4186L243.316 33.4357L243.322 33.4528L245.216 32.809ZM258.91 26.044V28.044H261.018L260.907 25.9389L258.91 26.044ZM258.623 24.527L256.696 25.0623L256.709 25.1112L256.725 25.1595L258.623 24.527ZM257.926 23.215L256.353 24.4506L256.38 24.4842L256.407 24.5166L257.926 23.215ZM256.737 22.272L255.801 24.0396L255.822 24.0505L255.842 24.0609L256.737 22.272ZM253.211 22.272L254.023 24.0996L254.065 24.0812L254.105 24.0609L253.211 22.272ZM251.981 23.174L250.462 21.8724L251.981 23.174ZM251.202 24.527L249.325 23.8356L249.314 23.8649L249.304 23.8945L251.202 24.527ZM250.833 26.044L248.857 25.7321L248.492 28.044H250.833V26.044ZM246.56 28.381C246.56 26.6629 246.818 25.2602 247.275 24.1279L243.566 22.6301C242.876 24.3404 242.56 26.2725 242.56 28.381H246.56ZM247.268 24.1458C247.785 22.9011 248.428 21.9294 249.172 21.1852L246.344 18.3568C245.174 19.5259 244.26 20.9596 243.574 22.6122L247.268 24.1458ZM249.172 21.1852C249.941 20.4159 250.808 19.8442 251.781 19.455L250.295 15.741C248.808 16.3358 247.488 17.2128 246.344 18.3568L249.172 21.1852ZM251.767 19.4605C252.799 19.0567 253.837 18.86 254.892 18.86V14.86C253.323 14.86 251.792 15.1553 250.309 15.7355L251.767 19.4605ZM254.892 18.86C257.511 18.86 259.363 19.6483 260.693 21.0604L263.605 18.3176C261.382 15.9577 258.396 14.86 254.892 14.86V18.86ZM260.703 21.071C262 22.4272 262.814 24.5955 262.814 27.93H266.814C266.814 23.9938 265.852 20.6681 263.595 18.307L260.703 21.071ZM262.814 27.93C262.814 28.2355 262.802 28.5893 262.777 28.9942L266.769 29.2438C266.798 28.774 266.814 28.3352 266.814 27.93H262.814ZM262.777 28.986C262.751 29.3875 262.724 29.7452 262.698 30.0599L266.684 30.3921C266.712 30.0508 266.741 29.6705 266.768 29.252L262.777 28.986ZM264.691 28.226H250.833V32.226H264.691V28.226ZM248.845 30.4421C249.044 32.2726 249.937 33.7831 251.437 34.8494L253.754 31.5886C253.178 31.1789 252.895 30.694 252.821 30.0099L248.845 30.4421ZM251.437 34.8494C252.92 35.9026 254.765 36.326 256.778 36.326V32.326C255.292 32.326 254.349 32.0114 253.754 31.5886L251.437 34.8494ZM256.778 36.326C258.013 36.326 259.225 36.2205 260.411 36.0075L259.705 32.0705C258.759 32.2401 257.784 32.326 256.778 32.326V36.326ZM260.45 36.0002C261.623 35.7655 262.665 35.4706 263.528 35.0906L261.917 31.4294C261.414 31.6507 260.679 31.8751 259.666 32.0778L260.45 36.0002ZM260.75 33.5862L261.57 38.5472L265.516 37.8948L264.696 32.9338L260.75 33.5862ZM262.648 36.4321C262.463 36.5247 262.146 36.6503 261.656 36.7973L262.806 40.6287C263.409 40.4477 263.966 40.2453 264.437 40.0099L262.648 36.4321ZM261.656 36.7973C261.21 36.9312 260.683 37.05 260.07 37.1481L260.702 41.0979C261.455 40.9774 262.158 40.8228 262.806 40.6287L261.656 36.7973ZM259.978 37.165C259.395 37.2865 258.75 37.3864 258.041 37.4624L258.467 41.4396C259.288 41.3516 260.065 41.2328 260.794 41.081L259.978 37.165ZM258.041 37.4624C257.346 37.5368 256.652 37.574 255.958 37.574V41.574C256.795 41.574 257.631 41.5292 258.467 41.4396L258.041 37.4624ZM255.958 37.574C254.21 37.574 252.775 37.315 251.611 36.8536L250.137 40.5724C251.87 41.259 253.825 41.574 255.958 41.574V37.574ZM251.623 36.8585C250.429 36.3764 249.482 35.7443 248.741 34.9818L245.873 37.7702C247.045 38.9757 248.476 39.9016 250.125 40.5675L251.623 36.8585ZM248.779 35.0227C248.048 34.2265 247.489 33.2824 247.109 32.1652L243.322 33.4528C243.872 35.0689 244.707 36.5029 245.834 37.7293L248.779 35.0227ZM247.121 32.1994C246.753 31.0493 246.56 29.781 246.56 28.381H242.56C242.56 30.1517 242.804 31.8354 243.311 33.4186L247.121 32.1994ZM260.907 25.9389C260.87 25.2406 260.741 24.5575 260.52 23.8945L256.725 25.1595C256.832 25.4805 256.895 25.8087 256.913 26.1491L260.907 25.9389ZM260.55 23.9917C260.336 23.2213 259.966 22.5215 259.444 21.9134L256.407 24.5166C256.542 24.6738 256.636 24.8487 256.696 25.0623L260.55 23.9917ZM259.498 21.9794C258.993 21.3359 258.353 20.8439 257.631 20.4831L255.842 24.0609C256.105 24.1921 256.257 24.3288 256.353 24.4506L259.498 21.9794ZM257.673 20.5044C256.836 20.0616 255.901 19.903 254.974 19.903V23.903C255.468 23.903 255.708 23.9904 255.801 24.0396L257.673 20.5044ZM254.974 19.903C254.054 19.903 253.145 20.0687 252.316 20.4831L254.105 24.0609C254.26 23.9833 254.527 23.903 254.974 23.903V19.903ZM252.399 20.4444C251.654 20.7753 250.997 21.2489 250.462 21.8724L253.499 24.4756C253.621 24.3338 253.784 24.206 254.023 24.0996L252.399 20.4444ZM250.462 21.8724C249.965 22.4525 249.591 23.1151 249.325 23.8356L253.079 25.2184C253.196 24.9003 253.341 24.6609 253.499 24.4756L250.462 21.8724ZM249.304 23.8945C249.105 24.4925 248.956 25.1054 248.857 25.7321L252.808 26.3559C252.873 25.9439 252.971 25.5455 253.099 25.1595L249.304 23.8945ZM250.833 28.044H258.91V24.044H250.833V28.044Z" fill="#FF6501" mask="url(#path-2-outside-1_77_341)"/>
<mask id="path-4-outside-2_77_341" maskUnits="userSpaceOnUse" x="125" y="40" width="175" height="46" fill="black">
<rect fill="white" x="125" y="40" width="175" height="46"/>
<path d="M127.87 55.172C128.909 54.8713 130.248 54.598 131.888 54.352C133.528 54.0787 135.25 53.942 137.054 53.942C138.885 53.942 140.402 54.188 141.605 54.68C142.835 55.1447 143.805 55.8143 144.516 56.689C145.227 57.5637 145.732 58.6023 146.033 59.805C146.334 61.0077 146.484 62.347 146.484 63.823V76H140.375V64.561C140.375 62.593 140.115 61.199 139.596 60.379C139.077 59.559 138.106 59.149 136.685 59.149C136.248 59.149 135.783 59.1763 135.291 59.231C134.799 59.2583 134.362 59.2993 133.979 59.354V76H127.87V55.172ZM150.989 65.381C150.989 63.4677 151.276 61.8003 151.85 60.379C152.451 58.9303 153.23 57.7277 154.187 56.771C155.143 55.8143 156.237 55.09 157.467 54.598C158.724 54.106 160.009 53.86 161.321 53.86C164.382 53.86 166.801 54.803 168.578 56.689C170.354 58.5477 171.243 61.2947 171.243 64.93C171.243 65.2853 171.229 65.6817 171.202 66.119C171.174 66.529 171.147 66.898 171.12 67.226H157.262C157.398 68.4833 157.986 69.481 159.025 70.219C160.063 70.957 161.457 71.326 163.207 71.326C164.327 71.326 165.421 71.2303 166.487 71.039C167.58 70.8203 168.468 70.5607 169.152 70.26L169.972 75.221C169.644 75.385 169.206 75.549 168.66 75.713C168.113 75.877 167.498 76.0137 166.815 76.123C166.159 76.2597 165.448 76.369 164.683 76.451C163.917 76.533 163.152 76.574 162.387 76.574C160.446 76.574 158.751 76.287 157.303 75.713C155.881 75.139 154.692 74.36 153.736 73.376C152.806 72.3647 152.109 71.1757 151.645 69.809C151.207 68.4423 150.989 66.9663 150.989 65.381ZM165.339 63.044C165.311 62.5247 165.216 62.019 165.052 61.527C164.915 61.035 164.683 60.5977 164.355 60.215C164.054 59.8323 163.658 59.518 163.166 59.272C162.701 59.026 162.113 58.903 161.403 58.903C160.719 58.903 160.132 59.026 159.64 59.272C159.148 59.4907 158.738 59.7913 158.41 60.174C158.082 60.5567 157.822 61.0077 157.631 61.527C157.467 62.019 157.344 62.5247 157.262 63.044H165.339ZM181.164 64.52C181.164 67.9367 182.544 69.645 185.305 69.645C185.934 69.645 186.521 69.563 187.068 69.399C187.615 69.235 188.079 69.0437 188.462 68.825V59.067C188.161 59.0123 187.806 58.9713 187.396 58.944C186.986 58.8893 186.508 58.862 185.961 58.862C184.348 58.862 183.146 59.395 182.353 60.461C181.56 61.527 181.164 62.88 181.164 64.52ZM194.571 73.294C194.571 76.82 193.669 79.4303 191.865 81.125C190.088 82.847 187.328 83.708 183.583 83.708C182.271 83.708 180.959 83.585 179.647 83.339C178.335 83.1203 177.119 82.8197 175.998 82.437L177.064 77.312C178.021 77.6947 179.018 77.9953 180.057 78.214C181.123 78.4327 182.326 78.542 183.665 78.542C185.414 78.542 186.644 78.1593 187.355 77.394C188.093 76.6287 188.462 75.6447 188.462 74.442V73.663C187.806 73.9637 187.123 74.196 186.412 74.36C185.729 74.4967 184.977 74.565 184.157 74.565C181.178 74.565 178.895 73.6903 177.31 71.941C175.725 70.1643 174.932 67.6907 174.932 64.52C174.932 62.9347 175.178 61.4997 175.67 60.215C176.162 58.903 176.873 57.7823 177.802 56.853C178.759 55.9237 179.92 55.213 181.287 54.721C182.654 54.2017 184.198 53.942 185.92 53.942C186.658 53.942 187.41 53.983 188.175 54.065C188.968 54.1197 189.747 54.2017 190.512 54.311C191.277 54.4203 192.002 54.557 192.685 54.721C193.396 54.8577 194.024 55.008 194.571 55.172V73.294ZM220.473 65.176C220.473 66.8707 220.227 68.4287 219.735 69.85C219.243 71.244 218.532 72.4467 217.603 73.458C216.673 74.442 215.553 75.2073 214.241 75.754C212.956 76.3007 211.507 76.574 209.895 76.574C208.309 76.574 206.861 76.3007 205.549 75.754C204.264 75.2073 203.157 74.442 202.228 73.458C201.298 72.4467 200.574 71.244 200.055 69.85C199.535 68.4287 199.276 66.8707 199.276 65.176C199.276 63.4813 199.535 61.937 200.055 60.543C200.601 59.149 201.339 57.96 202.269 56.976C203.225 55.992 204.346 55.2267 205.631 54.68C206.943 54.1333 208.364 53.86 209.895 53.86C211.453 53.86 212.874 54.1333 214.159 54.68C215.471 55.2267 216.591 55.992 217.521 56.976C218.45 57.96 219.174 59.149 219.694 60.543C220.213 61.937 220.473 63.4813 220.473 65.176ZM214.241 65.176C214.241 63.29 213.858 61.814 213.093 60.748C212.355 59.6547 211.289 59.108 209.895 59.108C208.501 59.108 207.421 59.6547 206.656 60.748C205.89 61.814 205.508 63.29 205.508 65.176C205.508 67.062 205.89 68.5653 206.656 69.686C207.421 70.7793 208.501 71.326 209.895 71.326C211.289 71.326 212.355 70.7793 213.093 69.686C213.858 68.5653 214.241 67.062 214.241 65.176ZM214.938 46.685L208.173 52.384L205.385 49.883L211.207 43.241L214.938 46.685ZM224.18 65.217C224.18 63.659 224.426 62.1967 224.918 60.83C225.437 59.436 226.175 58.2333 227.132 57.222C228.089 56.1833 229.25 55.3633 230.617 54.762C231.984 54.1607 233.542 53.86 235.291 53.86C236.439 53.86 237.491 53.9693 238.448 54.188C239.405 54.3793 240.334 54.6663 241.236 55.049L239.965 59.928C239.391 59.7093 238.762 59.518 238.079 59.354C237.396 59.19 236.63 59.108 235.783 59.108C233.979 59.108 232.626 59.6683 231.724 60.789C230.849 61.9097 230.412 63.3857 230.412 65.217C230.412 67.1577 230.822 68.661 231.642 69.727C232.489 70.793 233.952 71.326 236.029 71.326C236.767 71.326 237.56 71.2577 238.407 71.121C239.254 70.9843 240.033 70.7657 240.744 70.465L241.605 75.467C240.894 75.7677 240.006 76.0273 238.94 76.246C237.874 76.4647 236.699 76.574 235.414 76.574C233.446 76.574 231.751 76.287 230.33 75.713C228.909 75.1117 227.733 74.3053 226.804 73.294C225.902 72.2827 225.232 71.0937 224.795 69.727C224.385 68.333 224.18 66.8297 224.18 65.217ZM251.814 76H245.705V54.434H251.814V76ZM252.388 48.202C252.388 49.3227 252.019 50.211 251.281 50.867C250.57 51.4957 249.723 51.81 248.739 51.81C247.755 51.81 246.894 51.4957 246.156 50.867C245.445 50.211 245.09 49.3227 245.09 48.202C245.09 47.0813 245.445 46.2067 246.156 45.578C246.894 44.922 247.755 44.594 248.739 44.594C249.723 44.594 250.57 44.922 251.281 45.578C252.019 46.2067 252.388 47.0813 252.388 48.202ZM277.729 65.176C277.729 66.8707 277.483 68.4287 276.991 69.85C276.499 71.244 275.788 72.4467 274.859 73.458C273.929 74.442 272.809 75.2073 271.497 75.754C270.212 76.3007 268.763 76.574 267.151 76.574C265.565 76.574 264.117 76.3007 262.805 75.754C261.52 75.2073 260.413 74.442 259.484 73.458C258.554 72.4467 257.83 71.244 257.311 69.85C256.791 68.4287 256.532 66.8707 256.532 65.176C256.532 63.4813 256.791 61.937 257.311 60.543C257.857 59.149 258.595 57.96 259.525 56.976C260.481 55.992 261.602 55.2267 262.887 54.68C264.199 54.1333 265.62 53.86 267.151 53.86C268.709 53.86 270.13 54.1333 271.415 54.68C272.727 55.2267 273.847 55.992 274.777 56.976C275.706 57.96 276.43 59.149 276.95 60.543C277.469 61.937 277.729 63.4813 277.729 65.176ZM271.497 65.176C271.497 63.29 271.114 61.814 270.349 60.748C269.611 59.6547 268.545 59.108 267.151 59.108C265.757 59.108 264.677 59.6547 263.912 60.748C263.146 61.814 262.764 63.29 262.764 65.176C262.764 67.062 263.146 68.5653 263.912 69.686C264.677 70.7793 265.757 71.326 267.151 71.326C268.545 71.326 269.611 70.7793 270.349 69.686C271.114 68.5653 271.497 67.062 271.497 65.176ZM288.652 71.613C289.772 71.613 290.565 71.5037 291.03 71.285C291.494 71.0663 291.727 70.6427 291.727 70.014C291.727 69.522 291.426 69.0983 290.825 68.743C290.223 68.3603 289.308 67.9367 288.078 67.472C287.121 67.1167 286.246 66.7477 285.454 66.365C284.688 65.9823 284.032 65.5313 283.486 65.012C282.939 64.4653 282.515 63.823 282.215 63.085C281.914 62.347 281.764 61.4587 281.764 60.42C281.764 58.3973 282.515 56.7983 284.019 55.623C285.522 54.4477 287.586 53.86 290.21 53.86C291.522 53.86 292.779 53.983 293.982 54.229C295.184 54.4477 296.141 54.6937 296.852 54.967L295.786 59.723C295.075 59.477 294.296 59.2583 293.449 59.067C292.629 58.8757 291.699 58.78 290.661 58.78C288.747 58.78 287.791 59.313 287.791 60.379C287.791 60.625 287.832 60.8437 287.914 61.035C287.996 61.2263 288.16 61.4177 288.406 61.609C288.652 61.773 288.98 61.9643 289.39 62.183C289.827 62.3743 290.374 62.593 291.03 62.839C292.369 63.331 293.476 63.823 294.351 64.315C295.225 64.7797 295.909 65.299 296.401 65.873C296.92 66.4197 297.275 67.0347 297.467 67.718C297.685 68.4013 297.795 69.194 297.795 70.096C297.795 72.228 296.988 73.8407 295.376 74.934C293.79 76.0273 291.535 76.574 288.611 76.574C286.697 76.574 285.098 76.41 283.814 76.082C282.556 75.754 281.682 75.4807 281.19 75.262L282.215 70.301C283.253 70.711 284.319 71.039 285.413 71.285C286.506 71.5037 287.586 71.613 288.652 71.613Z"/>
</mask>
<path d="M127.87 55.172C128.909 54.8713 130.248 54.598 131.888 54.352C133.528 54.0787 135.25 53.942 137.054 53.942C138.885 53.942 140.402 54.188 141.605 54.68C142.835 55.1447 143.805 55.8143 144.516 56.689C145.227 57.5637 145.732 58.6023 146.033 59.805C146.334 61.0077 146.484 62.347 146.484 63.823V76H140.375V64.561C140.375 62.593 140.115 61.199 139.596 60.379C139.077 59.559 138.106 59.149 136.685 59.149C136.248 59.149 135.783 59.1763 135.291 59.231C134.799 59.2583 134.362 59.2993 133.979 59.354V76H127.87V55.172ZM150.989 65.381C150.989 63.4677 151.276 61.8003 151.85 60.379C152.451 58.9303 153.23 57.7277 154.187 56.771C155.143 55.8143 156.237 55.09 157.467 54.598C158.724 54.106 160.009 53.86 161.321 53.86C164.382 53.86 166.801 54.803 168.578 56.689C170.354 58.5477 171.243 61.2947 171.243 64.93C171.243 65.2853 171.229 65.6817 171.202 66.119C171.174 66.529 171.147 66.898 171.12 67.226H157.262C157.398 68.4833 157.986 69.481 159.025 70.219C160.063 70.957 161.457 71.326 163.207 71.326C164.327 71.326 165.421 71.2303 166.487 71.039C167.58 70.8203 168.468 70.5607 169.152 70.26L169.972 75.221C169.644 75.385 169.206 75.549 168.66 75.713C168.113 75.877 167.498 76.0137 166.815 76.123C166.159 76.2597 165.448 76.369 164.683 76.451C163.917 76.533 163.152 76.574 162.387 76.574C160.446 76.574 158.751 76.287 157.303 75.713C155.881 75.139 154.692 74.36 153.736 73.376C152.806 72.3647 152.109 71.1757 151.645 69.809C151.207 68.4423 150.989 66.9663 150.989 65.381ZM165.339 63.044C165.311 62.5247 165.216 62.019 165.052 61.527C164.915 61.035 164.683 60.5977 164.355 60.215C164.054 59.8323 163.658 59.518 163.166 59.272C162.701 59.026 162.113 58.903 161.403 58.903C160.719 58.903 160.132 59.026 159.64 59.272C159.148 59.4907 158.738 59.7913 158.41 60.174C158.082 60.5567 157.822 61.0077 157.631 61.527C157.467 62.019 157.344 62.5247 157.262 63.044H165.339ZM181.164 64.52C181.164 67.9367 182.544 69.645 185.305 69.645C185.934 69.645 186.521 69.563 187.068 69.399C187.615 69.235 188.079 69.0437 188.462 68.825V59.067C188.161 59.0123 187.806 58.9713 187.396 58.944C186.986 58.8893 186.508 58.862 185.961 58.862C184.348 58.862 183.146 59.395 182.353 60.461C181.56 61.527 181.164 62.88 181.164 64.52ZM194.571 73.294C194.571 76.82 193.669 79.4303 191.865 81.125C190.088 82.847 187.328 83.708 183.583 83.708C182.271 83.708 180.959 83.585 179.647 83.339C178.335 83.1203 177.119 82.8197 175.998 82.437L177.064 77.312C178.021 77.6947 179.018 77.9953 180.057 78.214C181.123 78.4327 182.326 78.542 183.665 78.542C185.414 78.542 186.644 78.1593 187.355 77.394C188.093 76.6287 188.462 75.6447 188.462 74.442V73.663C187.806 73.9637 187.123 74.196 186.412 74.36C185.729 74.4967 184.977 74.565 184.157 74.565C181.178 74.565 178.895 73.6903 177.31 71.941C175.725 70.1643 174.932 67.6907 174.932 64.52C174.932 62.9347 175.178 61.4997 175.67 60.215C176.162 58.903 176.873 57.7823 177.802 56.853C178.759 55.9237 179.92 55.213 181.287 54.721C182.654 54.2017 184.198 53.942 185.92 53.942C186.658 53.942 187.41 53.983 188.175 54.065C188.968 54.1197 189.747 54.2017 190.512 54.311C191.277 54.4203 192.002 54.557 192.685 54.721C193.396 54.8577 194.024 55.008 194.571 55.172V73.294ZM220.473 65.176C220.473 66.8707 220.227 68.4287 219.735 69.85C219.243 71.244 218.532 72.4467 217.603 73.458C216.673 74.442 215.553 75.2073 214.241 75.754C212.956 76.3007 211.507 76.574 209.895 76.574C208.309 76.574 206.861 76.3007 205.549 75.754C204.264 75.2073 203.157 74.442 202.228 73.458C201.298 72.4467 200.574 71.244 200.055 69.85C199.535 68.4287 199.276 66.8707 199.276 65.176C199.276 63.4813 199.535 61.937 200.055 60.543C200.601 59.149 201.339 57.96 202.269 56.976C203.225 55.992 204.346 55.2267 205.631 54.68C206.943 54.1333 208.364 53.86 209.895 53.86C211.453 53.86 212.874 54.1333 214.159 54.68C215.471 55.2267 216.591 55.992 217.521 56.976C218.45 57.96 219.174 59.149 219.694 60.543C220.213 61.937 220.473 63.4813 220.473 65.176ZM214.241 65.176C214.241 63.29 213.858 61.814 213.093 60.748C212.355 59.6547 211.289 59.108 209.895 59.108C208.501 59.108 207.421 59.6547 206.656 60.748C205.89 61.814 205.508 63.29 205.508 65.176C205.508 67.062 205.89 68.5653 206.656 69.686C207.421 70.7793 208.501 71.326 209.895 71.326C211.289 71.326 212.355 70.7793 213.093 69.686C213.858 68.5653 214.241 67.062 214.241 65.176ZM214.938 46.685L208.173 52.384L205.385 49.883L211.207 43.241L214.938 46.685ZM224.18 65.217C224.18 63.659 224.426 62.1967 224.918 60.83C225.437 59.436 226.175 58.2333 227.132 57.222C228.089 56.1833 229.25 55.3633 230.617 54.762C231.984 54.1607 233.542 53.86 235.291 53.86C236.439 53.86 237.491 53.9693 238.448 54.188C239.405 54.3793 240.334 54.6663 241.236 55.049L239.965 59.928C239.391 59.7093 238.762 59.518 238.079 59.354C237.396 59.19 236.63 59.108 235.783 59.108C233.979 59.108 232.626 59.6683 231.724 60.789C230.849 61.9097 230.412 63.3857 230.412 65.217C230.412 67.1577 230.822 68.661 231.642 69.727C232.489 70.793 233.952 71.326 236.029 71.326C236.767 71.326 237.56 71.2577 238.407 71.121C239.254 70.9843 240.033 70.7657 240.744 70.465L241.605 75.467C240.894 75.7677 240.006 76.0273 238.94 76.246C237.874 76.4647 236.699 76.574 235.414 76.574C233.446 76.574 231.751 76.287 230.33 75.713C228.909 75.1117 227.733 74.3053 226.804 73.294C225.902 72.2827 225.232 71.0937 224.795 69.727C224.385 68.333 224.18 66.8297 224.18 65.217ZM251.814 76H245.705V54.434H251.814V76ZM252.388 48.202C252.388 49.3227 252.019 50.211 251.281 50.867C250.57 51.4957 249.723 51.81 248.739 51.81C247.755 51.81 246.894 51.4957 246.156 50.867C245.445 50.211 245.09 49.3227 245.09 48.202C245.09 47.0813 245.445 46.2067 246.156 45.578C246.894 44.922 247.755 44.594 248.739 44.594C249.723 44.594 250.57 44.922 251.281 45.578C252.019 46.2067 252.388 47.0813 252.388 48.202ZM277.729 65.176C277.729 66.8707 277.483 68.4287 276.991 69.85C276.499 71.244 275.788 72.4467 274.859 73.458C273.929 74.442 272.809 75.2073 271.497 75.754C270.212 76.3007 268.763 76.574 267.151 76.574C265.565 76.574 264.117 76.3007 262.805 75.754C261.52 75.2073 260.413 74.442 259.484 73.458C258.554 72.4467 257.83 71.244 257.311 69.85C256.791 68.4287 256.532 66.8707 256.532 65.176C256.532 63.4813 256.791 61.937 257.311 60.543C257.857 59.149 258.595 57.96 259.525 56.976C260.481 55.992 261.602 55.2267 262.887 54.68C264.199 54.1333 265.62 53.86 267.151 53.86C268.709 53.86 270.13 54.1333 271.415 54.68C272.727 55.2267 273.847 55.992 274.777 56.976C275.706 57.96 276.43 59.149 276.95 60.543C277.469 61.937 277.729 63.4813 277.729 65.176ZM271.497 65.176C271.497 63.29 271.114 61.814 270.349 60.748C269.611 59.6547 268.545 59.108 267.151 59.108C265.757 59.108 264.677 59.6547 263.912 60.748C263.146 61.814 262.764 63.29 262.764 65.176C262.764 67.062 263.146 68.5653 263.912 69.686C264.677 70.7793 265.757 71.326 267.151 71.326C268.545 71.326 269.611 70.7793 270.349 69.686C271.114 68.5653 271.497 67.062 271.497 65.176ZM288.652 71.613C289.772 71.613 290.565 71.5037 291.03 71.285C291.494 71.0663 291.727 70.6427 291.727 70.014C291.727 69.522 291.426 69.0983 290.825 68.743C290.223 68.3603 289.308 67.9367 288.078 67.472C287.121 67.1167 286.246 66.7477 285.454 66.365C284.688 65.9823 284.032 65.5313 283.486 65.012C282.939 64.4653 282.515 63.823 282.215 63.085C281.914 62.347 281.764 61.4587 281.764 60.42C281.764 58.3973 282.515 56.7983 284.019 55.623C285.522 54.4477 287.586 53.86 290.21 53.86C291.522 53.86 292.779 53.983 293.982 54.229C295.184 54.4477 296.141 54.6937 296.852 54.967L295.786 59.723C295.075 59.477 294.296 59.2583 293.449 59.067C292.629 58.8757 291.699 58.78 290.661 58.78C288.747 58.78 287.791 59.313 287.791 60.379C287.791 60.625 287.832 60.8437 287.914 61.035C287.996 61.2263 288.16 61.4177 288.406 61.609C288.652 61.773 288.98 61.9643 289.39 62.183C289.827 62.3743 290.374 62.593 291.03 62.839C292.369 63.331 293.476 63.823 294.351 64.315C295.225 64.7797 295.909 65.299 296.401 65.873C296.92 66.4197 297.275 67.0347 297.467 67.718C297.685 68.4013 297.795 69.194 297.795 70.096C297.795 72.228 296.988 73.8407 295.376 74.934C293.79 76.0273 291.535 76.574 288.611 76.574C286.697 76.574 285.098 76.41 283.814 76.082C282.556 75.754 281.682 75.4807 281.19 75.262L282.215 70.301C283.253 70.711 284.319 71.039 285.413 71.285C286.506 71.5037 287.586 71.613 288.652 71.613Z" fill="white"/>
<path d="M127.87 55.172L127.314 53.2509L125.87 53.6688V55.172H127.87ZM131.888 54.352L132.185 56.3299L132.201 56.3275L132.217 56.3248L131.888 54.352ZM141.605 54.68L140.848 56.5311L140.873 56.5414L140.898 56.5509L141.605 54.68ZM144.516 56.689L142.964 57.9502L142.964 57.9502L144.516 56.689ZM146.033 59.805L144.093 60.2901L144.093 60.2901L146.033 59.805ZM146.484 76V78H148.484V76H146.484ZM140.375 76H138.375V78H140.375V76ZM139.596 60.379L137.906 61.4491L137.906 61.4491L139.596 60.379ZM135.291 59.231L135.402 61.2279L135.457 61.2249L135.512 61.2188L135.291 59.231ZM133.979 59.354L133.696 57.3741L131.979 57.6194V59.354H133.979ZM133.979 76V78H135.979V76H133.979ZM127.87 76H125.87V78H127.87V76ZM128.426 57.0931C129.347 56.8264 130.591 56.5689 132.185 56.3299L131.591 52.3741C129.905 52.6271 128.47 52.9162 127.314 53.2509L128.426 57.0931ZM132.217 56.3248C133.739 56.071 135.351 55.942 137.054 55.942V51.942C135.149 51.942 133.317 52.0863 131.559 52.3792L132.217 56.3248ZM137.054 55.942C138.724 55.942 139.962 56.1689 140.848 56.5311L142.362 52.8289C140.842 52.2071 139.047 51.942 137.054 51.942V55.942ZM140.898 56.5509C141.853 56.9117 142.511 57.3927 142.964 57.9502L146.068 55.4278C145.1 54.2359 143.817 53.3776 142.312 52.8091L140.898 56.5509ZM142.964 57.9502C143.472 58.5758 143.856 59.3427 144.093 60.2901L147.973 59.3199C147.609 57.862 146.981 56.5516 146.068 55.4278L142.964 57.9502ZM144.093 60.2901C144.347 61.3074 144.484 62.4805 144.484 63.823H148.484C148.484 62.2135 148.32 60.7079 147.973 59.3199L144.093 60.2901ZM144.484 63.823V76H148.484V63.823H144.484ZM146.484 74H140.375V78H146.484V74ZM142.375 76V64.561H138.375V76H142.375ZM142.375 64.561C142.375 62.5321 142.129 60.6399 141.286 59.3089L137.906 61.4491C138.102 61.7581 138.375 62.6538 138.375 64.561H142.375ZM141.286 59.3089C140.247 57.6696 138.448 57.149 136.685 57.149V61.149C137.216 61.149 137.531 61.2274 137.7 61.2988C137.844 61.3594 137.883 61.4129 137.906 61.4491L141.286 59.3089ZM136.685 57.149C136.165 57.149 135.626 57.1815 135.07 57.2432L135.512 61.2188C135.94 61.1712 136.33 61.149 136.685 61.149V57.149ZM135.18 57.2341C134.645 57.2638 134.149 57.3094 133.696 57.3741L134.262 61.3339C134.575 61.2892 134.953 61.2529 135.402 61.2279L135.18 57.2341ZM131.979 59.354V76H135.979V59.354H131.979ZM133.979 74H127.87V78H133.979V74ZM129.87 76V55.172H125.87V76H129.87ZM151.85 60.379L150.002 59.6122L149.999 59.6211L149.995 59.6301L151.85 60.379ZM154.187 56.771L152.772 55.3568L152.772 55.3568L154.187 56.771ZM157.467 54.598L156.738 52.7355L156.731 52.7383L156.724 52.741L157.467 54.598ZM168.578 56.689L167.122 58.0604L167.127 58.0657L167.132 58.071L168.578 56.689ZM171.202 66.119L173.197 66.252L173.198 66.2438L171.202 66.119ZM171.12 67.226V69.226H172.96L173.113 67.3921L171.12 67.226ZM157.262 67.226V65.226H155.032L155.273 67.4421L157.262 67.226ZM159.025 70.219L157.866 71.8494L157.866 71.8494L159.025 70.219ZM166.487 71.039L166.84 73.0075L166.859 73.004L166.879 73.0002L166.487 71.039ZM169.152 70.26L171.125 69.9338L170.705 67.3916L168.346 68.4294L169.152 70.26ZM169.972 75.221L170.866 77.0099L172.185 76.3502L171.945 74.8948L169.972 75.221ZM168.66 75.713L168.085 73.7973L168.085 73.7973L168.66 75.713ZM166.815 76.123L166.499 74.1481L166.452 74.1555L166.407 74.165L166.815 76.123ZM164.683 76.451L164.896 78.4396L164.896 78.4396L164.683 76.451ZM157.303 75.713L156.554 77.5675L156.566 77.5724L157.303 75.713ZM153.736 73.376L152.263 74.7293L152.282 74.75L152.302 74.7702L153.736 73.376ZM151.645 69.809L149.74 70.4186L149.745 70.4357L149.751 70.4528L151.645 69.809ZM165.339 63.044V65.044H167.447L167.336 62.9389L165.339 63.044ZM165.052 61.527L163.125 62.0623L163.138 62.1112L163.154 62.1595L165.052 61.527ZM164.355 60.215L162.782 61.4506L162.808 61.4842L162.836 61.5166L164.355 60.215ZM163.166 59.272L162.23 61.0396L162.25 61.0505L162.271 61.0609L163.166 59.272ZM159.64 59.272L160.452 61.0996L160.493 61.0812L160.534 61.0609L159.64 59.272ZM158.41 60.174L156.891 58.8724L158.41 60.174ZM157.631 61.527L155.754 60.8356L155.743 60.8649L155.733 60.8945L157.631 61.527ZM157.262 63.044L155.286 62.7321L154.921 65.044H157.262V63.044ZM152.989 65.381C152.989 63.6629 153.247 62.2602 153.704 61.1279L149.995 59.6301C149.304 61.3404 148.989 63.2725 148.989 65.381H152.989ZM153.697 61.1458C154.213 59.9011 154.857 58.9294 155.601 58.1852L152.772 55.3568C151.603 56.5259 150.688 57.9596 150.002 59.6122L153.697 61.1458ZM155.601 58.1852C156.37 57.4159 157.236 56.8442 158.209 56.455L156.724 52.741C155.237 53.3358 153.916 54.2128 152.772 55.3568L155.601 58.1852ZM158.195 56.4605C159.227 56.0567 160.265 55.86 161.321 55.86V51.86C159.752 51.86 158.22 52.1553 156.738 52.7355L158.195 56.4605ZM161.321 55.86C163.939 55.86 165.792 56.6483 167.122 58.0604L170.033 55.3176C167.81 52.9577 164.824 51.86 161.321 51.86V55.86ZM167.132 58.071C168.428 59.4272 169.243 61.5955 169.243 64.93H173.243C173.243 60.9938 172.28 57.6681 170.023 55.307L167.132 58.071ZM169.243 64.93C169.243 65.2355 169.231 65.5893 169.205 65.9942L173.198 66.2438C173.227 65.774 173.243 65.3352 173.243 64.93H169.243ZM169.206 65.986C169.179 66.3875 169.153 66.7452 169.126 67.0599L173.113 67.3921C173.141 67.0508 173.169 66.6705 173.197 66.252L169.206 65.986ZM171.12 65.226H157.262V69.226H171.12V65.226ZM155.273 67.4421C155.472 69.2726 156.365 70.7831 157.866 71.8494L160.183 68.5886C159.606 68.1789 159.324 67.694 159.25 67.0099L155.273 67.4421ZM157.866 71.8494C159.349 72.9026 161.193 73.326 163.207 73.326V69.326C161.721 69.326 160.778 69.0114 160.183 68.5886L157.866 71.8494ZM163.207 73.326C164.442 73.326 165.653 73.2205 166.84 73.0075L166.133 69.0705C165.188 69.2401 164.213 69.326 163.207 69.326V73.326ZM166.879 73.0002C168.052 72.7655 169.093 72.4706 169.957 72.0906L168.346 68.4294C167.843 68.6507 167.108 68.8751 166.094 69.0778L166.879 73.0002ZM167.178 70.5862L167.998 75.5472L171.945 74.8948L171.125 69.9338L167.178 70.5862ZM169.077 73.4321C168.892 73.5247 168.575 73.6503 168.085 73.7973L169.234 77.6287C169.838 77.4477 170.395 77.2453 170.866 77.0099L169.077 73.4321ZM168.085 73.7973C167.639 73.9312 167.112 74.05 166.499 74.1481L167.131 78.0979C167.884 77.9774 168.587 77.8228 169.234 77.6287L168.085 73.7973ZM166.407 74.165C165.824 74.2865 165.179 74.3864 164.469 74.4624L164.896 78.4396C165.717 78.3516 166.493 78.2328 167.222 78.081L166.407 74.165ZM164.469 74.4624C163.775 74.5368 163.08 74.574 162.387 74.574V78.574C163.223 78.574 164.06 78.5292 164.896 78.4396L164.469 74.4624ZM162.387 74.574C160.638 74.574 159.204 74.315 158.039 73.8536L156.566 77.5724C158.299 78.259 160.253 78.574 162.387 78.574V74.574ZM158.051 73.8585C156.858 73.3764 155.911 72.7443 155.17 71.9818L152.302 74.7702C153.474 75.9757 154.905 76.9016 156.554 77.5675L158.051 73.8585ZM155.208 72.0227C154.476 71.2265 153.918 70.2824 153.538 69.1652L149.751 70.4528C150.3 72.0689 151.136 73.5029 152.263 74.7293L155.208 72.0227ZM153.549 69.1994C153.181 68.0493 152.989 66.781 152.989 65.381H148.989C148.989 67.1517 149.233 68.8354 149.74 70.4186L153.549 69.1994ZM167.336 62.9389C167.299 62.2406 167.17 61.5575 166.949 60.8945L163.154 62.1595C163.261 62.4805 163.323 62.8087 163.341 63.1491L167.336 62.9389ZM166.979 60.9917C166.765 60.2213 166.394 59.5215 165.873 58.9134L162.836 61.5166C162.971 61.6738 163.065 61.8487 163.125 62.0623L166.979 60.9917ZM165.927 58.9794C165.422 58.3359 164.782 57.8439 164.06 57.4831L162.271 61.0609C162.534 61.1921 162.686 61.3288 162.782 61.4506L165.927 58.9794ZM164.101 57.5044C163.265 57.0616 162.33 56.903 161.403 56.903V60.903C161.897 60.903 162.137 60.9904 162.23 61.0396L164.101 57.5044ZM161.403 56.903C160.482 56.903 159.574 57.0687 158.745 57.4831L160.534 61.0609C160.689 60.9833 160.956 60.903 161.403 60.903V56.903ZM158.827 57.4444C158.083 57.7753 157.425 58.2489 156.891 58.8724L159.928 61.4756C160.05 61.3338 160.212 61.206 160.452 61.0996L158.827 57.4444ZM156.891 58.8724C156.394 59.4525 156.019 60.1151 155.754 60.8356L159.507 62.2184C159.624 61.9003 159.769 61.6609 159.928 61.4756L156.891 58.8724ZM155.733 60.8945C155.534 61.4925 155.385 62.1054 155.286 62.7321L159.237 63.3559C159.302 62.9439 159.399 62.5455 159.528 62.1595L155.733 60.8945ZM157.262 65.044H165.339V61.044H157.262V65.044ZM187.068 69.399L186.493 67.4833L186.493 67.4833L187.068 69.399ZM188.462 68.825L189.454 70.5615L190.462 69.9856V68.825H188.462ZM188.462 59.067H190.462V57.3978L188.82 57.0993L188.462 59.067ZM187.396 58.944L187.132 60.9265L187.197 60.9352L187.263 60.9396L187.396 58.944ZM182.353 60.461L180.748 59.2676L180.748 59.2676L182.353 60.461ZM191.865 81.125L190.496 79.6673L190.484 79.678L190.473 79.6889L191.865 81.125ZM179.647 83.339L180.015 81.3733L179.996 81.3695L179.976 81.3662L179.647 83.339ZM175.998 82.437L174.04 82.0297L173.68 83.7589L175.352 84.3297L175.998 82.437ZM177.064 77.312L177.807 75.455L175.592 74.569L175.106 76.9047L177.064 77.312ZM180.057 78.214L179.645 80.1711L179.655 80.1732L180.057 78.214ZM187.355 77.394L185.915 76.0057L185.902 76.0193L185.889 76.0331L187.355 77.394ZM188.462 73.663H190.462V70.5463L187.629 71.8449L188.462 73.663ZM186.412 74.36L186.804 76.3212L186.833 76.3154L186.862 76.3088L186.412 74.36ZM177.31 71.941L175.818 73.2726L175.823 73.2783L175.828 73.284L177.31 71.941ZM175.67 60.215L177.538 60.9303L177.543 60.9172L175.67 60.215ZM177.802 56.853L176.408 55.4184L176.398 55.4285L176.388 55.4388L177.802 56.853ZM181.287 54.721L181.964 56.6028L181.981 56.5968L181.997 56.5906L181.287 54.721ZM188.175 54.065L187.962 56.0536L188 56.0577L188.037 56.0603L188.175 54.065ZM192.685 54.721L192.218 56.6658L192.262 56.6764L192.307 56.685L192.685 54.721ZM194.571 55.172H196.571V53.6839L195.146 53.2563L194.571 55.172ZM179.164 64.52C179.164 66.4455 179.544 68.2604 180.644 69.6207C181.809 71.0625 183.49 71.645 185.305 71.645V67.645C184.359 67.645 183.97 67.3733 183.755 67.1068C183.474 66.7588 183.164 66.0111 183.164 64.52H179.164ZM185.305 71.645C186.109 71.645 186.892 71.5399 187.643 71.3147L186.493 67.4833C186.151 67.5861 185.758 67.645 185.305 67.645V71.645ZM187.643 71.3147C188.295 71.119 188.908 70.8739 189.454 70.5615L187.47 67.0885C187.251 67.2135 186.935 67.351 186.493 67.4833L187.643 71.3147ZM190.462 68.825V59.067H186.462V68.825H190.462ZM188.82 57.0993C188.424 57.0274 187.99 56.9792 187.529 56.9484L187.263 60.9396C187.621 60.9635 187.898 60.9973 188.104 61.0347L188.82 57.0993ZM187.66 56.9615C187.14 56.8922 186.57 56.862 185.961 56.862V60.862C186.445 60.862 186.832 60.8865 187.132 60.9265L187.66 56.9615ZM185.961 56.862C183.868 56.862 182 57.5835 180.748 59.2676L183.958 61.6544C184.291 61.2065 184.829 60.862 185.961 60.862V56.862ZM180.748 59.2676C179.644 60.7528 179.164 62.5527 179.164 64.52H183.164C183.164 63.2073 183.477 62.3012 183.958 61.6544L180.748 59.2676ZM192.571 73.294C192.571 76.5066 191.751 78.4878 190.496 79.6673L193.234 82.5827C195.587 80.3729 196.571 77.1334 196.571 73.294H192.571ZM190.473 79.6889C189.222 80.9009 187.069 81.708 183.583 81.708V85.708C187.586 85.708 190.954 84.7931 193.257 82.5611L190.473 79.6889ZM183.583 81.708C182.397 81.708 181.208 81.5969 180.015 81.3733L179.278 85.3047C180.71 85.5731 182.145 85.708 183.583 85.708V81.708ZM179.976 81.3662C178.759 81.1634 177.65 80.8876 176.644 80.5443L175.352 84.3297C176.587 84.7517 177.911 85.0773 179.318 85.3118L179.976 81.3662ZM177.956 82.8443L179.022 77.7193L175.106 76.9047L174.04 82.0297L177.956 82.8443ZM176.321 79.169C177.388 79.5958 178.497 79.9294 179.645 80.1711L180.469 76.2569C179.54 76.0613 178.653 75.7936 177.807 75.455L176.321 79.169ZM179.655 80.1732C180.879 80.4244 182.22 80.542 183.665 80.542V76.542C182.431 76.542 181.366 76.441 180.459 76.2548L179.655 80.1732ZM183.665 80.542C185.612 80.542 187.542 80.1316 188.821 78.7549L185.889 76.0331C185.746 76.1871 185.216 76.542 183.665 76.542V80.542ZM188.795 78.7823C189.94 77.5943 190.462 76.0889 190.462 74.442H186.462C186.462 75.2004 186.246 75.663 185.915 76.0057L188.795 78.7823ZM190.462 74.442V73.663H186.462V74.442H190.462ZM187.629 71.8449C187.097 72.0885 186.542 72.2773 185.962 72.4112L186.862 76.3088C187.703 76.1147 188.515 75.8388 189.295 75.4811L187.629 71.8449ZM186.02 72.3988C185.486 72.5056 184.868 72.565 184.157 72.565V76.565C185.086 76.565 185.971 76.4877 186.804 76.3212L186.02 72.3988ZM184.157 72.565C181.584 72.565 179.903 71.8245 178.792 70.598L175.828 73.284C177.887 75.5561 180.771 76.565 184.157 76.565V72.565ZM178.802 70.6094C177.639 69.3063 176.932 67.365 176.932 64.52H172.932C172.932 68.0163 173.81 71.0223 175.818 73.2726L178.802 70.6094ZM176.932 64.52C176.932 63.1424 177.145 61.9546 177.538 60.9303L173.802 59.4997C173.21 61.0447 172.932 62.7269 172.932 64.52H176.932ZM177.543 60.9172C177.941 59.8546 178.502 58.9815 179.216 58.2672L176.388 55.4388C175.243 56.5832 174.383 57.9514 173.797 59.5128L177.543 60.9172ZM179.195 58.2876C179.93 57.5737 180.841 57.007 181.964 56.6028L180.609 52.8392C178.999 53.4189 177.587 54.2736 176.408 55.4184L179.195 58.2876ZM181.997 56.5906C183.101 56.1713 184.398 55.942 185.92 55.942V51.942C183.997 51.942 182.207 52.232 180.576 52.8514L181.997 56.5906ZM185.92 55.942C186.584 55.942 187.264 55.9789 187.962 56.0536L188.388 52.0764C187.555 51.9871 186.732 51.942 185.92 51.942V55.942ZM188.037 56.0603C188.783 56.1117 189.513 56.1886 190.229 56.2909L190.795 52.3311C189.98 52.2147 189.152 52.1277 188.313 52.0697L188.037 56.0603ZM190.229 56.2909C190.939 56.3923 191.601 56.5177 192.218 56.6658L193.152 52.7762C192.402 52.5963 191.616 52.4484 190.795 52.3311L190.229 56.2909ZM192.307 56.685C192.968 56.8121 193.529 56.9474 193.996 57.0877L195.146 53.2563C194.52 53.0686 193.823 52.9032 193.063 52.757L192.307 56.685ZM192.571 55.172V73.294H196.571V55.172H192.571ZM219.735 69.85L221.621 70.5157L221.625 70.5042L219.735 69.85ZM217.603 73.458L219.057 74.8312L219.066 74.8213L219.075 74.8113L217.603 73.458ZM214.241 75.754L213.471 73.9078L213.464 73.9107L213.458 73.9137L214.241 75.754ZM205.549 75.754L204.766 77.5943L204.772 77.5973L204.779 77.6002L205.549 75.754ZM202.228 73.458L200.755 74.8113L200.764 74.8213L200.774 74.8312L202.228 73.458ZM200.055 69.85L198.176 70.5364L198.18 70.5482L200.055 69.85ZM200.055 60.543L198.193 59.8128L198.186 59.8288L198.18 59.8448L200.055 60.543ZM202.269 56.976L200.835 55.5818L200.825 55.5922L200.815 55.6028L202.269 56.976ZM205.631 54.68L204.861 52.8338L204.854 52.8367L204.848 52.8397L205.631 54.68ZM214.159 54.68L213.376 56.5203L213.382 56.5233L213.389 56.5262L214.159 54.68ZM217.521 56.976L216.067 58.3492L216.067 58.3492L217.521 56.976ZM219.694 60.543L217.82 61.2412L217.82 61.2412L219.694 60.543ZM213.093 60.748L211.435 61.8669L211.451 61.8909L211.468 61.9144L213.093 60.748ZM206.656 60.748L208.28 61.9144L208.287 61.9047L208.294 61.8949L206.656 60.748ZM206.656 69.686L205.004 70.8139L205.011 70.8235L205.017 70.8329L206.656 69.686ZM213.093 69.686L211.441 68.5581L211.435 68.5671L213.093 69.686ZM214.938 46.685L216.226 48.2146L217.961 46.7535L216.294 45.2154L214.938 46.685ZM208.173 52.384L206.837 53.8728L208.131 55.0338L209.461 53.9136L208.173 52.384ZM205.385 49.883L203.881 48.5647L202.577 50.0515L204.049 51.3718L205.385 49.883ZM211.207 43.241L212.563 41.7714L211.055 40.3795L209.703 41.9227L211.207 43.241ZM218.473 65.176C218.473 66.6759 218.255 68.0097 217.845 69.1958L221.625 70.5042C222.198 68.8476 222.473 67.0654 222.473 65.176H218.473ZM217.849 69.1844C217.44 70.3433 216.863 71.3072 216.13 72.1047L219.075 74.8113C220.201 73.5862 221.046 72.1447 221.621 70.5156L217.849 69.1844ZM216.149 72.0848C215.422 72.8547 214.538 73.4635 213.471 73.9078L215.01 77.6002C216.568 76.9511 217.925 76.0293 219.057 74.8312L216.149 72.0848ZM213.458 73.9137C212.456 74.3399 211.28 74.574 209.895 74.574V78.574C211.735 78.574 213.456 78.2614 215.024 77.5943L213.458 73.9137ZM209.895 74.574C208.543 74.574 207.36 74.3419 206.318 73.9078L204.779 77.6002C206.362 78.2595 208.076 78.574 209.895 78.574V74.574ZM206.332 73.9137C205.292 73.4714 204.416 72.8622 203.682 72.0848L200.774 74.8312C201.898 76.0218 203.236 76.9433 204.766 77.5943L206.332 73.9137ZM203.7 72.1047C202.96 71.2991 202.365 70.3238 201.929 69.1518L198.18 70.5482C198.783 72.1642 199.637 73.5943 200.755 74.8113L203.7 72.1047ZM201.933 69.1636C201.503 67.9869 201.276 66.6644 201.276 65.176H197.276C197.276 67.0769 197.567 68.8704 198.176 70.5364L201.933 69.1636ZM201.276 65.176C201.276 63.6869 201.503 62.383 201.929 61.2412L198.18 59.8448C197.567 61.491 197.276 63.2758 197.276 65.176H201.276ZM201.917 61.2732C202.38 60.0923 202.987 59.1282 203.723 58.3492L200.815 55.6028C199.692 56.7918 198.823 58.2057 198.193 59.8128L201.917 61.2732ZM203.703 58.3702C204.471 57.58 205.369 56.9648 206.414 56.5203L204.848 52.8397C203.323 53.4885 201.98 54.404 200.835 55.5818L203.703 58.3702ZM206.4 56.5262C207.45 56.0886 208.608 55.86 209.895 55.86V51.86C208.12 51.86 206.435 52.178 204.861 52.8338L206.4 56.5262ZM209.895 55.86C211.215 55.86 212.366 56.0906 213.376 56.5203L214.942 52.8397C213.382 52.1761 211.691 51.86 209.895 51.86V55.86ZM213.389 56.5262C214.456 56.9705 215.34 57.5793 216.067 58.3492L218.975 55.6028C217.843 54.4047 216.486 53.4829 214.928 52.8338L213.389 56.5262ZM216.067 58.3492C216.795 59.1201 217.384 60.0731 217.82 61.2412L221.568 59.8448C220.964 58.2249 220.105 56.7999 218.975 55.6028L216.067 58.3492ZM217.82 61.2412C218.245 62.383 218.473 63.6869 218.473 65.176H222.473C222.473 63.2758 222.181 61.491 221.568 59.8448L217.82 61.2412ZM216.241 65.176C216.241 63.0474 215.812 61.1069 214.717 59.5816L211.468 61.9144C211.904 62.5211 212.241 63.5326 212.241 65.176H216.241ZM214.75 59.6291C213.616 57.9486 211.908 57.108 209.895 57.108V61.108C210.669 61.108 211.093 61.3607 211.435 61.8669L214.75 59.6291ZM209.895 57.108C207.882 57.108 206.176 57.9455 205.017 59.6011L208.294 61.8949C208.666 61.3639 209.119 61.108 209.895 61.108V57.108ZM205.031 59.5816C203.936 61.1069 203.508 63.0474 203.508 65.176H207.508C207.508 63.5326 207.845 62.5211 208.28 61.9144L205.031 59.5816ZM203.508 65.176C203.508 67.3126 203.939 69.2544 205.004 70.8139L208.307 68.5581C207.842 67.8763 207.508 66.8114 207.508 65.176H203.508ZM205.017 70.8329C206.176 72.4885 207.882 73.326 209.895 73.326V69.326C209.119 69.326 208.666 69.0701 208.294 68.5391L205.017 70.8329ZM209.895 73.326C211.908 73.326 213.616 72.4854 214.75 70.8049L211.435 68.5671C211.093 69.0733 210.669 69.326 209.895 69.326V73.326ZM214.744 70.8139C215.809 69.2544 216.241 67.3126 216.241 65.176H212.241C212.241 66.8114 211.907 67.8763 211.441 68.5581L214.744 70.8139ZM213.649 45.1554L206.884 50.8544L209.461 53.9136L216.226 48.2146L213.649 45.1554ZM209.508 50.8952L206.72 48.3942L204.049 51.3718L206.837 53.8728L209.508 50.8952ZM206.889 51.2013L212.711 44.5593L209.703 41.9227L203.881 48.5647L206.889 51.2013ZM209.85 44.7106L213.581 48.1546L216.294 45.2154L212.563 41.7714L209.85 44.7106ZM224.918 60.83L223.044 60.1318L223.04 60.1422L223.036 60.1526L224.918 60.83ZM227.132 57.222L228.585 58.5964L228.594 58.5867L228.603 58.577L227.132 57.222ZM230.617 54.762L231.422 56.5926L231.422 56.5926L230.617 54.762ZM238.448 54.188L238.002 56.1377L238.029 56.1438L238.056 56.1492L238.448 54.188ZM241.236 55.049L243.171 55.5532L243.607 53.8822L242.017 53.2078L241.236 55.049ZM239.965 59.928L239.253 61.797L241.338 62.5912L241.9 60.4322L239.965 59.928ZM238.079 59.354L237.612 61.2988L237.612 61.2988L238.079 59.354ZM231.724 60.789L230.166 59.535L230.157 59.5466L230.147 59.5585L231.724 60.789ZM231.642 69.727L230.057 70.9464L230.066 70.959L230.076 70.9715L231.642 69.727ZM238.407 71.121L238.725 73.0955L238.725 73.0955L238.407 71.121ZM240.744 70.465L242.715 70.1257L242.287 67.6405L239.965 68.6231L240.744 70.465ZM241.605 75.467L242.384 77.3089L243.845 76.6909L243.576 75.1277L241.605 75.467ZM238.94 76.246L238.538 74.2868L238.94 76.246ZM230.33 75.713L229.551 77.5549L229.566 77.5613L229.581 77.5675L230.33 75.713ZM226.804 73.294L225.311 74.6252L225.321 74.6363L225.331 74.6473L226.804 73.294ZM224.795 69.727L222.876 70.2913L222.883 70.314L222.89 70.3366L224.795 69.727ZM226.18 65.217C226.18 63.8731 226.391 62.6415 226.8 61.5074L223.036 60.1526C222.46 61.7518 222.18 63.4449 222.18 65.217H226.18ZM226.792 61.5282C227.224 60.3681 227.825 59.3998 228.585 58.5964L225.679 55.8476C224.526 57.0669 223.65 58.5039 223.044 60.1318L226.792 61.5282ZM228.603 58.577C229.362 57.7525 230.293 57.0894 231.422 56.5926L229.811 52.9314C228.207 53.6372 226.815 54.6141 225.661 55.867L228.603 58.577ZM231.422 56.5926C232.495 56.1205 233.772 55.86 235.291 55.86V51.86C233.311 51.86 231.472 52.2008 229.811 52.9314L231.422 56.5926ZM235.291 55.86C236.314 55.86 237.214 55.9575 238.002 56.1377L238.894 52.2383C237.769 51.9811 236.564 51.86 235.291 51.86V55.86ZM238.056 56.1492C238.878 56.3137 239.678 56.5604 240.455 56.8902L242.017 53.2078C240.99 52.7723 239.931 52.445 238.84 52.2268L238.056 56.1492ZM239.301 54.5448L238.03 59.4238L241.9 60.4322L243.171 55.5532L239.301 54.5448ZM240.677 58.059C240.012 57.8059 239.301 57.5904 238.546 57.4092L237.612 61.2988C238.224 61.4456 238.769 61.6128 239.253 61.797L240.677 58.059ZM238.546 57.4092C237.682 57.2019 236.756 57.108 235.783 57.108V61.108C236.504 61.108 237.109 61.1781 237.612 61.2988L238.546 57.4092ZM235.783 57.108C233.542 57.108 231.542 57.8255 230.166 59.535L233.282 62.043C233.71 61.5111 234.416 61.108 235.783 61.108V57.108ZM230.147 59.5585C228.928 61.1208 228.412 63.0695 228.412 65.217H232.412C232.412 63.7018 232.771 62.6985 233.301 62.0195L230.147 59.5585ZM228.412 65.217C228.412 67.4097 228.872 69.4058 230.057 70.9464L233.227 68.5076C232.772 67.9162 232.412 66.9057 232.412 65.217H228.412ZM230.076 70.9715C231.468 72.7224 233.668 73.326 236.029 73.326V69.326C234.235 69.326 233.511 68.8636 233.208 68.4825L230.076 70.9715ZM236.029 73.326C236.889 73.326 237.789 73.2465 238.725 73.0955L238.088 69.1465C237.33 69.2689 236.645 69.326 236.029 69.326V73.326ZM238.725 73.0955C239.714 72.9361 240.649 72.6766 241.523 72.3069L239.965 68.6231C239.417 68.8547 238.795 69.0326 238.088 69.1465L238.725 73.0955ZM238.773 70.8043L239.634 75.8063L243.576 75.1277L242.715 70.1257L238.773 70.8043ZM240.826 73.6251C240.275 73.8581 239.523 74.0848 238.538 74.2868L239.342 78.2052C240.489 77.9699 241.514 77.6772 242.384 77.3089L240.826 73.6251ZM238.538 74.2868C237.625 74.474 236.587 74.574 235.414 74.574V78.574C236.81 78.574 238.122 78.4553 239.342 78.2052L238.538 74.2868ZM235.414 74.574C233.633 74.574 232.205 74.3134 231.079 73.8585L229.581 77.5675C231.297 78.2606 233.259 78.574 235.414 78.574V74.574ZM231.109 73.8711C229.919 73.3674 228.99 72.7168 228.277 71.9407L225.331 74.6473C226.477 75.8938 227.899 76.856 229.551 77.5549L231.109 73.8711ZM228.297 71.9628C227.592 71.1727 227.057 70.2333 226.7 69.1174L222.89 70.3366C223.408 71.954 224.212 73.3927 225.311 74.6252L228.297 71.9628ZM226.714 69.1627C226.363 67.9708 226.18 66.6594 226.18 65.217H222.18C222.18 67 222.407 68.6952 222.876 70.2913L226.714 69.1627ZM251.814 76V78H253.814V76H251.814ZM245.705 76H243.705V78H245.705V76ZM245.705 54.434V52.434H243.705V54.434H245.705ZM251.814 54.434H253.814V52.434H251.814V54.434ZM251.281 50.867L252.606 52.365L252.61 52.3618L251.281 50.867ZM246.156 50.867L244.799 52.3366L244.829 52.3636L244.859 52.3895L246.156 50.867ZM246.156 45.578L247.481 47.076L247.485 47.0728L246.156 45.578ZM251.281 45.578L249.924 47.0476L249.954 47.0746L249.984 47.1005L251.281 45.578ZM251.814 74H245.705V78H251.814V74ZM247.705 76V54.434H243.705V76H247.705ZM245.705 56.434H251.814V52.434H245.705V56.434ZM249.814 54.434V76H253.814V54.434H249.814ZM250.388 48.202C250.388 48.837 250.203 49.1491 249.952 49.3722L252.61 52.3618C253.835 51.2729 254.388 49.8084 254.388 48.202H250.388ZM249.956 49.369C249.625 49.6613 249.255 49.81 248.739 49.81V53.81C250.191 53.81 251.515 53.33 252.606 52.365L249.956 49.369ZM248.739 49.81C248.222 49.81 247.823 49.6599 247.453 49.3445L244.859 52.3895C245.965 53.3314 247.287 53.81 248.739 53.81V49.81ZM247.513 49.3974C247.278 49.1812 247.09 48.8616 247.09 48.202H243.09C243.09 49.7838 243.612 51.2408 244.799 52.3366L247.513 49.3974ZM247.09 48.202C247.09 47.5404 247.278 47.2556 247.481 47.076L244.831 44.08C243.613 45.1577 243.09 46.6223 243.09 48.202H247.09ZM247.485 47.0728C247.858 46.741 248.247 46.594 248.739 46.594V42.594C247.263 42.594 245.93 43.103 244.827 44.0832L247.485 47.0728ZM248.739 46.594C249.23 46.594 249.59 46.7392 249.924 47.0476L252.638 44.1084C251.55 43.1048 250.216 42.594 248.739 42.594V46.594ZM249.984 47.1005C250.204 47.2879 250.388 47.5657 250.388 48.202H254.388C254.388 46.597 253.834 45.1255 252.578 44.0555L249.984 47.1005ZM276.991 69.85L278.877 70.5157L278.88 70.5042L276.991 69.85ZM274.859 73.458L276.313 74.8312L276.322 74.8213L276.331 74.8113L274.859 73.458ZM271.497 75.754L270.727 73.9078L270.72 73.9107L270.713 73.9137L271.497 75.754ZM262.805 75.754L262.021 77.5943L262.028 77.5973L262.035 77.6002L262.805 75.754ZM259.484 73.458L258.011 74.8113L258.02 74.8213L258.029 74.8312L259.484 73.458ZM257.311 69.85L255.432 70.5364L255.436 70.5482L257.311 69.85ZM257.311 60.543L255.449 59.8128L255.442 59.8288L255.436 59.8448L257.311 60.543ZM259.525 56.976L258.091 55.5818L258.08 55.5922L258.07 55.6028L259.525 56.976ZM262.887 54.68L262.117 52.8338L262.11 52.8367L262.103 52.8397L262.887 54.68ZM271.415 54.68L270.631 56.5203L270.638 56.5233L270.645 56.5262L271.415 54.68ZM274.777 56.976L273.322 58.3492L273.322 58.3492L274.777 56.976ZM276.95 60.543L275.075 61.2412L275.075 61.2412L276.95 60.543ZM270.349 60.748L268.691 61.8669L268.707 61.8909L268.724 61.9144L270.349 60.748ZM263.912 60.748L265.536 61.9144L265.543 61.9047L265.55 61.8949L263.912 60.748ZM263.912 69.686L262.26 70.8139L262.266 70.8235L262.273 70.8329L263.912 69.686ZM270.349 69.686L268.697 68.5581L268.691 68.5671L270.349 69.686ZM275.729 65.176C275.729 66.6759 275.511 68.0097 275.101 69.1958L278.88 70.5042C279.454 68.8476 279.729 67.0654 279.729 65.176H275.729ZM275.105 69.1844C274.696 70.3433 274.119 71.3072 273.386 72.1047L276.331 74.8113C277.457 73.5862 278.302 72.1447 278.877 70.5156L275.105 69.1844ZM273.404 72.0848C272.677 72.8547 271.794 73.4635 270.727 73.9078L272.266 77.6002C273.823 76.9511 275.181 76.0293 276.313 74.8312L273.404 72.0848ZM270.713 73.9137C269.712 74.3399 268.535 74.574 267.151 74.574V78.574C268.991 78.574 270.712 78.2614 272.28 77.5943L270.713 73.9137ZM267.151 74.574C265.799 74.574 264.615 74.3419 263.574 73.9078L262.035 77.6002C263.618 78.2595 265.332 78.574 267.151 78.574V74.574ZM263.588 73.9137C262.548 73.4714 261.672 72.8622 260.938 72.0848L258.029 74.8312C259.154 76.0218 260.492 76.9433 262.021 77.5943L263.588 73.9137ZM260.956 72.1047C260.216 71.2991 259.621 70.3238 259.185 69.1518L255.436 70.5482C256.038 72.1642 256.893 73.5943 258.011 74.8113L260.956 72.1047ZM259.189 69.1636C258.759 67.9869 258.532 66.6644 258.532 65.176H254.532C254.532 67.0769 254.823 68.8704 255.432 70.5364L259.189 69.1636ZM258.532 65.176C258.532 63.6869 258.759 62.383 259.185 61.2412L255.436 59.8448C254.823 61.491 254.532 63.2758 254.532 65.176H258.532ZM259.172 61.2732C259.636 60.0923 260.243 59.1282 260.979 58.3492L258.07 55.6028C256.947 56.7918 256.079 58.2057 255.449 59.8128L259.172 61.2732ZM260.959 58.3702C261.727 57.58 262.625 56.9648 263.67 56.5203L262.103 52.8397C260.579 53.4885 259.236 54.404 258.091 55.5818L260.959 58.3702ZM263.656 56.5262C264.706 56.0886 265.863 55.86 267.151 55.86V51.86C265.376 51.86 263.691 52.178 262.117 52.8338L263.656 56.5262ZM267.151 55.86C268.471 55.86 269.622 56.0906 270.631 56.5203L272.198 52.8397C270.638 52.1761 268.946 51.86 267.151 51.86V55.86ZM270.645 56.5262C271.712 56.9705 272.595 57.5793 273.322 58.3492L276.231 55.6028C275.099 54.4047 273.741 53.4829 272.184 52.8338L270.645 56.5262ZM273.322 58.3492C274.051 59.1201 274.64 60.0731 275.075 61.2412L278.824 59.8448C278.22 58.2249 277.361 56.7999 276.231 55.6028L273.322 58.3492ZM275.075 61.2412C275.501 62.383 275.729 63.6869 275.729 65.176H279.729C279.729 63.2758 279.437 61.491 278.824 59.8448L275.075 61.2412ZM273.497 65.176C273.497 63.0474 273.068 61.1069 271.973 59.5816L268.724 61.9144C269.159 62.5211 269.497 63.5326 269.497 65.176H273.497ZM272.006 59.6291C270.872 57.9486 269.164 57.108 267.151 57.108V61.108C267.925 61.108 268.349 61.3607 268.691 61.8669L272.006 59.6291ZM267.151 57.108C265.138 57.108 263.432 57.9455 262.273 59.6011L265.55 61.8949C265.922 61.3639 266.375 61.108 267.151 61.108V57.108ZM262.287 59.5816C261.192 61.1069 260.764 63.0474 260.764 65.176H264.764C264.764 63.5326 265.101 62.5211 265.536 61.9144L262.287 59.5816ZM260.764 65.176C260.764 67.3126 261.195 69.2544 262.26 70.8139L265.563 68.5581C265.098 67.8763 264.764 66.8114 264.764 65.176H260.764ZM262.273 70.8329C263.432 72.4885 265.138 73.326 267.151 73.326V69.326C266.375 69.326 265.922 69.0701 265.55 68.5391L262.273 70.8329ZM267.151 73.326C269.164 73.326 270.872 72.4854 272.006 70.8049L268.691 68.5671C268.349 69.0733 267.925 69.326 267.151 69.326V73.326ZM272 70.8139C273.065 69.2544 273.497 67.3126 273.497 65.176H269.497C269.497 66.8114 269.163 67.8763 268.697 68.5581L272 70.8139ZM291.03 71.285L291.881 73.0946L291.881 73.0946L291.03 71.285ZM290.825 68.743L289.751 70.4303L289.779 70.4481L289.807 70.4649L290.825 68.743ZM288.078 67.472L288.785 65.601L288.774 65.5971L288.078 67.472ZM285.454 66.365L284.559 68.1539L284.572 68.1601L284.584 68.1661L285.454 66.365ZM283.486 65.012L282.072 66.4262L282.09 66.4443L282.108 66.462L283.486 65.012ZM282.215 63.085L284.067 62.3304L284.067 62.3304L282.215 63.085ZM284.019 55.623L285.251 57.1986L285.251 57.1986L284.019 55.623ZM293.982 54.229L293.581 56.1884L293.602 56.1928L293.624 56.1967L293.982 54.229ZM296.852 54.967L298.803 55.4044L299.181 53.72L297.57 53.1003L296.852 54.967ZM295.786 59.723L295.132 61.613L297.248 62.3455L297.737 60.1604L295.786 59.723ZM293.449 59.067L292.994 61.0147L293.001 61.0163L293.008 61.0179L293.449 59.067ZM288.406 61.609L287.178 63.1877L287.236 63.2326L287.296 63.2731L288.406 61.609ZM289.39 62.183L288.449 63.9477L288.517 63.9842L288.588 64.0153L289.39 62.183ZM291.03 62.839L290.328 64.7117L290.34 64.7163L291.03 62.839ZM294.351 64.315L293.37 66.0582L293.391 66.0699L293.413 66.0812L294.351 64.315ZM296.401 65.873L294.882 67.1746L294.916 67.2134L294.951 67.2505L296.401 65.873ZM297.467 67.718L295.541 68.2573L295.551 68.2926L295.562 68.3276L297.467 67.718ZM295.376 74.934L294.254 73.2786L294.247 73.2831L294.24 73.2876L295.376 74.934ZM283.814 76.082L283.309 78.0173L283.319 78.0198L283.814 76.082ZM281.19 75.262L279.231 74.8573L278.905 76.4352L280.378 77.0896L281.19 75.262ZM282.215 70.301L282.949 68.4407L280.737 67.5676L280.256 69.8963L282.215 70.301ZM285.413 71.285L284.974 73.2362L284.997 73.2415L285.021 73.2462L285.413 71.285ZM288.652 73.613C289.799 73.613 290.984 73.5171 291.881 73.0946L290.178 69.4754C290.201 69.4645 290.108 69.5091 289.814 69.5498C289.536 69.5881 289.154 69.613 288.652 69.613V73.613ZM291.881 73.0946C292.471 72.8172 292.973 72.3717 293.306 71.7649C293.625 71.1828 293.727 70.5662 293.727 70.014H289.727C289.727 70.0904 289.712 70.0001 289.799 69.8416C289.843 69.7611 289.904 69.6814 289.979 69.6119C290.054 69.5431 290.126 69.5002 290.178 69.4754L291.881 73.0946ZM293.727 70.014C293.727 68.5385 292.77 67.5692 291.842 67.0211L289.807 70.4649C289.945 70.5462 289.928 70.5665 289.87 70.4847C289.839 70.44 289.8 70.3719 289.77 70.2818C289.74 70.1906 289.727 70.0984 289.727 70.014H293.727ZM291.899 67.0557C291.123 66.5619 290.055 66.0809 288.785 65.6011L287.371 69.3429C288.561 69.7924 289.324 70.1588 289.751 70.4303L291.899 67.0557ZM288.774 65.5971C287.867 65.2603 287.051 64.9154 286.323 64.5639L284.584 68.1661C285.442 68.5799 286.375 68.973 287.381 69.3469L288.774 65.5971ZM286.348 64.5761C285.736 64.2702 285.249 63.9282 284.863 63.562L282.108 66.462C282.816 67.1345 283.641 67.6945 284.559 68.1539L286.348 64.5761ZM284.9 63.5978C284.548 63.2455 284.27 62.8293 284.067 62.3304L280.363 63.8396C280.761 64.8167 281.331 65.6852 282.072 66.4262L284.9 63.5978ZM284.067 62.3304C283.889 61.8926 283.764 61.2746 283.764 60.42H279.764C279.764 61.6427 279.94 62.8014 280.363 63.8396L284.067 62.3304ZM283.764 60.42C283.764 58.97 284.265 57.9693 285.251 57.1986L282.787 54.0474C280.766 55.6273 279.764 57.8246 279.764 60.42H283.764ZM285.251 57.1986C286.291 56.3852 287.867 55.86 290.21 55.86V51.86C287.305 51.86 284.753 52.5101 282.787 54.0474L285.251 57.1986ZM290.21 55.86C291.396 55.86 292.519 55.9712 293.581 56.1884L294.383 52.2696C293.039 51.9948 291.647 51.86 290.21 51.86V55.86ZM293.624 56.1967C294.768 56.4047 295.588 56.6238 296.134 56.8337L297.57 53.1003C296.694 52.7636 295.601 52.4906 294.34 52.2613L293.624 56.1967ZM294.9 54.5296L293.834 59.2856L297.737 60.1604L298.803 55.4044L294.9 54.5296ZM296.44 57.833C295.65 57.5594 294.798 57.3213 293.889 57.1161L293.008 61.0179C293.794 61.1953 294.501 61.3946 295.132 61.613L296.44 57.833ZM293.903 57.1193C292.904 56.8863 291.818 56.78 290.661 56.78V60.78C291.58 60.78 292.353 60.8651 292.994 61.0147L293.903 57.1193ZM290.661 56.78C289.584 56.78 288.457 56.9186 287.535 57.4326C287.043 57.7065 286.583 58.1025 286.254 58.6526C285.923 59.2054 285.791 59.804 285.791 60.379H289.791C289.791 60.421 289.778 60.5532 289.686 60.7063C289.597 60.8566 289.495 60.9195 289.482 60.9269C289.48 60.9277 289.558 60.8857 289.77 60.8463C289.978 60.8077 290.27 60.78 290.661 60.78V56.78ZM285.791 60.379C285.791 60.8474 285.869 61.3416 286.076 61.8228L289.752 60.2472C289.794 60.3458 289.791 60.4026 289.791 60.379H285.791ZM286.076 61.8228C286.341 62.4421 286.787 62.884 287.178 63.1877L289.634 60.0303C289.593 59.9985 289.594 59.9936 289.617 60.0204C289.64 60.0475 289.698 60.1219 289.752 60.2472L286.076 61.8228ZM287.296 63.2731C287.618 63.4877 288.01 63.7135 288.449 63.9477L290.331 60.4183C289.95 60.2152 289.685 60.0583 289.515 59.9449L287.296 63.2731ZM288.588 64.0153C289.07 64.2259 289.652 64.4583 290.328 64.7117L291.732 60.9663C291.096 60.7277 290.585 60.5228 290.191 60.3507L288.588 64.0153ZM290.34 64.7163C291.617 65.1855 292.619 65.6353 293.37 66.0582L295.331 62.5718C294.334 62.0107 293.121 61.4765 291.719 60.9617L290.34 64.7163ZM293.413 66.0812C294.131 66.4631 294.595 66.8391 294.882 67.1746L297.919 64.5714C297.223 63.7589 296.32 63.0962 295.289 62.5488L293.413 66.0812ZM294.951 67.2505C295.26 67.576 295.443 67.9076 295.541 68.2573L299.393 67.1787C299.108 66.1617 298.58 65.2634 297.851 64.4955L294.951 67.2505ZM295.562 68.3276C295.704 68.7707 295.795 69.3501 295.795 70.096H299.795C299.795 69.0379 299.667 68.0319 299.372 67.1084L295.562 68.3276ZM295.795 70.096C295.795 71.6384 295.259 72.5969 294.254 73.2786L296.498 76.5894C298.718 75.0844 299.795 72.8176 299.795 70.096H295.795ZM294.24 73.2876C293.121 74.0596 291.327 74.574 288.611 74.574V78.574C291.744 78.574 294.46 77.9951 296.511 76.5804L294.24 73.2876ZM288.611 74.574C286.798 74.574 285.378 74.4171 284.309 74.1442L283.319 78.0198C284.819 78.4029 286.597 78.574 288.611 78.574V74.574ZM284.319 74.1468C283.061 73.8187 282.329 73.5797 282.002 73.4344L280.378 77.0896C281.034 77.3816 282.052 77.6893 283.309 78.0172L284.319 74.1468ZM283.148 75.6667L284.173 70.7057L280.256 69.8963L279.231 74.8573L283.148 75.6667ZM281.48 72.1613C282.615 72.6093 283.78 72.9677 284.974 73.2362L285.852 69.3338C284.859 69.1103 283.892 68.8127 282.949 68.4407L281.48 72.1613ZM285.021 73.2462C286.237 73.4895 287.448 73.613 288.652 73.613V69.613C287.723 69.613 286.775 69.5179 285.805 69.3238L285.021 73.2462Z" fill="#FF6501" mask="url(#path-4-outside-2_77_341)"/>
</g>
<defs>
<linearGradient id="paint0_linear_77_341" x1="187.25" y1="10" x2="187.25" y2="185" gradientUnits="userSpaceOnUse">
<stop stop-color="#FF8000"/>
<stop offset="0.28" stop-color="#FF6501"/>
<stop offset="1" stop-color="#FF9330"/>
</linearGradient>
<clipPath id="clip0_77_341">
<rect width="300" height="185" fill="white"/>
</clipPath>
</defs>
</svg>
